{
.appVersion = "1131";
DisplayStrings = (
"The Standing Liberty quarter was a 25-cent coin struck by the United States Mint from 1916 to 1930. It succeeded the Barber quarter, which had been minted since 1892. Featuring the goddess of Liberty on one side and an eagle in flight on the other, the coin was designed by sculptor Hermon Atkins MacNeil. In 1915, he submitted a design that showed Liberty on guard against attacks. The Mint required modifications, and his revised version included dolphins to represent the oceans. In late 1916, Mint officials made major changes, but MacNeil was allowed to create a new design, which included a chain mail vest covering Liberty's formerly bare breast. In circulation, the coin's date wore away quickly, and Mint engravers modified the design to address the issue in 1925. The Standing Liberty quarter was discontinued in 1931, a year in which no quarters were struck. The Washington quarter was introduced the next year to celebrate the bicentennial of George Washington's birth. (Full article...)"
);
copyright = "Copyright © 2018 by Cadson Demak Co.,Ltd.. All rights reserved.";
customParameters = (
{
name = vendorID;
value = CDK;
},
{
name = description;
value = "Copyright (c) 2018, Cadson Demak (info@cadsondemak.com)";
},
{
name = license;

glyphs = (
{
glyphname = A;
lastChange = "2018-04-30 09:45:37 +0000";
layers = (
{
anchors = (
{
name = bottom;
position = "{311, 0}";
},
{
name = ogonek;
position = "{600, 0}";
},
{
name = top;
position = "{311, 700}";
}
);
background = {
paths = (
{
closed = 1;
nodes = (
"99 0 LINE",
"309 612 LINE",
"311 612 LINE",
"521 0 LINE",
"600 0 LINE",
"351 700 LINE",
"269 700 LINE",
"20 0 LINE"
);
},
{
closed = 1;
nodes = (
"493 189 LINE",
"493 255 LINE",
"135 255 LINE",
"135 189 LINE"
);
}
);
};
layerId = "39D11A97-A6D9-4B52-A6F5-15D5E4373676";
paths = (
{
closed = 1;
nodes = (
"99 0 LINE",
"164 189 LINE",
"456 189 LINE",
"521 0 LINE",
"600 0 LINE",
"351 700 LINE",
"269 700 LINE",
"20 0 LINE"
);
},
{
closed = 1;
nodes = (
"309 612 LINE",
"311 612 LINE",
"434 255 LINE",
"187 255 LINE"
);
}
);
width = 620;
},
{
anchors = (
{
name = bottom;
position = "{337, 0}";
},
{
name = ogonek;
position = "{626, 0}";
},
{
name = top;
position = "{337, 700}";
}
);
background = {
paths = (
{
closed = 1;
nodes = (
"147 0 LINE",
"204 153 LINE",
"468 153 LINE",
"525 0 LINE",
"667 0 LINE",
"398 700 LINE",
"274 700 LINE",
"5 0 LINE"
);
},
{
closed = 1;
nodes = (
"346 557 LINE",
"326 557 LINE",
"428 267 LINE",
"244 267 LINE"
);
}
);
};
layerId = "D6105F7E-CAE1-4F7B-A52E-8AA6E6082DF8";
paths = (
{
closed = 1;
nodes = (
"147 0 LINE",
"204 153 LINE",
"468 153 LINE",
"525 0 LINE",
"667 0 LINE",
"398 700 LINE",
"274 700 LINE",
"5 0 LINE"
);
},
{
closed = 1;
nodes = (
"335 531 LINE",
"337 531 LINE",
"429 267 LINE",
"243 267 LINE"
);
}
);
width = 672;
}
);
leftKerningGroup = A;
note = A;
rightKerningGroup = A;
rightMetricsKey = "=|";
unicode = 0041;
},
{
glyphname = B;
lastChange = "2018-04-30 09:45:50 +0000";
layers = (
{
anchors = (
{
name = bottom;
position = "{328, 0}";
},
{
name = top;
position = "{328, 700}";
}
);
background = {
paths = (
{
closed = 1;
nodes = (
"560 414 LINE",
"560 608 LINE",
"468 700 LINE",
"75 700 LINE",
"75 0 LINE",
"491 0 LINE",
"591 100 LINE",
"591 287 LINE",
"512 366 LINE"
);
},
{
closed = 1;
nodes = (
"436 634 LINE",
"486 584 LINE",
"486 434 LINE",
"436 384 LINE",
"149 384 LINE",
"149 634 LINE"
);
},
{
closed = 1;
nodes = (
"459 66 LINE",
"149 66 LINE",
"149 320 LINE",
"459 320 LINE",
"517 262 LINE",
"517 124 LINE"
);
}
);
};
layerId = "39D11A97-A6D9-4B52-A6F5-15D5E4373676";
paths = (
{
closed = 1;
nodes = (
"496 0 LINE",
"596 100 LINE",
"596 287 LINE",
"517 366 LINE",
"565 414 LINE",
"565 608 LINE",
"473 700 LINE",
"80 700 LINE",
"80 0 LINE"
);
},
{
closed = 1;
nodes = (
"154 320 LINE",
"464 320 LINE",
"522 263 LINE",
"522 123 LINE",
"464 66 LINE",
"154 66 LINE"
);
},
{
closed = 1;
nodes = (
"154 634 LINE",
"441 634 LINE",
"491 585 LINE",
"491 434 LINE",
"441 384 LINE",
"154 384 LINE"
);
}
);
width = 646;
},
{
anchors = (
{
name = bottom;
position = "{343, 0}";
},
{
name = top;
position = "{343, 700}";
}
);
background = {
paths = (
{
closed = 1;
nodes = (
"527 0 LINE",
"641 114 LINE",
"641 291 LINE",
"569 363 LINE",
"610 404 LINE",
"610 594 LINE",
"504 700 LINE",
"65 700 LINE",
"65 0 LINE"
);
},
{
closed = 1;
nodes = (
"198 297 LINE",
"463 297 LINE",
"507 254 LINE",
"507 158 LINE",
"463 115 LINE",
"198 115 LINE"
);
},
{
closed = 1;
nodes = (
"198 585 LINE",
"440 585 LINE",
"476 550 LINE",
"476 443 LINE",
"439 407 LINE",
"198 407 LINE"
);
}
);
};
layerId = "D6105F7E-CAE1-4F7B-A52E-8AA6E6082DF8";
paths = (
{
closed = 1;
nodes = (
"527 0 LINE",
"641 114 LINE",
"641 291 LINE",
"569 363 LINE",
"610 404 LINE",
"610 594 LINE",
"504 700 LINE",
"65 700 LINE",
"65 0 LINE"
);
},
{
closed = 1;
nodes = (
"198 297 LINE",
"463 297 LINE",
"507 254 LINE",
"507 158 LINE",
"463 115 LINE",
"198 115 LINE"
);
},
{
closed = 1;
nodes = (
"198 585 LINE",
"440 585 LINE",
"476 550 LINE",
"476 443 LINE",
"439 407 LINE",
"198 407 LINE"
);
}
);
width = 676;
}
);
leftMetricsKey = H;
note = B;
unicode = 0042;
},
{
glyphname = C;
lastChange = "2018-04-19 11:12:37 +0000";
layers = (
{
anchors = (
{
name = bottom;
position = "{322, 0}";
},
{
name = top;
position = "{330, 700}";
}
);
background = {
paths = (
{
closed = 1;
nodes = (
"65 110 LINE",
"175 0 LINE",
"475 0 LINE",
"581 106 LINE",
"581 170 LINE",
"505 170 LINE",
"505 130 LINE",
"441 68 LINE",
"209 68 LINE",
"141 134 LINE",
"141 566 LINE",
"209 632 LINE",
"441 632 LINE",
"505 570 LINE",
"505 530 LINE",
"581 530 LINE",
"581 594 LINE",
"475 700 LINE",
"175 700 LINE",
"65 590 LINE"
);
}
);
};
layerId = "39D11A97-A6D9-4B52-A6F5-15D5E4373676";
paths = (
{
closed = 1;
nodes = (
"480 0 LINE",
"586 106 LINE",
"586 170 LINE",
"510 170 LINE",
"510 131 LINE",
"446 68 LINE",
"214 68 LINE",
"146 135 LINE",
"146 565 LINE",
"214 632 LINE",
"446 632 LINE",
"510 569 LINE",
"510 530 LINE",
"586 530 LINE",
"586 594 LINE",
"473 700 LINE",
"180 700 LINE",
"70 590 LINE",
"70 110 LINE",
"180 0 LINE"
);
}
);
width = 631;
},
{
anchors = (
{
name = bottom;
position = "{337, 0}";
},
{
name = top;
position = "{345, 700}";
}
);
background = {
paths = (
{
closed = 1;
nodes = (
"509 -2 LINE",
"631 120 LINE",
"631 220 LINE",
"495 220 LINE",
"495 165 LINE",
"448 118 LINE",
"242 118 LINE",
"191 169 LINE",
"191 555 LINE",
"242 606 LINE",
"448 606 LINE",
"495 559 LINE",
"495 504 LINE",
"631 504 LINE",
"631 604 LINE",
"501 726 LINE",
"181 726 LINE",
"55 600 LINE",
"55 124 LINE",
"181 -2 LINE"
);
}
);
};
layerId = "D6105F7E-CAE1-4F7B-A52E-8AA6E6082DF8";
paths = (
{
closed = 1;
nodes = (
"509 0 LINE",
"631 122 LINE",
"631 222 LINE",
"495 222 LINE",
"495 167 LINE",
"445 118 LINE",
"245 118 LINE",
"191 171 LINE",
"191 529 LINE",
"245 582 LINE",
"445 582 LINE",
"495 533 LINE",
"495 478 LINE",
"631 478 LINE",
"631 578 LINE",
"501 700 LINE",
"181 700 LINE",
"55 574 LINE",
"55 126 LINE",
"181 0 LINE"
);
}
);
width = 661;
}
);
leftKerningGroup = O;
leftMetricsKey = O;
note = C;
rightKerningGroup = C;
unicode = 0043;
},
{
glyphname = D;
lastChange = "2018-04-19 11:12:06 +0000";
layers = (
{
anchors = (
{
name = bottom;
position = "{326, 0}";
},
{
name = center;
position = "{326, 350}";
},
{
name = top;
position = "{326, 700}";
}
);
background = {
paths = (
{
closed = 1;
nodes = (
"486 0 LINE",
"596 110 LINE",
"596 590 LINE",
"486 700 LINE",
"80 700 LINE",
"80 0 LINE"
);
},
{
closed = 1;
nodes = (
"156 632 LINE",
"452 632 LINE",
"520 565 LINE",
"520 135 LINE",
"452 68 LINE",
"156 68 LINE"
);
}
);
};
layerId = "39D11A97-A6D9-4B52-A6F5-15D5E4373676";
paths = (
{
closed = 1;
nodes = (
"484 0 LINE",
"594 110 LINE",
"594 590 LINE",
"484 700 LINE",
"80 700 LINE",
"80 0 LINE"
);
},
{
closed = 1;
nodes = (
"156 632 LINE",
"450 632 LINE",
"518 565 LINE",
"518 135 LINE",
"450 68 LINE",
"156 68 LINE"
);
}
);
width = 664;
},
{
anchors = (
{
name = bottom;
position = "{341, 0}";
},
{
name = center;
position = "{341, 350}";
},
{
name = top;
position = "{341, 700}";
}
);
background = {
paths = (
{
closed = 1;
nodes = (
"501 0 LINE",
"611 110 LINE",
"611 590 LINE",
"501 700 LINE",
"95 700 LINE",
"95 0 LINE"
);
},
{
closed = 1;
nodes = (
"171 632 LINE",
"467 632 LINE",
"535 565 LINE",
"535 135 LINE",
"467 68 LINE",
"171 68 LINE"
);
}
);
};
layerId = "D6105F7E-CAE1-4F7B-A52E-8AA6E6082DF8";
paths = (
{
closed = 1;
nodes = (
"513 0 LINE",
"639 126 LINE",
"639 574 LINE",
"513 700 LINE",
"65 700 LINE",
"65 0 LINE"
);
},
{
closed = 1;
nodes = (
"201 580 LINE",
"452 580 LINE",
"503 529 LINE",
"503 171 LINE",
"452 120 LINE",
"201 120 LINE"
);
}
);
width = 694;
}
);
leftKerningGroup = D;
leftMetricsKey = H;
note = D;
rightKerningGroup = O;
unicode = 0044;
},
{
glyphname = E;
lastChange = "2018-04-19 11:23:48 +0000";
layers = (
{
anchors = (
{
name = bottom;
position = "{316, 0}";
},
{
name = ogonek;
position = "{540, 0}";
},
{
name = top;
position = "{312, 700}";
},
{
name = topleft;
position = "{20, 700}";
}
);
background = {
paths = (
{
closed = 1;
nodes = (
"540 0 LINE",
"540 68 LINE",
"156 68 LINE",
"156 316 LINE",
"511 316 LINE",
"511 384 LINE",
"156 384 LINE",
"156 632 LINE",
"540 632 LINE",
"540 700 LINE",
"80 700 LINE",
"81 0 LINE"
);
}
);
};
layerId = "39D11A97-A6D9-4B52-A6F5-15D5E4373676";
paths = (
{
closed = 1;
nodes = (
"532 0 LINE",
"532 68 LINE",
"156 68 LINE",
"156 318 LINE",
"503 318 LINE",
"503 386 LINE",
"156 386 LINE",
"156 632 LINE",
"532 632 LINE",
"532 700 LINE",
"80 700 LINE",
"80 0 LINE"
);
}
);
width = 582;
},
{
anchors = (
{
name = bottom;
position = "{331, 0}";
},
{
name = ogonek;
position = "{555, 0}";
},
{
name = top;
position = "{327, 700}";
},
{
name = topleft;
position = "{35, 700}";
}
);
background = {
paths = (
{
closed = 1;
nodes = (
"577 0 LINE",
"577 120 LINE",
"201 120 LINE",
"201 292 LINE",
"548 292 LINE",
"548 412 LINE",
"201 412 LINE",
"201 580 LINE",
"577 580 LINE",
"577 700 LINE",
"65 700 LINE",
"65 0 LINE"
);
}
);
};
layerId = "D6105F7E-CAE1-4F7B-A52E-8AA6E6082DF8";
paths = (
{
closed = 1;
nodes = (
"577 0 LINE",
"577 118 LINE",
"201 118 LINE",
"201 294 LINE",
"548 294 LINE",
"548 410 LINE",
"201 410 LINE",
"201 582 LINE",
"577 582 LINE",
"577 700 LINE",
"65 700 LINE",
"65 0 LINE"
);
}
);
width = 612;
}
);
leftKerningGroup = E;
leftMetricsKey = H;
note = E;
rightKerningGroup = E;
unicode = 0045;
},
{
glyphname = F;
lastChange = "2018-04-19 11:23:59 +0000";
layers = (
{
anchors = (
{
name = bottom;
position = "{295, 0}";
},
{
name = top;
position = "{295, 700}";
}
);
background = {
paths = (
{
closed = 1;
nodes = (
"543 633 LINE",
"543 700 LINE",
"75 700 LINE",
"75 0 LINE",
"149 0 LINE",
"149 313 LINE",
"514 313 LINE",
"514 380 LINE",
"149 380 LINE",
"149 633 LINE"
);
}
);
};
layerId = "39D11A97-A6D9-4B52-A6F5-15D5E4373676";
paths = (
{
closed = 1;
nodes = (
"522 632 LINE",
"522 700 LINE",
"80 700 LINE",
"80 0 LINE",
"156 0 LINE",
"156 312 LINE",
"493 312 LINE",
"493 380 LINE",
"156 380 LINE",
"156 632 LINE"
);
}
);
width = 557;
},
{
anchors = (
{
name = bottom;
position = "{310, 0}";
},
{
name = top;
position = "{310, 700}";
}
);
background = {
paths = (
{
closed = 1;
nodes = (
"567 580 LINE",
"567 700 LINE",
"65 700 LINE",
"65 0 LINE",
"201 0 LINE",
"201 273 LINE",
"538 273 LINE",
"538 393 LINE",
"201 393 LINE",
"201 580 LINE"
);
}
);
};
layerId = "D6105F7E-CAE1-4F7B-A52E-8AA6E6082DF8";
paths = (
{
closed = 1;
nodes = (
"567 582 LINE",
"567 700 LINE",
"65 700 LINE",
"65 0 LINE",
"201 0 LINE",
"201 274 LINE",
"538 274 LINE",
"538 392 LINE",
"201 392 LINE",
"201 582 LINE"
);
}
);
width = 587;
}
);
note = F;
unicode = 0046;
},
{
glyphname = G;
lastChange = "2018-04-19 11:24:19 +0000";
layers = (
{
anchors = (
{
name = bottom;
position = "{332, 0}";
},
{
name = top;
position = "{330, 700}";
}
);
background = {
paths = (
{
closed = 1;
nodes = (
"583 365 LINE",
"349 365 LINE",
"349 297 LINE",
"507 297 LINE",
"507 131 LINE",
"443 68 LINE",
"209 68 LINE",
"141 135 LINE",
"141 566 LINE",
"209 632 LINE",
"443 632 LINE",
"507 570 LINE",
"507 530 LINE",
"583 530 LINE",
"583 594 LINE",
"477 700 LINE",
"175 700 LINE",
"65 590 LINE",
"65 110 LINE",
"175 0 LINE",
"477 0 LINE",
"583 106 LINE"
);
}
);
};
layerId = "39D11A97-A6D9-4B52-A6F5-15D5E4373676";
paths = (
{
closed = 1;
nodes = (
"486 0 LINE",
"592 106 LINE",
"592 365 LINE",
"358 365 LINE",
"358 297 LINE",
"516 297 LINE",
"516 131 LINE",
"452 68 LINE",
"214 68 LINE",
"146 135 LINE",
"146 565 LINE",
"214 632 LINE",
"452 632 LINE",
"516 569 LINE",
"516 530 LINE",
"592 530 LINE",
"592 594 LINE",
"486 700 LINE",
"180 700 LINE",
"70 590 LINE",
"70 110 LINE",
"180 0 LINE"
);
}
);
width = 652;
},
{
anchors = (
{
name = bottom;
position = "{347, 0}";
},
{
name = top;
position = "{345, 700}";
}
);
background = {
paths = (
{
closed = 1;
nodes = (
"515 0 LINE",
"637 122 LINE",
"637 391 LINE",
"343 391 LINE",
"343 271 LINE",
"501 271 LINE",
"501 165 LINE",
"454 118 LINE",
"242 118 LINE",
"191 169 LINE",
"191 531 LINE",
"242 582 LINE",
"454 582 LINE",
"501 535 LINE",
"501 478 LINE",
"637 478 LINE",
"637 578 LINE",
"515 700 LINE",
"181 700 LINE",
"55 574 LINE",
"55 126 LINE",
"181 0 LINE"
);
}
);
};
layerId = "D6105F7E-CAE1-4F7B-A52E-8AA6E6082DF8";
paths = (
{
closed = 1;
nodes = (
"515 0 LINE",
"637 122 LINE",
"637 390 LINE",
"353 390 LINE",
"353 274 LINE",
"505 274 LINE",
"505 167 LINE",
"455 118 LINE",
"245 118 LINE",
"191 171 LINE",
"191 529 LINE",
"245 582 LINE",
"451 582 LINE",
"501 533 LINE",
"501 478 LINE",
"637 478 LINE",
"637 578 LINE",
"515 700 LINE",
"181 700 LINE",
"55 574 LINE",
"55 126 LINE",
"181 0 LINE"
);
}
);
width = 682;
}
);
leftKerningGroup = O;
leftMetricsKey = O;
note = G;
rightKerningGroup = G;
unicode = 0047;
},
{
glyphname = H;
lastChange = "2018-04-30 09:46:30 +0000";
layers = (
{
anchors = (
{
name = bottom;
position = "{338, 0}";
},
{
name = center;
position = "{336, 350}";
},
{
name = top;
position = "{336, 700}";
},
{
name = topleft;
position = "{20, 700}";
}
);
background = {
paths = (
{
closed = 1;
nodes = (
"151 0 LINE",
"151 315 LINE",
"513 315 LINE",
"513 0 LINE",
"589 0 LINE",
"589 700 LINE",
"513 700 LINE",
"513 383 LINE",
"151 383 LINE",
"151 700 LINE",
"75 700 LINE",
"75 0 LINE"
);
}
);
};
layerId = "39D11A97-A6D9-4B52-A6F5-15D5E4373676";
paths = (
{
closed = 1;
nodes = (
"156 0 LINE",
"156 315 LINE",
"518 315 LINE",
"518 0 LINE",
"594 0 LINE",
"594 700 LINE",
"518 700 LINE",
"518 383 LINE",
"156 383 LINE",
"156 700 LINE",
"80 700 LINE",
"80 0 LINE"
);
}
);
width = 674;
},
{
anchors = (
{
name = bottom;
position = "{338, 0}";
},
{
name = center;
position = "{336, 350}";
},
{
name = top;
position = "{336, 700}";
},
{
name = topleft;
position = "{20, 700}";
}
);
background = {
paths = (
{
closed = 1;
nodes = (
"201 0 LINE",
"201 290 LINE",
"503 290 LINE",
"503 0 LINE",
"639 0 LINE",
"639 700 LINE",
"503 700 LINE",
"503 408 LINE",
"201 408 LINE",
"201 700 LINE",
"65 700 LINE",
"65 0 LINE"
);
}
);
};
layerId = "D6105F7E-CAE1-4F7B-A52E-8AA6E6082DF8";
paths = (
{
closed = 1;
nodes = (
"201 0 LINE",
"201 290 LINE",
"503 290 LINE",
"503 0 LINE",
"639 0 LINE",
"639 700 LINE",
"503 700 LINE",
"503 408 LINE",
"201 408 LINE",
"201 700 LINE",
"65 700 LINE",
"65 0 LINE"
);
}
);
width = 704;
}
);
note = H;
rightMetricsKey = "=|";
unicode = 0048;
},
{
glyphname = I;
lastChange = "2018-04-19 06:47:05 +0000";
layers = (
{
anchors = (
{
name = bottom;
position = "{123, 0}";
},
{
name = ogonek;
position = "{161, 0}";
},
{
name = top;
position = "{123, 700}";
},
{
name = topleft;
position = "{15, 700}";
}
);
layerId = "39D11A97-A6D9-4B52-A6F5-15D5E4373676";
paths = (
{
closed = 1;
nodes = (
"161 700 LINE",
"85 700 LINE",
"85 0 LINE",
"161 0 LINE"
);
}
);
width = 246;
},
{
anchors = (
{
name = bottom;
position = "{123, 0}";
},
{
name = ogonek;
position = "{161, 0}";
},
{
name = top;
position = "{123, 700}";
},
{
name = topleft;
position = "{15, 700}";
}
);
layerId = "D6105F7E-CAE1-4F7B-A52E-8AA6E6082DF8";
paths = (
{
closed = 1;
nodes = (
"191 700 LINE",
"55 700 LINE",
"55 0 LINE",
"191 0 LINE"
);
}
);
width = 246;
}
);
note = I;
rightMetricsKey = "=|";
unicode = 0049;
},
{
glyphname = J;
lastChange = "2018-04-19 06:50:15 +0000";
layers = (
{
anchors = (
{
name = bottom;
position = "{277, 0}";
},
{
name = top;
position = "{442, 700}";
}
);
background = {
paths = (
{
closed = 1;
nodes = (
"343 68 LINE",
"171 68 LINE",
"102 135 LINE",
"102 209 LINE",
"28 209 LINE",
"28 110 LINE",
"138 0 LINE",
"376 0 LINE",
"476 100 LINE",
"476 700 LINE",
"400 700 LINE",
"400 123 LINE"
);
}
);
};
layerId = "39D11A97-A6D9-4B52-A6F5-15D5E4373676";
paths = (
{
closed = 1;
nodes = (
"348 68 LINE",
"178 68 LINE",
"109 136 LINE",
"109 209 LINE",
"35 209 LINE",
"35 110 LINE",
"145 0 LINE",
"381 0 LINE",
"481 100 LINE",
"481 700 LINE",
"405 700 LINE",
"405 124 LINE"
);
}
);
width = 556;
},
{
anchors = (
{
name = bottom;
position = "{292, 0}";
},
{
name = top;
position = "{457, 700}";
}
);
background = {
paths = (
{
closed = 1;
nodes = (
"350 120 LINE",
"206 120 LINE",
"154 172 LINE",
"154 261 LINE",
"20 261 LINE",
"20 126 LINE",
"146 0 LINE",
"410 0 LINE",
"526 116 LINE",
"526 700 LINE",
"390 700 LINE",
"390 160 LINE"
);
}
);
};
layerId = "D6105F7E-CAE1-4F7B-A52E-8AA6E6082DF8";
paths = (
{
closed = 1;
nodes = (
"410 0 LINE",
"526 116 LINE",
"526 700 LINE",
"390 700 LINE",
"390 160 LINE",
"347 118 LINE",
"207 118 LINE",
"152 172 LINE",
"152 261 LINE",
"20 261 LINE",
"20 126 LINE",
"146 0 LINE"
);
}
);
width = 586;
}
);
leftKerningGroup = J;
note = J;
rightKerningGroup = J;
unicode = 004A;
},
{
glyphname = K;
lastChange = "2018-04-19 06:50:50 +0000";
layers = (
{
anchors = (
{
name = bottom;
position = "{318, 0}";
},
{
name = top;
position = "{319, 700}";
}
);
background = {
paths = (
{
closed = 1;
nodes = (
"313 384 LINE",
"151 384 LINE",
"151 700 LINE",
"75 700 LINE",
"75 0 LINE",
"151 0 LINE",
"151 317 LINE",
"313 317 LINE",
"508 0 LINE",
"592 0 LINE",
"377 351 LINE",
"577 700 LINE",
"495 700 LINE"
);
}
);
};
layerId = "39D11A97-A6D9-4B52-A6F5-15D5E4373676";
paths = (
{
closed = 1;
nodes = (
"318 383 LINE",
"156 383 LINE",
"156 700 LINE",
"80 700 LINE",
"80 0 LINE",
"156 0 LINE",
"156 315 LINE",
"319 315 LINE",
"513 0 LINE",
"597 0 LINE",
"383 351 LINE",
"582 700 LINE",
"500 700 LINE"
);
}
);
width = 617;
},
{
anchors = (
{
name = bottom;
position = "{333, 0}";
},
{
name = top;
position = "{334, 700}";
}
);
background = {
paths = (
{
closed = 1;
nodes = (
"314 409 LINE",
"201 409 LINE",
"201 726 LINE",
"65 726 LINE",
"65 -26 LINE",
"201 -26 LINE",
"201 289 LINE",
"316 289 LINE",
"510 -26 LINE",
"662 -26 LINE",
"432 351 LINE",
"645 726 LINE",
"496 726 LINE"
);
}
);
};
layerId = "D6105F7E-CAE1-4F7B-A52E-8AA6E6082DF8";
paths = (
{
closed = 1;
nodes = (
"313 408 LINE",
"201 408 LINE",
"201 700 LINE",
"65 700 LINE",
"65 0 LINE",
"201 0 LINE",
"201 290 LINE",
"312 290 LINE",
"508 0 LINE",
"662 0 LINE",
"426 351 LINE",
"645 700 LINE",
"493 700 LINE"
);
}
);
width = 667;
}
);
leftMetricsKey = "=H";
note = K;
rightKerningGroup = K;
unicode = 004B;
},
{
glyphname = L;
lastChange = "2018-04-19 06:51:06 +0000";
layers = (
{
anchors = (
{
name = bottom;
position = "{300, 0}";
},
{
name = center;
position = "{271, 350}";
},
{
name = top;
position = "{119, 700}";
},
{
name = topright;
position = "{522, 700}";
}
);
background = {
paths = (
{
closed = 1;
nodes = (
"507 0 LINE",
"507 68 LINE",
"151 68 LINE",
"151 700 LINE",
"75 700 LINE",
"75 0 LINE"
);
}
);
};
layerId = "39D11A97-A6D9-4B52-A6F5-15D5E4373676";
paths = (
{
closed = 1;
nodes = (
"512 0 LINE",
"512 68 LINE",
"156 68 LINE",
"156 700 LINE",
"80 700 LINE",
"80 0 LINE"
);
}
);
width = 537;
},
{
anchors = (
{
name = bottom;
position = "{300, 0}";
},
{
name = center;
position = "{271, 350}";
},
{
name = top;
position = "{119, 700}";
},
{
name = topright;
position = "{522, 700}";
}
);
background = {
paths = (
{
closed = 1;
nodes = (
"507 0 LINE",
"507 68 LINE",
"151 68 LINE",
"151 700 LINE",
"75 700 LINE",
"75 0 LINE"
);
}
);
};
layerId = "D6105F7E-CAE1-4F7B-A52E-8AA6E6082DF8";
paths = (
{
closed = 1;
nodes = (
"557 0 LINE",
"557 118 LINE",
"201 118 LINE",
"201 700 LINE",
"65 700 LINE",
"65 0 LINE"
);
}
);
width = 567;
}
);
note = L;
rightKerningGroup = L;
unicode = 004C;
},
{
glyphname = M;
lastChange = "2018-04-19 06:51:43 +0000";
layers = (
{
anchors = (
{
name = bottom;
position = "{388, 0}";
},
{
name = top;
position = "{388, 700}";
}
);
background = {
paths = (
{
closed = 1;
nodes = (
"147 0 LINE",
"147 553 LINE",
"351 70 LINE",
"411 70 LINE",
"616 553 LINE",
"616 0 LINE",
"688 0 LINE",
"688 700 LINE",
"609 700 LINE",
"381 154 LINE",
"153 700 LINE",
"75 700 LINE",
"75 0 LINE"
);
}
);
};
layerId = "39D11A97-A6D9-4B52-A6F5-15D5E4373676";
paths = (
{
closed = 1;
nodes = (
"152 0 LINE",
"152 553 LINE",
"154 553 LINE",
"358 70 LINE",
"418 70 LINE",
"623 553 LINE",
"625 553 LINE",
"625 0 LINE",
"697 0 LINE",
"697 700 LINE",
"614 700 LINE",
"389 158 LINE",
"387 158 LINE",
"162 700 LINE",
"80 700 LINE",
"80 0 LINE"
);
}
);
width = 777;
},
{
anchors = (
{
name = bottom;
position = "{388, 0}";
},
{
name = top;
position = "{388, 700}";
}
);
background = {
paths = (
{
closed = 1;
nodes = (
"182 -26 LINE",
"182 527 LINE",
"133 527 LINE",
"337 44 LINE",
"439 44 LINE",
"644 527 LINE",
"595 527 LINE",
"595 -26 LINE",
"727 -26 LINE",
"727 726 LINE",
"593 726 LINE",
"368 184 LINE",
"408 184 LINE",
"183 726 LINE",
"50 726 LINE",
"50 -26 LINE"
);
}
);
};
layerId = "D6105F7E-CAE1-4F7B-A52E-8AA6E6082DF8";
paths = (
{
closed = 1;
nodes = (
"196 0 LINE",
"196 426 LINE",
"198 426 LINE",
"361 98 LINE",
"445 98 LINE",
"609 426 LINE",
"611 426 LINE",
"611 0 LINE",
"742 0 LINE",
"742 700 LINE",
"616 700 LINE",
"404 248 LINE",
"402 248 LINE",
"191 700 LINE",
"65 700 LINE",
"65 0 LINE"
);
}
);
width = 807;
}
);
note = M;
rightMetricsKey = "=|";
unicode = 004D;
},
{
glyphname = N;
lastChange = "2018-04-19 06:52:11 +0000";
layers = (
{
anchors = (
{
name = bottom;
position = "{336, 0}";
},
{
name = top;
position = "{336, 700}";
}
);
background = {
paths = (
{
closed = 1;
nodes = (
"518 124 LINE",
"516 124 LINE",
"154 700 LINE",
"80 700 LINE",
"80 0 LINE",
"152 0 LINE",
"152 576 LINE",
"154 576 LINE",
"516 0 LINE",
"590 0 LINE",
"590 700 LINE",
"518 700 LINE"
);
}
);
};
layerId = "39D11A97-A6D9-4B52-A6F5-15D5E4373676";
paths = (
{
closed = 1;
nodes = (
"521 124 LINE",
"519 124 LINE",
"154 700 LINE",
"80 700 LINE",
"80 0 LINE",
"152 0 LINE",
"152 576 LINE",
"154 576 LINE",
"519 0 LINE",
"593 0 LINE",
"593 700 LINE",
"521 700 LINE"
);
}
);
width = 673;
},
{
anchors = (
{
name = bottom;
position = "{351, 0}";
},
{
name = top;
position = "{351, 700}";
}
);
background = {
paths = (
{
closed = 1;
nodes = (
"506 150 LINE",
"552 150 LINE",
"187 726 LINE",
"65 726 LINE",
"65 -26 LINE",
"197 -26 LINE",
"197 550 LINE",
"151 550 LINE",
"516 -26 LINE",
"638 -26 LINE",
"638 726 LINE",
"506 726 LINE"
);
}
);
};
layerId = "D6105F7E-CAE1-4F7B-A52E-8AA6E6082DF8";
paths = (
{
closed = 1;
nodes = (
"507 225 LINE",
"505 225 LINE",
"187 700 LINE",
"65 700 LINE",
"65 0 LINE",
"196 0 LINE",
"196 474 LINE",
"198 474 LINE",
"516 0 LINE",
"638 0 LINE",
"638 700 LINE",
"507 700 LINE"
);
}
);
width = 703;
}
);
note = N;
rightMetricsKey = "=|";
unicode = 004E;
},
{
glyphname = O;
lastChange = "2018-04-30 12:15:33 +0000";
layers = (
{
anchors = (
{
name = bottom;
position = "{339, 0}";
},
{
name = center;
position = "{339, 350}";
},
{
name = ogonek;
position = "{614, 10}";
},
{
name = top;
position = "{339, 700}";
},
{
name = topleft;
position = "{15, 700}";
},
{
name = topright;
position = "{608, 518}";
}
);
background = {
paths = (
{
closed = 1;
nodes = (
"493 0 LINE",
"603 110 LINE",
"603 590 LINE",
"493 700 LINE",
"175 700 LINE",
"65 590 LINE",
"65 110 LINE",
"175 0 LINE"
);
},
{
closed = 1;
nodes = (
"141 134 LINE",
"141 566 LINE",
"209 632 LINE",
"459 632 LINE",
"527 566 LINE",
"527 134 LINE",
"459 68 LINE",
"209 68 LINE"
);
}
);
};
layerId = "39D11A97-A6D9-4B52-A6F5-15D5E4373676";
paths = (
{
closed = 1;
nodes = (
"496 0 LINE",
"606 110 LINE",
"606 590 LINE",
"496 700 LINE",
"180 700 LINE",
"70 590 LINE",
"70 110 LINE",
"180 0 LINE"
);
},
{
closed = 1;
nodes = (
"146 135 LINE",
"146 565 LINE",
"214 632 LINE",
"462 632 LINE",
"530 565 LINE",
"530 135 LINE",
"462 68 LINE",
"214 68 LINE"
);
}
);
width = 676;
},
{
anchors = (
{
name = bottom;
position = "{354, 0}";
},
{
name = center;
position = "{354, 350}";
},
{
name = ogonek;
position = "{629, 10}";
},
{
name = top;
position = "{354, 700}";
},
{
name = topleft;
position = "{30, 700}";
},
{
name = topright;
position = "{623, 518}";
}
);
background = {
paths = (
{
closed = 1;
nodes = (
"525 0 LINE",
"651 126 LINE",
"651 574 LINE",
"525 700 LINE",
"181 700 LINE",
"55 574 LINE",
"55 126 LINE",
"181 0 LINE"
);
},
{
closed = 1;
nodes = (
"191 171 LINE",
"191 529 LINE",
"245 582 LINE",
"461 582 LINE",
"515 529 LINE",
"515 171 LINE",
"461 118 LINE",
"245 118 LINE"
);
}
);
};
layerId = "D6105F7E-CAE1-4F7B-A52E-8AA6E6082DF8";
paths = (
{
closed = 1;
nodes = (
"525 0 LINE",
"651 126 LINE",
"651 574 LINE",
"525 700 LINE",
"181 700 LINE",
"55 574 LINE",
"55 126 LINE",
"181 0 LINE"
);
},
{
closed = 1;
nodes = (
"191 171 LINE",
"191 529 LINE",
"245 582 LINE",
"461 582 LINE",
"515 529 LINE",
"515 171 LINE",
"461 118 LINE",
"245 118 LINE"
);
}
);
width = 706;
}
);
leftKerningGroup = O;
note = O;
rightKerningGroup = O;
rightMetricsKey = "=|";
unicode = 004F;
},
{
glyphname = P;
lastChange = "2018-04-19 06:53:21 +0000";
layers = (
{
anchors = (
{
name = bottom;
position = "{311, 0}";
},
{
name = top;
position = "{311, 700}";
}
);
background = {
paths = (
{
closed = 1;
nodes = (
"151 0 LINE",
"151 290 LINE",
"474 290 LINE",
"567 383 LINE",
"567 608 LINE",
"475 700 LINE",
"75 700 LINE",
"75 0 LINE"
);
},
{
closed = 1;
nodes = (
"151 634 LINE",
"443 634 LINE",
"493 584 LINE",
"493 406 LINE",
"443 356 LINE",
"151 356 LINE"
);
}
);
};
layerId = "39D11A97-A6D9-4B52-A6F5-15D5E4373676";
paths = (
{
closed = 1;
nodes = (
"156 0 LINE",
"156 290 LINE",
"479 290 LINE",
"572 383 LINE",
"572 608 LINE",
"480 700 LINE",
"80 700 LINE",
"80 0 LINE"
);
},
{
closed = 1;
nodes = (
"156 634 LINE",
"448 634 LINE",
"498 585 LINE",
"498 405 LINE",
"448 356 LINE",
"156 356 LINE"
);
}
);
width = 622;
},
{
anchors = (
{
name = bottom;
position = "{326, 0}";
},
{
name = top;
position = "{326, 700}";
}
);
background = {
paths = (
{
closed = 1;
nodes = (
"201 -26 LINE",
"201 264 LINE",
"508 264 LINE",
"617 373 LINE",
"617 618 LINE",
"509 726 LINE",
"65 726 LINE",
"65 -26 LINE"
);
},
{
closed = 1;
nodes = (
"201 608 LINE",
"450 608 LINE",
"483 575 LINE",
"483 415 LINE",
"450 382 LINE",
"201 382 LINE"
);
}
);
};
layerId = "D6105F7E-CAE1-4F7B-A52E-8AA6E6082DF8";
paths = (
{
closed = 1;
nodes = (
"201 0 LINE",
"201 238 LINE",
"508 238 LINE",
"617 347 LINE",
"617 592 LINE",
"509 700 LINE",
"65 700 LINE",
"65 0 LINE"
);
},
{
closed = 1;
nodes = (
"201 584 LINE",
"447 584 LINE",
"483 549 LINE",
"483 389 LINE",
"447 354 LINE",
"201 354 LINE"
);
}
);
width = 652;
}
);
note = P;
unicode = 0050;
},
{
glyphname = Q;
lastChange = "2018-04-19 13:01:38 +0000";
layers = (
{
anchors = (
{
name = bottom;
position = "{344, 0}";
},
{
name = top;
position = "{344, 700}";
}
);
background = {
paths = (
{
closed = 1;
nodes = (
"579 -104 LINE",
"623 -60 LINE",
"510 52 LINE",
"475 0 LINE"
);
}
);
};
components = (
{
locked = 1;
name = O;
}
);
layerId = "39D11A97-A6D9-4B52-A6F5-15D5E4373676";
paths = (
{
closed = 1;
nodes = (
"582 -104 LINE",
"628 -58 LINE",
"515 54 LINE",
"478 0 LINE"
);
}
);
width = 676;
},
{
anchors = (
{
name = bottom;
position = "{344, 0}";
},
{
name = top;
position = "{344, 700}";
}
);
background = {
paths = (
{
closed = 1;
nodes = (
"579 -104 LINE",
"623 -60 LINE",
"510 52 LINE",
"475 0 LINE"
);
}
);
};
components = (
{
locked = 1;
name = O;
}
);
layerId = "D6105F7E-CAE1-4F7B-A52E-8AA6E6082DF8";
paths = (
{
closed = 1;
nodes = (
"668 -55 LINE",
"510 101 LINE",
"441 0 LINE",
"582 -141 LINE"
);
}
);
width = 676;
}
);
leftKerningGroup = O;
leftMetricsKey = O;
note = Q;
rightKerningGroup = O;
unicode = 0051;
},
{
glyphname = R;
lastChange = "2018-05-01 15:15:57 +0000";
layers = (
{
anchors = (
{
name = bottom;
position = "{328, 0}";
},
{
name = top;
position = "{314, 700}";
}
);
background = {
paths = (
{
closed = 1;
nodes = (
"500 190 LINE",
"500 0 LINE",
"576 0 LINE",
"576 214 LINE",
"450 350 LINE",
"386 314 LINE"
);
},
{
closed = 1;
nodes = (
"156 0 LINE",
"156 294 LINE",
"479 294 LINE",
"572 387 LINE",
"572 608 LINE",
"480 700 LINE",
"80 700 LINE",
"80 0 LINE"
);
},
{
closed = 1;
nodes = (
"156 634 LINE",
"448 634 LINE",
"498 585 LINE",
"498 409 LINE",
"448 360 LINE",
"156 360 LINE"
);
}
);
};
layerId = "39D11A97-A6D9-4B52-A6F5-15D5E4373676";
paths = (
{
closed = 1;
nodes = (
"500 190 LINE",
"500 0 LINE",
"576 0 LINE",
"576 214 LINE",
"450 350 LINE",
"386 314 LINE"
);
},
{
closed = 1;
nodes = (
"156 0 LINE",
"156 294 LINE",
"479 294 LINE",
"572 387 LINE",
"572 608 LINE",
"480 700 LINE",
"80 700 LINE",
"80 0 LINE"
);
},
{
closed = 1;
nodes = (
"156 634 LINE",
"448 634 LINE",
"498 585 LINE",
"498 409 LINE",
"448 360 LINE",
"156 360 LINE"
);
}
);
width = 651;
},
{
anchors = (
{
name = bottom;
position = "{328, 0}";
},
{
name = top;
position = "{314, 700}";
}
);
background = {
paths = (
{
closed = 1;
nodes = (
"470 181 LINE",
"470 -26 LINE",
"606 -26 LINE",
"606 223 LINE",
"456 385 LINE",
"342 320 LINE"
);
},
{
closed = 1;
nodes = (
"186 -26 LINE",
"186 268 LINE",
"493 268 LINE",
"602 377 LINE",
"602 618 LINE",
"494 726 LINE",
"50 726 LINE",
"50 -26 LINE"
);
},
{
closed = 1;
nodes = (
"186 608 LINE",
"435 608 LINE",
"468 575 LINE",
"468 419 LINE",
"435 386 LINE",
"186 386 LINE"
);
}
);
};
layerId = "D6105F7E-CAE1-4F7B-A52E-8AA6E6082DF8";
paths = (
{
closed = 1;
nodes = (
"485 201 LINE",
"485 0 LINE",
"621 0 LINE",
"621 232 LINE",
"480 385 LINE",
"377 320 LINE"
);
},
{
closed = 1;
nodes = (
"201 0 LINE",
"201 268 LINE",
"505 268 LINE",
"617 380 LINE",
"617 592 LINE",
"509 700 LINE",
"65 700 LINE",
"65 0 LINE"
);
},
{
closed = 1;
nodes = (
"201 584 LINE",
"447 584 LINE",
"483 549 LINE",
"483 417 LINE",
"447 382 LINE",
"201 382 LINE"
);
}
);
width = 681;
}
);
note = R;
rightKerningGroup = R;
unicode = 0052;
},
{
glyphname = S;
lastChange = "2018-04-19 11:07:23 +0000";
layers = (
{
anchors = (
{
name = bottom;
position = "{314, 0}";
},
{
name = top;
position = "{305, 700}";
}
);
background = {
paths = (
{
closed = 1;
nodes = (
"181 393 LINE",
"133 441 LINE",
"133 582 LINE",
"183 632 LINE",
"419 632 LINE",
"469 582 LINE",
"469 543 LINE",
"543 543 LINE",
"543 608 LINE",
"451 700 LINE",
"151 700 LINE",
"59 608 LINE",
"59 417 LINE",
"151 325 LINE",
"429 325 LINE",
"477 277 LINE",
"477 118 LINE",
"427 68 LINE",
"184 68 LINE",
"136 116 LINE",
"136 156 LINE",
"60 156 LINE",
"60 92 LINE",
"152 0 LINE",
"457 0 LINE",
"551 94 LINE",
"551 301 LINE",
"459 393 LINE"
);
}
);
};
layerId = "39D11A97-A6D9-4B52-A6F5-15D5E4373676";
paths = (
{
closed = 1;
nodes = (
"459 0 LINE",
"553 94 LINE",
"553 301 LINE",
"461 393 LINE",
"191 393 LINE",
"141 442 LINE",
"141 583 LINE",
"191 632 LINE",
"421 632 LINE",
"471 583 LINE",
"471 543 LINE",
"545 543 LINE",
"545 608 LINE",
"453 700 LINE",
"159 700 LINE",
"67 608 LINE",
"67 417 LINE",
"159 325 LINE",
"429 325 LINE",
"479 276 LINE",
"479 119 LINE",
"429 68 LINE",
"189 68 LINE",
"141 117 LINE",
"141 156 LINE",
"65 156 LINE",
"65 92 LINE",
"157 0 LINE"
);
}
);
width = 613;
},
{
anchors = (
{
name = bottom;
position = "{329, 0}";
},
{
name = top;
position = "{320, 700}";
}
);
background = {
paths = (
{
closed = 1;
nodes = (
"488 0 LINE",
"598 110 LINE",
"598 311 LINE",
"490 419 LINE",
"219 419 LINE",
"186 452 LINE",
"186 547 LINE",
"219 580 LINE",
"423 580 LINE",
"456 547 LINE",
"456 491 LINE",
"590 491 LINE",
"590 592 LINE",
"482 700 LINE",
"160 700 LINE",
"52 592 LINE",
"52 407 LINE",
"160 299 LINE",
"431 299 LINE",
"464 266 LINE",
"464 154 LINE",
"430 120 LINE",
"218 120 LINE",
"186 152 LINE",
"186 208 LINE",
"50 208 LINE",
"50 108 LINE",
"158 0 LINE"
);
}
);
};
layerId = "D6105F7E-CAE1-4F7B-A52E-8AA6E6082DF8";
paths = (
{
closed = 1;
nodes = (
"488 0 LINE",
"598 110 LINE",
"598 309 LINE",
"490 417 LINE",
"219 417 LINE",
"186 450 LINE",
"186 549 LINE",
"220 582 LINE",
"422 582 LINE",
"456 549 LINE",
"456 491 LINE",
"590 491 LINE",
"590 592 LINE",
"482 700 LINE",
"160 700 LINE",
"52 592 LINE",
"52 407 LINE",
"160 299 LINE",
"431 299 LINE",
"464 266 LINE",
"464 152 LINE",
"429 118 LINE",
"218 118 LINE",
"184 151 LINE",
"184 208 LINE",
"50 208 LINE",
"50 108 LINE",
"158 0 LINE"
);
}
);
width = 643;
}
);
leftKerningGroup = S;
note = S;
rightKerningGroup = S;
unicode = 0053;
},
{
glyphname = T;
lastChange = "2018-04-19 06:55:06 +0000";
layers = (
{
anchors = (
{
name = bottom;
position = "{280, 0}";
},
{
name = center;
position = "{280, 350}";
},
{
name = top;
position = "{280, 700}";
}
);
background = {
paths = (
{
closed = 1;
nodes = (
"25 700 LINE",
"25 634 LINE",
"238 634 LINE",
"238 0 LINE",
"312 0 LINE",
"312 634 LINE",
"525 634 LINE",
"525 700 LINE"
);
}
);
};
layerId = "39D11A97-A6D9-4B52-A6F5-15D5E4373676";
paths = (
{
closed = 1;
nodes = (
"318 0 LINE",
"318 632 LINE",
"530 632 LINE",
"530 700 LINE",
"30 700 LINE",
"30 632 LINE",
"242 632 LINE",
"242 0 LINE"
);
}
);
width = 560;
},
{
anchors = (
{
name = bottom;
position = "{280, 0}";
},
{
name = center;
position = "{280, 350}";
},
{
name = top;
position = "{280, 700}";
}
);
background = {
paths = (
{
closed = 1;
nodes = (
"348 -26 LINE",
"348 606 LINE",
"560 606 LINE",
"560 726 LINE",
"0 726 LINE",
"0 606 LINE",
"212 606 LINE",
"212 -26 LINE"
);
}
);
};
layerId = "D6105F7E-CAE1-4F7B-A52E-8AA6E6082DF8";
paths = (
{
closed = 1;
nodes = (
"363 0 LINE",
"363 582 LINE",
"575 582 LINE",
"575 700 LINE",
"15 700 LINE",
"15 582 LINE",
"227 582 LINE",
"227 0 LINE"
);
}
);
width = 590;
}
);
leftKerningGroup = T;
note = T;
rightKerningGroup = T;
rightMetricsKey = "=|";
unicode = 0054;
},
{
glyphname = U;
lastChange = "2018-04-19 11:07:39 +0000";
layers = (
{
anchors = (
{
name = bottom;
position = "{340, 0}";
},
{
name = ogonek;
position = "{486, 0}";
},
{
name = top;
position = "{338, 700}";
},
{
name = topright;
position = "{628, 518}";
}
);
background = {
paths = (
{
closed = 1;
nodes = (
"479 0 LINE",
"589 110 LINE",
"589 700 LINE",
"513 700 LINE",
"513 134 LINE",
"445 68 LINE",
"219 68 LINE",
"151 134 LINE",
"151 700 LINE",
"75 700 LINE",
"75 110 LINE",
"185 0 LINE"
);
}
);
};
layerId = "39D11A97-A6D9-4B52-A6F5-15D5E4373676";
paths = (
{
closed = 1;
nodes = (
"486 0 LINE",
"596 110 LINE",
"596 700 LINE",
"520 700 LINE",
"520 135 LINE",
"452 68 LINE",
"224 68 LINE",
"156 135 LINE",
"156 700 LINE",
"80 700 LINE",
"80 110 LINE",
"190 0 LINE"
);
}
);
width = 676;
},
{
anchors = (
{
name = bottom;
position = "{355, 0}";
},
{
name = ogonek;
position = "{501, 0}";
},
{
name = top;
position = "{353, 700}";
},
{
name = topright;
position = "{643, 518}";
}
);
background = {
paths = (
{
closed = 1;
nodes = (
"515 0 LINE",
"641 126 LINE",
"641 700 LINE",
"505 700 LINE",
"505 171 LINE",
"454 120 LINE",
"252 120 LINE",
"201 171 LINE",
"201 700 LINE",
"65 700 LINE",
"65 126 LINE",
"191 0 LINE"
);
}
);
};
layerId = "D6105F7E-CAE1-4F7B-A52E-8AA6E6082DF8";
paths = (
{
closed = 1;
nodes = (
"515 0 LINE",
"641 126 LINE",
"641 700 LINE",
"505 700 LINE",
"505 171 LINE",
"451 118 LINE",
"255 118 LINE",
"201 171 LINE",
"201 700 LINE",
"65 700 LINE",
"65 126 LINE",
"191 0 LINE"
);
}
);
width = 706;
}
);
leftKerningGroup = U;
note = U;
rightKerningGroup = U;
rightMetricsKey = "=|";
unicode = 0055;
},
{
glyphname = V;
lastChange = "2018-04-19 11:07:51 +0000";
layers = (
{
anchors = (
{
name = bottom;
position = "{313, 0}";
},
{
name = top;
position = "{313, 700}";
}
);
background = {
paths = (
{
closed = 1;
nodes = (
"354 0 LINE",
"601 700 LINE",
"522 700 LINE",
"314 91 LINE",
"312 91 LINE",
"104 700 LINE",
"25 700 LINE",
"272 0 LINE"
);
}
);
};
layerId = "39D11A97-A6D9-4B52-A6F5-15D5E4373676";
paths = (
{
closed = 1;
nodes = (
"354 0 LINE",
"601 700 LINE",
"522 700 LINE",
"314 91 LINE",
"312 91 LINE",
"104 700 LINE",
"25 700 LINE",
"272 0 LINE"
);
}
);
width = 626;
},
{
anchors = (
{
name = bottom;
position = "{339, 0}";
},
{
name = top;
position = "{339, 700}";
}
);
background = {
paths = (
{
closed = 1;
nodes = (
"402 0 LINE",
"668 700 LINE",
"526 700 LINE",
"318 143 LINE",
"360 143 LINE",
"152 700 LINE",
"10 700 LINE",
"276 0 LINE"
);
}
);
};
layerId = "D6105F7E-CAE1-4F7B-A52E-8AA6E6082DF8";
paths = (
{
closed = 1;
nodes = (
"401 0 LINE",
"668 700 LINE",
"526 700 LINE",
"340 173 LINE",
"338 173 LINE",
"152 700 LINE",
"10 700 LINE",
"277 0 LINE"
);
}
);
width = 678;
}
);
note = V;
rightMetricsKey = "=|";
unicode = 0056;
},
{
glyphname = W;
lastChange = "2018-04-19 11:08:25 +0000";
layers = (
{
anchors = (
{
name = bottom;
position = "{432, 0}";
},
{
name = top;
position = "{432, 700}";
}
);
background = {
paths = (
{
closed = 1;
nodes = (
"636 96 LINE",
"634 96 LINE",
"466 640 LINE",
"398 640 LINE",
"231 106 LINE",
"229 106 LINE",
"117 700 LINE",
"40 700 LINE",
"181 0 LINE",
"263 0 LINE",
"431 537 LINE",
"433 537 LINE",
"600 0 LINE",
"682 0 LINE",
"823 700 LINE",
"746 700 LINE"
);
}
);
};
layerId = "39D11A97-A6D9-4B52-A6F5-15D5E4373676";
paths = (
{
closed = 1;
nodes = (
"636 96 LINE",
"634 96 LINE",
"466 640 LINE",
"398 640 LINE",
"231 106 LINE",
"229 106 LINE",
"117 700 LINE",
"40 700 LINE",
"181 0 LINE",
"263 0 LINE",
"431 537 LINE",
"433 537 LINE",
"600 0 LINE",
"682 0 LINE",
"823 700 LINE",
"746 700 LINE"
);
}
);
width = 863;
},
{
anchors = (
{
name = bottom;
position = "{453, 0}";
},
{
name = top;
position = "{453, 700}";
}
);
background = {
paths = (
{
closed = 1;
nodes = (
"631 122 LINE",
"678 122 LINE",
"510 666 LINE",
"396 666 LINE",
"229 132 LINE",
"275 132 LINE",
"163 726 LINE",
"25 726 LINE",
"177 -26 LINE",
"307 -26 LINE",
"475 511 LINE",
"431 511 LINE",
"598 -26 LINE",
"728 -26 LINE",
"880 726 LINE",
"741 726 LINE"
);
}
);
};
layerId = "D6105F7E-CAE1-4F7B-A52E-8AA6E6082DF8";
paths = (
{
closed = 1;
nodes = (
"648 206 LINE",
"646 206 LINE",
"507 640 LINE",
"399 640 LINE",
"259 206 LINE",
"257 206 LINE",
"163 700 LINE",
"25 700 LINE",
"181 0 LINE",
"305 0 LINE",
"452 447 LINE",
"454 447 LINE",
"600 0 LINE",
"724 0 LINE",
"880 700 LINE",
"742 700 LINE"
);
}
);
width = 905;
}
);
leftKerningGroup = W;
note = W;
rightKerningGroup = W;
rightMetricsKey = "=|";
unicode = 0057;
},
{
glyphname = X;
lastChange = "2018-04-19 11:09:31 +0000";
layers = (
{
anchors = (
{
name = bottom;
position = "{302, 0}";
},
{
name = top;
position = "{302, 700}";
}
);
background = {
paths = (
{
closed = 1;
nodes = (
"345 354 LINE",
"574 700 LINE",
"490 700 LINE",
"303 417 LINE",
"114 700 LINE",
"30 700 LINE",
"259 360 LINE",
"20 0 LINE",
"104 0 LINE",
"301 298 LINE",
"500 0 LINE",
"584 0 LINE"
);
}
);
};
layerId = "39D11A97-A6D9-4B52-A6F5-15D5E4373676";
paths = (
{
closed = 1;
nodes = (
"344 355 LINE",
"574 700 LINE",
"490 700 LINE",
"302 418 LINE",
"114 700 LINE",
"30 700 LINE",
"260 361 LINE",
"20 0 LINE",
"104 0 LINE",
"302 299 LINE",
"500 0 LINE",
"584 0 LINE"
);
}
);
width = 604;
},
{
anchors = (
{
name = bottom;
position = "{339, 0}";
},
{
name = top;
position = "{339, 700}";
}
);
background = {
paths = (
{
closed = 1;
nodes = (
"416 355 LINE",
"663 726 LINE",
"510 726 LINE",
"339 470 LINE",
"168 726 LINE",
"15 726 LINE",
"262 361 LINE",
"5 -26 LINE",
"158 -26 LINE",
"339 247 LINE",
"520 -26 LINE",
"673 -26 LINE"
);
}
);
};
layerId = "D6105F7E-CAE1-4F7B-A52E-8AA6E6082DF8";
paths = (
{
closed = 1;
nodes = (
"416 355 LINE",
"663 700 LINE",
"510 700 LINE",
"339 470 LINE",
"168 700 LINE",
"15 700 LINE",
"262 361 LINE",
"5 0 LINE",
"158 0 LINE",
"339 247 LINE",
"520 0 LINE",
"673 0 LINE"
);
}
);
width = 678;
}
);
note = X;
rightMetricsKey = "=|";
unicode = 0058;
},
{
glyphname = Y;
lastChange = "2018-04-19 11:09:57 +0000";
layers = (
{
anchors = (
{
name = bottom;
position = "{296, 0}";
},
{
name = top;
position = "{296, 700}";
},
{
name = topleft;
position = "{1, 700}";
}
);
background = {
paths = (
{
closed = 1;
nodes = (
"334 0 LINE",
"334 292 LINE",
"576 700 LINE",
"494 700 LINE",
"297 361 LINE",
"295 361 LINE",
"98 700 LINE",
"16 700 LINE",
"258 292 LINE",
"258 0 LINE"
);
}
);
};
layerId = "39D11A97-A6D9-4B52-A6F5-15D5E4373676";
paths = (
{
closed = 1;
nodes = (
"334 0 LINE",
"334 292 LINE",
"577 700 LINE",
"495 700 LINE",
"297 361 LINE",
"295 361 LINE",
"97 700 LINE",
"15 700 LINE",
"258 292 LINE",
"258 0 LINE"
);
}
);
width = 592;
},
{
anchors = (
{
name = bottom;
position = "{330, 0}";
},
{
name = top;
position = "{330, 700}";
},
{
name = topleft;
position = "{35, 700}";
}
);
background = {
paths = (
{
closed = 1;
nodes = (
"368 0 LINE",
"368 292 LINE",
"610 700 LINE",
"528 700 LINE",
"331 361 LINE",
"329 361 LINE",
"132 700 LINE",
"50 700 LINE",
"292 292 LINE",
"292 0 LINE"
);
}
);
};
layerId = "D6105F7E-CAE1-4F7B-A52E-8AA6E6082DF8";
paths = (
{
closed = 1;
nodes = (
"398 0 LINE",
"398 286 LINE",
"660 700 LINE",
"511 700 LINE",
"313 387 LINE",
"347 387 LINE",
"149 700 LINE",
"0 700 LINE",
"262 286 LINE",
"262 0 LINE"
);
}
);
width = 660;
}
);
leftKerningGroup = Y;
note = Y;
rightKerningGroup = Y;
rightMetricsKey = "=|";
unicode = 0059;
},
{
glyphname = Z;
lastChange = "2018-04-19 11:26:26 +0000";
layers = (
{
anchors = (
{
name = bottom;
position = "{285, 0}";
},
{
name = top;
position = "{289, 700}";
}
);
background = {
paths = (
{
closed = 1;
nodes = (
"60 634 LINE",
"442 634 LINE",
"442 582 LINE",
"50 136 LINE",
"50 0 LINE",
"518 0 LINE",
"518 66 LINE",
"126 66 LINE",
"126 118 LINE",
"518 564 LINE",
"518 700 LINE",
"60 700 LINE"
);
}
);
};
layerId = "39D11A97-A6D9-4B52-A6F5-15D5E4373676";
paths = (
{
closed = 1;
nodes = (
"60 635 LINE",
"437 635 LINE",
"437 633 LINE",
"50 75 LINE",
"50 0 LINE",
"518 0 LINE",
"518 65 LINE",
"131 65 LINE",
"131 67 LINE",
"518 625 LINE",
"518 700 LINE",
"60 700 LINE"
);
}
);
width = 568;
},
{
anchors = (
{
name = bottom;
position = "{300, 0}";
},
{
name = top;
position = "{304, 700}";
}
);
background = {
paths = (
{
closed = 1;
nodes = (
"45 585 LINE",
"422 585 LINE",
"422 614 LINE",
"35 108 LINE",
"35 0 LINE",
"563 0 LINE",
"563 115 LINE",
"176 115 LINE",
"176 86 LINE",
"563 592 LINE",
"563 700 LINE",
"45 700 LINE"
);
}
);
};
layerId = "D6105F7E-CAE1-4F7B-A52E-8AA6E6082DF8";
paths = (
{
closed = 1;
nodes = (
"45 586 LINE",
"400 586 LINE",
"400 584 LINE",
"35 108 LINE",
"35 0 LINE",
"563 0 LINE",
"563 114 LINE",
"198 114 LINE",
"198 116 LINE",
"563 592 LINE",
"563 700 LINE",
"45 700 LINE"
);
}
);
width = 598;
}
);
leftKerningGroup = Z;
note = Z;
rightKerningGroup = Z;
unicode = 005A;
},
{
glyphname = a;
lastChange = "2018-04-19 13:57:26 +0000";
layers = (
{
anchors = (
{
name = bottom;
position = "{276, 0}";
},
{
name = ogonek;
position = "{487, 0}";
},
{
name = top;
position = "{276, 498}";
}
);
background = {
paths = (
{
closed = 1;
nodes = (
"317 0 LINE",
"409 88 LINE",
"409 0 LINE",
"481 0 LINE",
"481 406 LINE",
"389 498 LINE",
"156 498 LINE",
"64 406 LINE",
"64 344 LINE",
"138 344 LINE",
"138 385 LINE",
"188 434 LINE",
"357 434 LINE",
"407 385 LINE",
"407 290 LINE",
"142 290 LINE",
"60 209 LINE",
"60 82 LINE",
"142 0 LINE"
);
},
{
closed = 1;
nodes = (
"134 103 LINE",
"134 187 LINE",
"174 226 LINE",
"407 226 LINE",
"407 165 LINE",
"302 64 LINE",
"174 64 LINE"
);
}
);
};
layerId = "39D11A97-A6D9-4B52-A6F5-15D5E4373676";
paths = (
{
closed = 1;
nodes = (
"318 0 LINE",
"410 88 LINE",
"410 0 LINE",
"481 0 LINE",
"481 406 LINE",
"389 498 LINE",
"156 498 LINE",
"64 406 LINE",
"64 344 LINE",
"138 344 LINE",
"138 385 LINE",
"188 434 LINE",
"358 434 LINE",
"408 385 LINE",
"408 290 LINE",
"142 290 LINE",
"60 209 LINE",
"60 82 LINE",
"142 0 LINE"
);
},
{
closed = 1;
nodes = (
"134 103 LINE",
"134 187 LINE",
"174 226 LINE",
"408 226 LINE",
"408 165 LINE",
"303 64 LINE",
"174 64 LINE"
);
}
);
width = 551;
},
{
anchors = (
{
name = bottom;
position = "{291, 0}";
},
{
name = ogonek;
position = "{502, 0}";
},
{
name = top;
position = "{291, 498}";
}
);
background = {
paths = (
{
closed = 1;
nodes = (
"331 0 LINE",
"407 71 LINE",
"407 0 LINE",
"526 0 LINE",
"526 390 LINE",
"418 498 LINE",
"157 498 LINE",
"49 390 LINE",
"49 331 LINE",
"181 331 LINE",
"181 361 LINE",
"214 394 LINE",
"362 394 LINE",
"396 361 LINE",
"396 299 LINE",
"144 299 LINE",
"45 202 LINE",
"45 98 LINE",
"143 0 LINE"
);
},
{
closed = 1;
nodes = (
"177 131 LINE",
"177 176 LINE",
"204 203 LINE",
"396 203 LINE",
"396 177 LINE",
"318 104 LINE",
"204 104 LINE"
);
}
);
};
layerId = "D6105F7E-CAE1-4F7B-A52E-8AA6E6082DF8";
paths = (
{
closed = 1;
nodes = (
"331 0 LINE",
"407 71 LINE",
"407 0 LINE",
"526 0 LINE",
"526 390 LINE",
"418 498 LINE",
"157 498 LINE",
"49 390 LINE",
"49 331 LINE",
"181 331 LINE",
"181 359 LINE",
"212 390 LINE",
"364 390 LINE",
"396 359 LINE",
"396 299 LINE",
"144 299 LINE",
"45 202 LINE",
"45 98 LINE",
"143 0 LINE"
);
},
{
closed = 1;
nodes = (
"177 131 LINE",
"177 176 LINE",
"204 203 LINE",
"396 203 LINE",
"396 177 LINE",
"318 104 LINE",
"204 104 LINE"
);
}
);
width = 581;
}
);
leftKerningGroup = a;
note = a;
rightKerningGroup = n;
rightMetricsKey = n;
unicode = 0061;
},
{
glyphname = b;
lastChange = "2018-04-19 13:31:36 +0000";
layers = (
{
anchors = (
{
name = bottom;
position = "{289, 0}";
},
{
name = top;
position = "{289, 498}";
}
);
background = {
paths = (
{
closed = 1;
nodes = (
"416 0 LINE",
"508 92 LINE",
"508 406 LINE",
"416 498 LINE",
"241 498 LINE",
"144 401 LINE",
"144 710 LINE",
"70 710 LINE",
"70 92 LINE",
"162 0 LINE"
);
},
{
closed = 1;
nodes = (
"144 116 LINE",
"144 314 LINE",
"262 432 LINE",
"384 432 LINE",
"434 382 LINE",
"434 116 LINE",
"384 66 LINE",
"194 66 LINE"
);
}
);
};
layerId = "39D11A97-A6D9-4B52-A6F5-15D5E4373676";
paths = (
{
closed = 1;
nodes = (
"421 0 LINE",
"513 92 LINE",
"513 406 LINE",
"421 498 LINE",
"246 498 LINE",
"149 401 LINE",
"149 714 LINE",
"75 714 LINE",
"75 92 LINE",
"167 0 LINE"
);
},
{
closed = 1;
nodes = (
"149 115 LINE",
"149 314 LINE",
"267 432 LINE",
"389 432 LINE",
"439 383 LINE",
"439 115 LINE",
"389 66 LINE",
"199 66 LINE"
);
}
);
width = 578;
},
{
anchors = (
{
name = bottom;
position = "{304, 0}";
},
{
name = top;
position = "{304, 498}";
}
);
background = {
paths = (
{
closed = 1;
nodes = (
"450 0 LINE",
"558 108 LINE",
"558 390 LINE",
"450 498 LINE",
"255 498 LINE",
"192 435 LINE",
"192 714 LINE",
"60 714 LINE",
"60 108 LINE",
"168 0 LINE"
);
},
{
closed = 1;
nodes = (
"192 147 LINE",
"192 292 LINE",
"284 384 LINE",
"393 384 LINE",
"426 351 LINE",
"426 147 LINE",
"393 114 LINE",
"225 114 LINE"
);
}
);
};
layerId = "D6105F7E-CAE1-4F7B-A52E-8AA6E6082DF8";
paths = (
{
closed = 1;
nodes = (
"450 0 LINE",
"558 108 LINE",
"558 390 LINE",
"450 498 LINE",
"255 498 LINE",
"192 435 LINE",
"192 714 LINE",
"60 714 LINE",
"60 108 LINE",
"168 0 LINE"
);
},
{
closed = 1;
nodes = (
"192 149 LINE",
"192 292 LINE",
"284 384 LINE",
"391 384 LINE",
"426 349 LINE",
"426 149 LINE",
"391 114 LINE",
"227 114 LINE"
);
}
);
width = 608;
}
);
leftMetricsKey = n;
note = b;
rightKerningGroup = o;
rightMetricsKey = o;
unicode = 0062;
},
{
glyphname = c;
lastChange = "2018-04-19 13:17:18 +0000";
layers = (
{
anchors = (
{
name = bottom;
position = "{282, 0}";
},
{
name = top;
position = "{277, 498}";
}
);
background = {
paths = (
{
closed = 1;
nodes = (
"392 0 LINE",
"484 92 LINE",
"484 153 LINE",
"410 153 LINE",
"410 116 LINE",
"360 66 LINE",
"184 66 LINE",
"134 116 LINE",
"134 382 LINE",
"184 432 LINE",
"360 432 LINE",
"410 382 LINE",
"410 345 LINE",
"484 345 LINE",
"484 406 LINE",
"392 498 LINE",
"152 498 LINE",
"60 406 LINE",
"60 92 LINE",
"152 0 LINE"
);
}
);
};
layerId = "39D11A97-A6D9-4B52-A6F5-15D5E4373676";
paths = (
{
closed = 1;
nodes = (
"397 0 LINE",
"489 92 LINE",
"489 153 LINE",
"415 153 LINE",
"415 115 LINE",
"365 66 LINE",
"189 66 LINE",
"139 115 LINE",
"139 383 LINE",
"189 432 LINE",
"365 432 LINE",
"415 383 LINE",
"415 345 LINE",
"489 345 LINE",
"489 406 LINE",
"397 498 LINE",
"157 498 LINE",
"65 406 LINE",
"65 92 LINE",
"157 0 LINE"
);
}
);
width = 534;
},
{
anchors = (
{
name = bottom;
position = "{297, 0}";
},
{
name = top;
position = "{292, 498}";
}
);
background = {
paths = (
{
closed = 1;
nodes = (
"426 0 LINE",
"534 108 LINE",
"534 201 LINE",
"402 201 LINE",
"402 147 LINE",
"369 114 LINE",
"215 114 LINE",
"182 147 LINE",
"182 351 LINE",
"215 384 LINE",
"369 384 LINE",
"402 351 LINE",
"402 297 LINE",
"534 297 LINE",
"534 390 LINE",
"426 498 LINE",
"158 498 LINE",
"50 390 LINE",
"50 108 LINE",
"158 0 LINE"
);
}
);
};
layerId = "D6105F7E-CAE1-4F7B-A52E-8AA6E6082DF8";
paths = (
{
closed = 1;
nodes = (
"426 0 LINE",
"534 108 LINE",
"534 201 LINE",
"402 201 LINE",
"402 149 LINE",
"367 114 LINE",
"217 114 LINE",
"182 149 LINE",
"182 349 LINE",
"217 384 LINE",
"367 384 LINE",
"402 349 LINE",
"402 297 LINE",
"534 297 LINE",
"534 390 LINE",
"426 498 LINE",
"158 498 LINE",
"50 390 LINE",
"50 108 LINE",
"158 0 LINE"
);
}
);
width = 564;
}
);
leftKerningGroup = o;
leftMetricsKey = o;
note = c;
rightKerningGroup = c;
unicode = 0063;
},
{
glyphname = d;
lastChange = "2018-04-19 13:36:23 +0000";
layers = (
{
anchors = (
{
name = bottom;
position = "{290, 0}";
},
{
name = center;
position = "{290, 249}";
},
{
name = top;
position = "{290, 498}";
},
{
name = topright;
position = "{560, 498}";
}
);
background = {
paths = (
{
closed = 1;
nodes = (
"409 -208 LINE",
"500 -117 LINE",
"500 498 LINE",
"428 498 LINE",
"428 411 LINE",
"341 498 LINE",
"152 498 LINE",
"60 406 LINE",
"60 92 LINE",
"152 0 LINE",
"334 0 LINE",
"426 83 LINE",
"426 -92 LINE",
"376 -142 LINE",
"144 -142 LINE",
"144 -208 LINE"
);
},
{
closed = 1;
nodes = (
"134 115 LINE",
"134 383 LINE",
"184 432 LINE",
"321 432 LINE",
"426 327 LINE",
"426 163 LINE",
"322 66 LINE",
"184 66 LINE"
);
}
);
};
layerId = "39D11A97-A6D9-4B52-A6F5-15D5E4373676";
paths = (
{
closed = 1;
nodes = (
"433 0 LINE",
"505 0 LINE",
"505 714 LINE",
"431 714 LINE",
"431 426 LINE",
"349 498 LINE",
"157 498 LINE",
"65 406 LINE",
"65 92 LINE",
"157 0 LINE",
"342 0 LINE",
"433 91 LINE"
);
},
{
closed = 1;
nodes = (
"326 66 LINE",
"189 66 LINE",
"139 115 LINE",
"139 383 LINE",
"189 432 LINE",
"335 432 LINE",
"431 348 LINE",
"431 171 LINE"
);
}
);
width = 580;
},
{
anchors = (
{
name = bottom;
position = "{305, 0}";
},
{
name = center;
position = "{305, 249}";
},
{
name = top;
position = "{305, 498}";
},
{
name = topright;
position = "{575, 498}";
}
);
background = {
anchors = (
{
name = bottom;
position = "{305, 0}";
},
{
name = center;
position = "{305, 249}";
},
{
name = top;
position = "{305, 498}";
},
{
name = topright;
position = "{575, 498}";
}
);
paths = (
{
closed = 1;
nodes = (
"426 0 LINE",
"550 0 LINE",
"550 714 LINE",
"418 714 LINE",
"418 451 LINE",
"366 498 LINE",
"158 498 LINE",
"50 390 LINE",
"50 108 LINE",
"158 0 LINE",
"361 0 LINE",
"426 65 LINE"
);
},
{
closed = 1;
nodes = (
"337 114 LINE",
"215 114 LINE",
"182 147 LINE",
"182 351 LINE",
"215 384 LINE",
"348 384 LINE",
"418 323 LINE",
"418 193 LINE"
);
}
);
};
layerId = "D6105F7E-CAE1-4F7B-A52E-8AA6E6082DF8";
paths = (
{
closed = 1;
nodes = (
"426 0 LINE",
"550 0 LINE",
"550 714 LINE",
"418 714 LINE",
"418 451 LINE",
"366 498 LINE",
"158 498 LINE",
"50 390 LINE",
"50 108 LINE",
"158 0 LINE",
"353 0 LINE",
"426 71 LINE"
);
},
{
closed = 1;
nodes = (
"335 114 LINE",
"217 114 LINE",
"182 149 LINE",
"182 349 LINE",
"217 384 LINE",
"348 384 LINE",
"418 323 LINE",
"418 197 LINE"
);
}
);
width = 610;
}
);
leftKerningGroup = o;
leftMetricsKey = o;
note = d;
rightMetricsKey = u;
unicode = 0064;
},
{
glyphname = e;
lastChange = "2018-04-19 13:55:37 +0000";
layers = (
{
anchors = (
{
name = bottom;
position = "{283, 0}";
},
{
name = ogonek;
position = "{408, 0}";
},
{
name = top;
position = "{283, 498}";
}
);
background = {
paths = (
{
closed = 1;
nodes = (
"403 0 LINE",
"495 92 LINE",
"495 154 LINE",
"421 154 LINE",
"421 116 LINE",
"371 66 LINE",
"184 66 LINE",
"134 116 LINE",
"134 227 LINE",
"495 227 LINE",
"495 406 LINE",
"403 498 LINE",
"152 498 LINE",
"60 406 LINE",
"60 92 LINE",
"152 0 LINE"
);
},
{
closed = 1;
nodes = (
"134 382 LINE",
"184 432 LINE",
"371 432 LINE",
"421 382 LINE",
"421 291 LINE",
"134 291 LINE"
);
}
);
};
layerId = "39D11A97-A6D9-4B52-A6F5-15D5E4373676";
paths = (
{
closed = 1;
nodes = (
"408 0 LINE",
"500 92 LINE",
"500 154 LINE",
"426 154 LINE",
"426 115 LINE",
"376 66 LINE",
"189 66 LINE",
"139 115 LINE",
"139 227 LINE",
"501 227 LINE",
"501 406 LINE",
"408 498 LINE",
"157 498 LINE",
"65 406 LINE",
"65 92 LINE",
"157 0 LINE"
);
},
{
closed = 1;
nodes = (
"139 383 LINE",
"189 432 LINE",
"377 432 LINE",
"427 383 LINE",
"427 291 LINE",
"139 291 LINE"
);
}
);
width = 561;
},
{
anchors = (
{
name = bottom;
position = "{298, 0}";
},
{
name = ogonek;
position = "{423, 0}";
},
{
name = top;
position = "{298, 498}";
}
);
background = {
paths = (
{
closed = 1;
nodes = (
"439 0 LINE",
"545 106 LINE",
"545 173 LINE",
"413 173 LINE",
"413 143 LINE",
"382 112 LINE",
"215 112 LINE",
"182 145 LINE",
"182 204 LINE",
"546 204 LINE",
"546 390 LINE",
"437 498 LINE",
"158 498 LINE",
"50 390 LINE",
"50 108 LINE",
"158 0 LINE"
);
},
{
closed = 1;
nodes = (
"182 355 LINE",
"215 388 LINE",
"381 388 LINE",
"414 355 LINE",
"414 296 LINE",
"182 296 LINE"
);
}
);
};
layerId = "D6105F7E-CAE1-4F7B-A52E-8AA6E6082DF8";
paths = (
{
closed = 1;
nodes = (
"439 0 LINE",
"545 106 LINE",
"545 171 LINE",
"413 171 LINE",
"413 141 LINE",
"382 110 LINE",
"215 110 LINE",
"182 143 LINE",
"182 206 LINE",
"546 206 LINE",
"546 390 LINE",
"437 498 LINE",
"158 498 LINE",
"50 390 LINE",
"50 108 LINE",
"158 0 LINE"
);
},
{
closed = 1;
nodes = (
"182 357 LINE",
"215 390 LINE",
"381 390 LINE",
"414 357 LINE",
"414 298 LINE",
"182 298 LINE"
);
}
);
width = 591;
}
);
leftKerningGroup = o;
leftMetricsKey = o;
note = e;
rightKerningGroup = e;
unicode = 0065;
},
{
glyphname = f;
lastChange = "2018-04-19 13:35:30 +0000";
layers = (
{
anchors = (
{
name = bottom;
position = "{188, 0}";
},
{
name = top;
position = "{188, 498}";
}
);
background = {
paths = (
{
closed = 1;
nodes = (
"189 0 LINE",
"189 432 LINE",
"346 432 LINE",
"346 498 LINE",
"189 498 LINE",
"189 601 LINE",
"234 646 LINE",
"346 646 LINE",
"346 710 LINE",
"202 710 LINE",
"115 623 LINE",
"115 498 LINE",
"25 498 LINE",
"25 432 LINE",
"115 432 LINE",
"115 0 LINE"
);
}
);
};
layerId = "39D11A97-A6D9-4B52-A6F5-15D5E4373676";
paths = (
{
closed = 1;
nodes = (
"194 0 LINE",
"194 432 LINE",
"351 432 LINE",
"351 498 LINE",
"194 498 LINE",
"194 588 LINE",
"239 632 LINE",
"351 632 LINE",
"351 696 LINE",
"207 696 LINE",
"120 609 LINE",
"120 498 LINE",
"30 498 LINE",
"30 432 LINE",
"120 432 LINE",
"120 0 LINE"
);
}
);
width = 376;
},
{
anchors = (
{
name = bottom;
position = "{203, 0}";
},
{
name = top;
position = "{203, 498}";
}
);
background = {
paths = (
{
closed = 1;
nodes = (
"239 0 LINE",
"239 384 LINE",
"396 384 LINE",
"396 498 LINE",
"239 498 LINE",
"239 556 LINE",
"267 584 LINE",
"396 584 LINE",
"396 696 LINE",
"208 696 LINE",
"107 595 LINE",
"107 498 LINE",
"15 498 LINE",
"15 384 LINE",
"107 384 LINE",
"107 0 LINE"
);
}
);
};
layerId = "D6105F7E-CAE1-4F7B-A52E-8AA6E6082DF8";
paths = (
{
closed = 1;
nodes = (
"239 0 LINE",
"239 386 LINE",
"396 386 LINE",
"396 498 LINE",
"239 498 LINE",
"239 558 LINE",
"267 586 LINE",
"396 586 LINE",
"396 696 LINE",
"208 696 LINE",
"107 595 LINE",
"107 498 LINE",
"15 498 LINE",
"15 386 LINE",
"107 386 LINE",
"107 0 LINE"
);
}
);
width = 406;
}
);
leftKerningGroup = f;
note = f;
unicode = 0066;
},
{
glyphname = g;
lastChange = "2018-04-19 13:37:27 +0000";
layers = (
{
anchors = (
{
name = bottom;
position = "{288, 0}";
},
{
name = top;
position = "{288, 498}";
}
);
background = {
paths = (
{
closed = 1;
nodes = (
"409 -208 LINE",
"500 -117 LINE",
"500 498 LINE",
"428 498 LINE",
"428 411 LINE",
"341 498 LINE",
"152 498 LINE",
"60 406 LINE",
"60 92 LINE",
"152 0 LINE",
"334 0 LINE",
"426 83 LINE",
"426 -93 LINE",
"376 -142 LINE",
"144 -142 LINE",
"144 -208 LINE"
);
},
{
closed = 1;
nodes = (
"134 115 LINE",
"134 383 LINE",
"184 432 LINE",
"321 432 LINE",
"426 327 LINE",
"426 163 LINE",
"322 66 LINE",
"184 66 LINE"
);
}
);
};
layerId = "39D11A97-A6D9-4B52-A6F5-15D5E4373676";
paths = (
{
closed = 1;
nodes = (
"414 -218 LINE",
"505 -127 LINE",
"505 498 LINE",
"433 498 LINE",
"433 411 LINE",
"346 498 LINE",
"157 498 LINE",
"65 406 LINE",
"65 92 LINE",
"157 0 LINE",
"339 0 LINE",
"431 83 LINE",
"431 -103 LINE",
"381 -152 LINE",
"149 -152 LINE",
"149 -218 LINE"
);
},
{
closed = 1;
nodes = (
"139 115 LINE",
"139 383 LINE",
"189 432 LINE",
"326 432 LINE",
"431 327 LINE",
"431 163 LINE",
"327 66 LINE",
"189 66 LINE"
);
}
);
width = 580;
},
{
anchors = (
{
name = bottom;
position = "{303, 0}";
},
{
name = top;
position = "{303, 498}";
}
);
background = {
paths = (
{
closed = 1;
nodes = (
"441 -221 LINE",
"550 -114 LINE",
"550 498 LINE",
"426 498 LINE",
"426 435 LINE",
"363 498 LINE",
"158 498 LINE",
"50 390 LINE",
"50 108 LINE",
"158 0 LINE",
"357 0 LINE",
"418 55 LINE",
"418 -74 LINE",
"383 -109 LINE",
"134 -109 LINE",
"134 -221 LINE"
);
},
{
closed = 1;
nodes = (
"182 147 LINE",
"182 351 LINE",
"215 384 LINE",
"339 384 LINE",
"418 305 LINE",
"418 185 LINE",
"344 114 LINE",
"215 114 LINE"
);
}
);
};
layerId = "D6105F7E-CAE1-4F7B-A52E-8AA6E6082DF8";
paths = (
{
closed = 1;
nodes = (
"441 -221 LINE",
"550 -114 LINE",
"550 498 LINE",
"426 498 LINE",
"426 430 LINE",
"357 498 LINE",
"158 498 LINE",
"50 390 LINE",
"50 108 LINE",
"158 0 LINE",
"352 0 LINE",
"418 60 LINE",
"418 -74 LINE",
"383 -109 LINE",
"134 -109 LINE",
"134 -221 LINE"
);
},
{
closed = 1;
nodes = (
"182 149 LINE",
"182 349 LINE",
"217 384 LINE",
"339 384 LINE",
"418 305 LINE",
"418 185 LINE",
"344 114 LINE",
"217 114 LINE"
);
}
);
width = 610;
}
);
leftKerningGroup = o;
leftMetricsKey = o;
note = g;
rightKerningGroup = u;
rightMetricsKey = u;
unicode = 0067;
},
{
glyphname = h;
lastChange = "2018-04-19 13:18:35 +0000";
layers = (
{
anchors = (
{
name = bottom;
position = "{287, 0}";
},
{
name = center;
position = "{287, 249}";
},
{
name = top;
position = "{289, 700}";
}
);
background = {
paths = (
{
closed = 1;
nodes = (
"149 0 LINE",
"149 308 LINE",
"273 432 LINE",
"373 432 LINE",
"423 383 LINE",
"423 0 LINE",
"497 0 LINE",
"497 406 LINE",
"405 498 LINE",
"253 498 LINE",
"149 394 LINE",
"149 724 LINE",
"75 724 LINE",
"75 0 LINE"
);
}
);
};
layerId = "39D11A97-A6D9-4B52-A6F5-15D5E4373676";
paths = (
{
closed = 1;
nodes = (
"149 0 LINE",
"149 308 LINE",
"273 432 LINE",
"376 432 LINE",
"426 383 LINE",
"426 0 LINE",
"500 0 LINE",
"500 406 LINE",
"408 498 LINE",
"253 498 LINE",
"149 394 LINE",
"149 724 LINE",
"75 724 LINE",
"75 0 LINE"
);
}
);
width = 570;
},
{
anchors = (
{
name = bottom;
position = "{302, 0}";
},
{
name = center;
position = "{302, 249}";
},
{
name = top;
position = "{304, 700}";
}
);
background = {
paths = (
{
closed = 1;
nodes = (
"192 0 LINE",
"192 286 LINE",
"290 384 LINE",
"378 384 LINE",
"413 349 LINE",
"413 0 LINE",
"545 0 LINE",
"545 390 LINE",
"437 498 LINE",
"264 498 LINE",
"192 426 LINE",
"192 724 LINE",
"60 724 LINE",
"60 0 LINE"
);
}
);
};
layerId = "D6105F7E-CAE1-4F7B-A52E-8AA6E6082DF8";
paths = (
{
closed = 1;
nodes = (
"192 0 LINE",
"192 286 LINE",
"290 384 LINE",
"378 384 LINE",
"413 349 LINE",
"413 0 LINE",
"545 0 LINE",
"545 390 LINE",
"437 498 LINE",
"264 498 LINE",
"192 426 LINE",
"192 724 LINE",
"60 724 LINE",
"60 0 LINE"
);
}
);
width = 598;
}
);
leftMetricsKey = n;
note = h;
rightKerningGroup = n;
rightMetricsKey = n;
unicode = 0068;
},
{
glyphname = i;
lastChange = "2018-04-19 12:45:41 +0000";
layers = (
{
anchors = (
{
name = bottom;
position = "{122, 0}";
},
{
name = ogonek;
position = "{159, 0}";
}
);
background = {
paths = (
{
closed = 1;
nodes = (
"154 0 LINE",
"154 498 LINE",
"80 498 LINE",
"80 0 LINE"
);
},
{
closed = 1;
nodes = (
"95 700 LINE",
"65 670 LINE",
"65 626 LINE",
"95 596 LINE",
"139 596 LINE",
"169 626 LINE",
"169 670 LINE",
"139 700 LINE"
);
}
);
};
layerId = "39D11A97-A6D9-4B52-A6F5-15D5E4373676";
paths = (
{
closed = 1;
nodes = (
"159 0 LINE",
"159 498 LINE",
"85 498 LINE",
"85 0 LINE"
);
},
{
closed = 1;
nodes = (
"100 686 LINE",
"70 656 LINE",
"70 612 LINE",
"100 582 LINE",
"144 582 LINE",
"174 612 LINE",
"174 656 LINE",
"144 686 LINE"
);
}
);
width = 244;
},
{
anchors = (
{
name = bottom;
position = "{135, 0}";
},
{
name = ogonek;
position = "{172, 0}";
}
);
background = {
paths = (
{
closed = 1;
nodes = (
"202 0 LINE",
"202 498 LINE",
"68 498 LINE",
"68 0 LINE"
);
},
{
closed = 1;
nodes = (
"99 712 LINE",
"53 666 LINE",
"53 602 LINE",
"99 556 LINE",
"171 556 LINE",
"217 602 LINE",
"217 666 LINE",
"171 712 LINE"
);
}
);
};
layerId = "D6105F7E-CAE1-4F7B-A52E-8AA6E6082DF8";
paths = (
{
closed = 1;
nodes = (
"202 0 LINE",
"202 498 LINE",
"70 498 LINE",
"70 0 LINE"
);
},
{
closed = 1;
nodes = (
"101 712 LINE",
"55 666 LINE",
"55 602 LINE",
"101 556 LINE",
"171 556 LINE",
"217 602 LINE",
"217 666 LINE",
"171 712 LINE"
);
}
);
width = 272;
}
);
note = i;
unicode = 0069;
},
{
glyphname = j;
lastChange = "2018-04-19 13:37:45 +0000";
layers = (
{
background = {
paths = (
{
closed = 1;
nodes = (
"45 -152 LINE",
"-55 -152 LINE",
"-55 -218 LINE",
"78 -218 LINE",
"169 -127 LINE",
"169 497 LINE",
"95 497 LINE",
"95 -102 LINE"
);
},
{
closed = 1;
nodes = (
"110 700 LINE",
"80 670 LINE",
"80 626 LINE",
"110 596 LINE",
"154 596 LINE",
"184 626 LINE",
"184 670 LINE",
"154 700 LINE"
);
}
);
};
layerId = "39D11A97-A6D9-4B52-A6F5-15D5E4373676";
paths = (
{
closed = 1;
nodes = (
"83 -218 LINE",
"174 -127 LINE",
"174 498 LINE",
"100 498 LINE",
"100 -103 LINE",
"50 -152 LINE",
"-50 -152 LINE",
"-50 -218 LINE"
);
},
{
closed = 1;
nodes = (
"159 582 LINE",
"189 612 LINE",
"189 656 LINE",
"159 686 LINE",
"115 686 LINE",
"85 656 LINE",
"85 612 LINE",
"115 582 LINE"
);
}
);
width = 259;
},
{
background = {
paths = (
{
closed = 1;
nodes = (
"110 -218 LINE",
"217 -111 LINE",
"217 498 LINE",
"85 498 LINE",
"85 -69 LINE",
"50 -104 LINE",
"-65 -104 LINE",
"-65 -218 LINE"
);
},
{
closed = 1;
nodes = (
"186 556 LINE",
"232 602 LINE",
"232 666 LINE",
"186 712 LINE",
"116 712 LINE",
"70 666 LINE",
"70 602 LINE",
"116 556 LINE"
);
}
);
};
layerId = "D6105F7E-CAE1-4F7B-A52E-8AA6E6082DF8";
paths = (
{
closed = 1;
nodes = (
"110 -218 LINE",
"217 -111 LINE",
"217 498 LINE",
"85 498 LINE",
"85 -69 LINE",
"50 -104 LINE",
"-65 -104 LINE",
"-65 -218 LINE"
);
},
{
closed = 1;
nodes = (
"186 556 LINE",
"232 602 LINE",
"232 666 LINE",
"186 712 LINE",
"116 712 LINE",
"70 666 LINE",
"70 602 LINE",
"116 556 LINE"
);
}
);
width = 287;
}
);
leftKerningGroup = j;
note = j;
unicode = 006A;
},
{
glyphname = k;
lastChange = "2018-04-19 13:54:53 +0000";
layers = (
{
anchors = (
{
name = bottom;
position = "{274, 0}";
},
{
name = top;
position = "{267, 498}";
}
);
background = {
paths = (
{
closed = 1;
nodes = (
"144 0 LINE",
"144 226 LINE",
"260 226 LINE",
"417 0 LINE",
"499 0 LINE",
"321 258 LINE",
"489 498 LINE",
"407 498 LINE",
"260 292 LINE",
"144 292 LINE",
"144 710 LINE",
"70 710 LINE",
"70 0 LINE"
);
}
);
};
layerId = "39D11A97-A6D9-4B52-A6F5-15D5E4373676";
paths = (
{
closed = 1;
nodes = (
"149 0 LINE",
"149 226 LINE",
"266 226 LINE",
"422 0 LINE",
"504 0 LINE",
"326 258 LINE",
"494 498 LINE",
"412 498 LINE",
"266 292 LINE",
"149 292 LINE",
"149 724 LINE",
"75 724 LINE",
"75 0 LINE"
);
}
);
width = 524;
},
{
anchors = (
{
name = bottom;
position = "{289, 0}";
},
{
name = top;
position = "{282, 498}";
}
);
background = {
paths = (
{
closed = 1;
nodes = (
"192 0 LINE",
"192 202 LINE",
"284 202 LINE",
"426 0 LINE",
"572 0 LINE",
"390 258 LINE",
"562 498 LINE",
"416 498 LINE",
"287 316 LINE",
"192 316 LINE",
"192 724 LINE",
"60 724 LINE",
"60 0 LINE"
);
}
);
};
layerId = "D6105F7E-CAE1-4F7B-A52E-8AA6E6082DF8";
paths = (
{
closed = 1;
nodes = (
"192 0 LINE",
"192 202 LINE",
"282 202 LINE",
"424 0 LINE",
"572 0 LINE",
"390 258 LINE",
"562 498 LINE",
"414 498 LINE",
"285 316 LINE",
"192 316 LINE",
"192 724 LINE",
"60 724 LINE",
"60 0 LINE"
);
}
);
width = 577;
}
);
leftMetricsKey = n;
note = k;
rightKerningGroup = k;
unicode = 006B;
},
{
glyphname = l;
lastChange = "2018-04-19 12:26:40 +0000";
layers = (
{
anchors = (
{
name = bottom;
position = "{117, 0}";
},
{
name = center;
position = "{117, 249}";
},
{
name = top;
position = "{117, 724}";
},
{
name = topright;
position = "{219, 498}";
}
);
layerId = "39D11A97-A6D9-4B52-A6F5-15D5E4373676";
paths = (
{
closed = 1;
nodes = (
"154 0 LINE",
"154 724 LINE",
"80 724 LINE",
"80 0 LINE"
);
}
);
width = 234;
},
{
anchors = (
{
name = bottom;
position = "{130, 0}";
},
{
name = center;
position = "{130, 249}";
},
{
name = top;
position = "{130, 724}";
},
{
name = topright;
position = "{232, 498}";
}
);
layerId = "D6105F7E-CAE1-4F7B-A52E-8AA6E6082DF8";
paths = (
{
closed = 1;
nodes = (
"197 0 LINE",
"197 724 LINE",
"65 724 LINE",
"65 0 LINE"
);
}
);
width = 262;
}
);
note = l;
unicode = 006C;
},
{
glyphname = m;
lastChange = "2018-04-19 13:40:25 +0000";
layers = (
{
anchors = (
{
name = bottom;
position = "{407, 0}";
},
{
name = top;
position = "{399, 498}";
}
);
background = {
paths = (
{
closed = 1;
nodes = (
"653 383 LINE",
"653 0 LINE",
"727 0 LINE",
"727 406 LINE",
"635 498 LINE",
"498 498 LINE",
"420 420 LINE",
"342 498 LINE",
"243 498 LINE",
"147 402 LINE",
"147 498 LINE",
"75 498 LINE",
"75 0 LINE",
"149 0 LINE",
"149 324 LINE",
"257 432 LINE",
"321 432 LINE",
"371 383 LINE",
"371 0 LINE",
"443 0 LINE",
"443 362 LINE",
"513 432 LINE",
"603 432 LINE"
);
}
);
};
layerId = "39D11A97-A6D9-4B52-A6F5-15D5E4373676";
paths = (
{
closed = 1;
nodes = (
"693 383 LINE",
"693 0 LINE",
"767 0 LINE",
"767 406 LINE",
"675 498 LINE",
"518 498 LINE",
"440 420 LINE",
"362 498 LINE",
"243 498 LINE",
"147 402 LINE",
"147 498 LINE",
"75 498 LINE",
"75 0 LINE",
"149 0 LINE",
"149 324 LINE",
"257 432 LINE",
"341 432 LINE",
"391 383 LINE",
"391 0 LINE",
"463 0 LINE",
"463 362 LINE",
"533 432 LINE",
"643 432 LINE"
);
}
);
width = 837;
},
{
anchors = (
{
name = bottom;
position = "{422, 0}";
},
{
name = top;
position = "{414, 498}";
}
);
background = {
paths = (
{
closed = 1;
nodes = (
"184 420 LINE",
"184 498 LINE",
"60 498 LINE",
"60 0 LINE",
"192 0 LINE",
"192 292 LINE",
"284 384 LINE",
"345 384 LINE",
"378 351 LINE",
"378 0 LINE",
"506 0 LINE",
"506 330 LINE",
"560 384 LINE",
"645 384 LINE",
"680 349 LINE",
"680 0 LINE",
"812 0 LINE",
"812 390 LINE",
"704 498 LINE",
"529 498 LINE",
"460 429 LINE",
"391 498 LINE",
"262 498 LINE"
);
}
);
};
layerId = "D6105F7E-CAE1-4F7B-A52E-8AA6E6082DF8";
paths = (
{
closed = 1;
nodes = (
"184 420 LINE",
"184 498 LINE",
"60 498 LINE",
"60 0 LINE",
"192 0 LINE",
"192 292 LINE",
"284 384 LINE",
"345 384 LINE",
"378 351 LINE",
"378 0 LINE",
"506 0 LINE",
"506 330 LINE",
"560 384 LINE",
"645 384 LINE",
"680 349 LINE",
"680 0 LINE",
"812 0 LINE",
"812 390 LINE",
"704 498 LINE",
"529 498 LINE",
"460 429 LINE",
"391 498 LINE",
"262 498 LINE"
);
}
);
width = 867;
}
);
leftKerningGroup = n;
leftMetricsKey = n;
note = m;
rightKerningGroup = n;
rightMetricsKey = n;
unicode = 006D;
},
{
glyphname = n;
lastChange = "2018-04-19 13:11:50 +0000";
layers = (
{
anchors = (
{
name = bottom;
position = "{286, 0}";
},
{
name = top;
position = "{289, 498}";
}
);
background = {
paths = (
{
closed = 1;
nodes = (
"144 0 LINE",
"144 308 LINE",
"268 432 LINE",
"368 432 LINE",
"418 382 LINE",
"418 0 LINE",
"492 0 LINE",
"492 406 LINE",
"400 498 LINE",
"248 498 LINE",
"142 392 LINE",
"142 498 LINE",
"70 498 LINE",
"70 0 LINE"
);
}
);
};
layerId = "39D11A97-A6D9-4B52-A6F5-15D5E4373676";
paths = (
{
closed = 1;
nodes = (
"149 0 LINE",
"149 308 LINE",
"273 432 LINE",
"374 432 LINE",
"424 383 LINE",
"424 0 LINE",
"498 0 LINE",
"498 406 LINE",
"406 498 LINE",
"253 498 LINE",
"147 392 LINE",
"147 498 LINE",
"75 498 LINE",
"75 0 LINE"
);
}
);
width = 568;
},
{
anchors = (
{
name = bottom;
position = "{301, 0}";
},
{
name = top;
position = "{304, 498}";
}
);
background = {
paths = (
{
closed = 1;
nodes = (
"194 0 LINE",
"194 272 LINE",
"302 380 LINE",
"376 380 LINE",
"409 347 LINE",
"409 0 LINE",
"543 0 LINE",
"543 390 LINE",
"435 498 LINE",
"254 498 LINE",
"192 436 LINE",
"192 498 LINE",
"60 498 LINE",
"60 0 LINE"
);
}
);
};
layerId = "D6105F7E-CAE1-4F7B-A52E-8AA6E6082DF8";
paths = (
{
closed = 1;
nodes = (
"192 0 LINE",
"192 286 LINE",
"290 384 LINE",
"376 384 LINE",
"411 349 LINE",
"411 0 LINE",
"543 0 LINE",
"543 390 LINE",
"435 498 LINE",
"262 498 LINE",
"184 420 LINE",
"184 498 LINE",
"60 498 LINE",
"60 0 LINE"
);
}
);
width = 598;
}
);
leftKerningGroup = n;
note = n;
rightKerningGroup = n;
unicode = 006E;
},
{
glyphname = o;
lastChange = "2018-04-19 13:27:14 +0000";
layers = (
{
anchors = (
{
name = bottom;
position = "{285, 0}";
},
{
name = center;
position = "{285, 249}";
},
{
name = ogonek;
position = "{513, 10}";
},
{
name = top;
position = "{285, 498}";
},
{
name = topright;
position = "{520, 307}";
}
);
background = {
paths = (
{
closed = 1;
nodes = (
"408 0 LINE",
"500 92 LINE",
"500 406 LINE",
"408 498 LINE",
"152 498 LINE",
"60 406 LINE",
"60 92 LINE",
"152 0 LINE"
);
},
{
closed = 1;
nodes = (
"134 116 LINE",
"134 382 LINE",
"184 432 LINE",
"376 432 LINE",
"426 382 LINE",
"426 116 LINE",
"376 66 LINE",
"184 66 LINE"
);
}
);
};
layerId = "39D11A97-A6D9-4B52-A6F5-15D5E4373676";
paths = (
{
closed = 1;
nodes = (
"413 0 LINE",
"505 92 LINE",
"505 406 LINE",
"413 498 LINE",
"157 498 LINE",
"65 406 LINE",
"65 92 LINE",
"157 0 LINE"
);
},
{
closed = 1;
nodes = (
"139 115 LINE",
"139 383 LINE",
"189 432 LINE",
"381 432 LINE",
"431 383 LINE",
"431 115 LINE",
"381 66 LINE",
"189 66 LINE"
);
}
);
width = 570;
},
{
anchors = (
{
name = bottom;
position = "{300, 0}";
},
{
name = center;
position = "{300, 249}";
},
{
name = ogonek;
position = "{528, 10}";
},
{
name = top;
position = "{300, 498}";
},
{
name = topright;
position = "{535, 307}";
}
);
background = {
paths = (
{
closed = 1;
nodes = (
"442 0 LINE",
"550 108 LINE",
"550 390 LINE",
"442 498 LINE",
"158 498 LINE",
"50 390 LINE",
"50 108 LINE",
"158 0 LINE"
);
},
{
closed = 1;
nodes = (
"182 149 LINE",
"182 349 LINE",
"217 384 LINE",
"383 384 LINE",
"418 349 LINE",
"418 149 LINE",
"383 114 LINE",
"217 114 LINE"
);
}
);
};
layerId = "D6105F7E-CAE1-4F7B-A52E-8AA6E6082DF8";
paths = (
{
closed = 1;
nodes = (
"442 0 LINE",
"550 108 LINE",
"550 390 LINE",
"442 498 LINE",
"158 498 LINE",
"50 390 LINE",
"50 108 LINE",
"158 0 LINE"
);
},
{
closed = 1;
nodes = (
"182 149 LINE",
"182 349 LINE",
"217 384 LINE",
"383 384 LINE",
"418 349 LINE",
"418 149 LINE",
"383 114 LINE",
"217 114 LINE"
);
}
);
width = 600;
}
);
leftKerningGroup = o;
note = o;
rightKerningGroup = o;
rightMetricsKey = "=|";
unicode = 006F;
},
{
glyphname = p;
lastChange = "2018-04-19 13:42:29 +0000";
layers = (
{
anchors = (
{
name = bottom;
position = "{290, 0}";
},
{
name = top;
position = "{290, 498}";
}
);
background = {
paths = (
{
closed = 1;
nodes = (
"418 0 LINE",
"510 92 LINE",
"510 406 LINE",
"418 498 LINE",
"229 498 LINE",
"134 403 LINE",
"96 351 LINE",
"70 135 LINE",
"229 0 LINE"
);
},
{
closed = 1;
nodes = (
"144 -212 LINE",
"144 197 LINE",
"140 300 LINE",
"140 498 LINE",
"70 498 LINE",
"70 300 LINE",
"70 -212 LINE"
);
},
{
closed = 1;
nodes = (
"144 151 LINE",
"144 324 LINE",
"251 432 LINE",
"386 432 LINE",
"436 382 LINE",
"436 116 LINE",
"386 66 LINE",
"244 66 LINE"
);
}
);
};
layerId = "39D11A97-A6D9-4B52-A6F5-15D5E4373676";
paths = (
{
closed = 1;
nodes = (
"147 498 LINE",
"75 498 LINE",
"75 -212 LINE",
"149 -212 LINE",
"149 72 LINE",
"231 0 LINE",
"423 0 LINE",
"515 92 LINE",
"515 406 LINE",
"423 498 LINE",
"236 498 LINE",
"147 409 LINE"
);
},
{
closed = 1;
nodes = (
"256 432 LINE",
"391 432 LINE",
"441 383 LINE",
"441 115 LINE",
"391 66 LINE",
"245 66 LINE",
"149 153 LINE",
"149 325 LINE"
);
}
);
width = 580;
},
{
anchors = (
{
name = bottom;
position = "{305, 0}";
},
{
name = top;
position = "{305, 498}";
}
);
background = {
paths = (
{
closed = 1;
nodes = (
"192 -212 LINE",
"192 51 LINE",
"254 0 LINE",
"452 0 LINE",
"560 108 LINE",
"560 390 LINE",
"452 498 LINE",
"245 498 LINE",
"184 437 LINE",
"184 498 LINE",
"60 498 LINE",
"60 -212 LINE"
);
},
{
closed = 1;
nodes = (
"192 185 LINE",
"192 303 LINE",
"273 384 LINE",
"393 384 LINE",
"428 349 LINE",
"428 149 LINE",
"393 114 LINE",
"271 114 LINE"
);
}
);
};
layerId = "D6105F7E-CAE1-4F7B-A52E-8AA6E6082DF8";
paths = (
{
closed = 1;
nodes = (
"192 -212 LINE",
"192 53 LINE",
"256 0 LINE",
"452 0 LINE",
"560 108 LINE",
"560 390 LINE",
"452 498 LINE",
"255 498 LINE",
"184 427 LINE",
"184 498 LINE",
"60 498 LINE",
"60 -212 LINE"
);
},
{
closed = 1;
nodes = (
"192 185 LINE",
"192 303 LINE",
"273 384 LINE",
"393 384 LINE",
"428 349 LINE",
"428 149 LINE",
"393 114 LINE",
"271 114 LINE"
);
}
);
width = 610;
}
);
leftKerningGroup = n;
leftMetricsKey = n;
note = p;
rightKerningGroup = o;
rightMetricsKey = o;
unicode = 0070;
},
{
glyphname = q;
lastChange = "2018-04-19 13:43:50 +0000";
layers = (
{
anchors = (
{
name = bottom;
position = "{287, 0}";
},
{
name = top;
position = "{287, 498}";
}
);
background = {
paths = (
{
closed = 1;
nodes = (
"498 -212 LINE",
"498 406 LINE",
"406 498 LINE",
"152 498 LINE",
"60 406 LINE",
"60 92 LINE",
"152 0 LINE",
"327 0 LINE",
"424 97 LINE",
"424 -212 LINE"
);
},
{
closed = 1;
nodes = (
"134 116 LINE",
"134 382 LINE",
"184 432 LINE",
"374 432 LINE",
"424 382 LINE",
"424 184 LINE",
"306 66 LINE",
"184 66 LINE"
);
}
);
};
layerId = "39D11A97-A6D9-4B52-A6F5-15D5E4373676";
paths = (
{
closed = 1;
nodes = (
"503 -212 LINE",
"503 406 LINE",
"411 498 LINE",
"157 498 LINE",
"65 406 LINE",
"65 92 LINE",
"157 0 LINE",
"332 0 LINE",
"429 97 LINE",
"429 -212 LINE"
);
},
{
closed = 1;
nodes = (
"139 115 LINE",
"139 383 LINE",
"189 432 LINE",
"379 432 LINE",
"429 383 LINE",
"429 184 LINE",
"314 66 LINE",
"189 66 LINE"
);
}
);
width = 573;
},
{
anchors = (
{
name = bottom;
position = "{302, 0}";
},
{
name = top;
position = "{302, 498}";
}
);
background = {
paths = (
{
closed = 1;
nodes = (
"548 -212 LINE",
"548 390 LINE",
"440 498 LINE",
"158 498 LINE",
"50 390 LINE",
"50 108 LINE",
"158 0 LINE",
"347 0 LINE",
"414 67 LINE",
"414 -212 LINE"
);
},
{
closed = 1;
nodes = (
"182 147 LINE",
"182 351 LINE",
"215 384 LINE",
"383 384 LINE",
"416 351 LINE",
"416 215 LINE",
"317 114 LINE",
"215 114 LINE"
);
}
);
};
layerId = "D6105F7E-CAE1-4F7B-A52E-8AA6E6082DF8";
paths = (
{
closed = 1;
nodes = (
"548 -212 LINE",
"548 390 LINE",
"440 498 LINE",
"158 498 LINE",
"50 390 LINE",
"50 108 LINE",
"158 0 LINE",
"345 0 LINE",
"414 69 LINE",
"414 -212 LINE"
);
},
{
closed = 1;
nodes = (
"182 149 LINE",
"182 349 LINE",
"217 384 LINE",
"381 384 LINE",
"416 349 LINE",
"416 210 LINE",
"322 114 LINE",
"217 114 LINE"
);
}
);
width = 603;
}
);
leftKerningGroup = o;
leftMetricsKey = o;
note = q;
rightKerningGroup = n;
unicode = 0071;
},
{
glyphname = r;
lastChange = "2018-04-19 13:28:36 +0000";
layers = (
{
anchors = (
{
name = bottom;
position = "{112, 0}";
},
{
name = top;
position = "{217, 498}";
}
);
background = {
paths = (
{
closed = 1;
nodes = (
"144 0 LINE",
"144 326 LINE",
"250 432 LINE",
"358 432 LINE",
"358 498 LINE",
"231 498 LINE",
"142 409 LINE",
"142 498 LINE",
"70 498 LINE",
"70 0 LINE"
);
}
);
};
layerId = "39D11A97-A6D9-4B52-A6F5-15D5E4373676";
paths = (
{
closed = 1;
nodes = (
"149 0 LINE",
"149 326 LINE",
"255 432 LINE",
"365 432 LINE",
"365 498 LINE",
"236 498 LINE",
"147 409 LINE",
"147 498 LINE",
"75 498 LINE",
"75 0 LINE"
);
}
);
width = 385;
},
{
anchors = (
{
name = bottom;
position = "{127, 0}";
},
{
name = top;
position = "{232, 498}";
}
);
background = {
paths = (
{
closed = 1;
nodes = (
"192 0 LINE",
"192 290 LINE",
"286 384 LINE",
"410 384 LINE",
"410 498 LINE",
"255 498 LINE",
"184 427 LINE",
"184 498 LINE",
"60 498 LINE",
"60 0 LINE"
);
}
);
};
layerId = "D6105F7E-CAE1-4F7B-A52E-8AA6E6082DF8";
paths = (
{
closed = 1;
nodes = (
"192 0 LINE",
"192 286 LINE",
"290 384 LINE",
"410 384 LINE",
"410 498 LINE",
"262 498 LINE",
"184 420 LINE",
"184 498 LINE",
"60 498 LINE",
"60 0 LINE"
);
}
);
width = 415;
}
);
leftKerningGroup = n;
leftMetricsKey = n;
note = r;
rightKerningGroup = r;
unicode = 0072;
},
{
glyphname = s;
lastChange = "2018-04-19 13:49:33 +0000";
layers = (
{
anchors = (
{
name = bottom;
position = "{260, 0}";
},
{
name = top;
position = "{251, 498}";
}
);
background = {
paths = (
{
closed = 1;
nodes = (
"375 282 LINE",
"159 282 LINE",
"119 322 LINE",
"119 394 LINE",
"159 434 LINE",
"333 434 LINE",
"373 394 LINE",
"373 354 LINE",
"447 354 LINE",
"447 416 LINE",
"365 498 LINE",
"127 498 LINE",
"45 416 LINE",
"45 299 LINE",
"124 220 LINE",
"343 220 LINE",
"383 180 LINE",
"383 104 LINE",
"343 64 LINE",
"155 64 LINE",
"115 104 LINE",
"115 144 LINE",
"41 144 LINE",
"41 82 LINE",
"123 0 LINE",
"375 0 LINE",
"457 82 LINE",
"457 200 LINE"
);
}
);
};
layerId = "39D11A97-A6D9-4B52-A6F5-15D5E4373676";
paths = (
{
closed = 1;
nodes = (
"380 0 LINE",
"462 82 LINE",
"462 200 LINE",
"380 282 LINE",
"168 282 LINE",
"128 322 LINE",
"128 395 LINE",
"168 434 LINE",
"338 434 LINE",
"378 395 LINE",
"378 354 LINE",
"452 354 LINE",
"452 416 LINE",
"370 498 LINE",
"136 498 LINE",
"54 416 LINE",
"54 299 LINE",
"133 220 LINE",
"348 220 LINE",
"388 180 LINE",
"388 103 LINE",
"348 64 LINE",
"164 64 LINE",
"124 103 LINE",
"124 144 LINE",
"50 144 LINE",
"50 82 LINE",
"132 0 LINE"
);
}
);
width = 512;
},
{
anchors = (
{
name = bottom;
position = "{275, 0}";
},
{
name = top;
position = "{266, 498}";
}
);
background = {
paths = (
{
closed = 1;
nodes = (
"409 0 LINE",
"507 98 LINE",
"507 207 LINE",
"409 305 LINE",
"195 305 LINE",
"171 329 LINE",
"171 365 LINE",
"194 388 LINE",
"342 388 LINE",
"365 365 LINE",
"365 335 LINE",
"497 335 LINE",
"497 400 LINE",
"399 498 LINE",
"137 498 LINE",
"39 400 LINE",
"39 294 LINE",
"136 197 LINE",
"351 197 LINE",
"375 173 LINE",
"375 133 LINE",
"352 110 LINE",
"190 110 LINE",
"167 133 LINE",
"167 163 LINE",
"35 163 LINE",
"35 98 LINE",
"133 0 LINE"
);
}
);
};
layerId = "D6105F7E-CAE1-4F7B-A52E-8AA6E6082DF8";
paths = (
{
closed = 1;
nodes = (
"411 0 LINE",
"507 96 LINE",
"507 209 LINE",
"412 304 LINE",
"193 304 LINE",
"169 328 LINE",
"169 365 LINE",
"192 388 LINE",
"344 388 LINE",
"367 365 LINE",
"367 337 LINE",
"497 337 LINE",
"497 400 LINE",
"399 498 LINE",
"135 498 LINE",
"39 402 LINE",
"39 293 LINE",
"134 198 LINE",
"353 198 LINE",
"377 174 LINE",
"377 133 LINE",
"354 110 LINE",
"188 110 LINE",
"165 133 LINE",
"165 161 LINE",
"35 161 LINE",
"35 98 LINE",
"133 0 LINE"
);
}
);
width = 542;
}
);
leftKerningGroup = s;
note = s;
rightKerningGroup = s;
unicode = 0073;
},
{
glyphname = t;
lastChange = "2018-04-19 13:06:51 +0000";
layers = (
{
anchors = (
{
name = bottom;
position = "{222, 0}";
},
{
name = center;
position = "{193, 249}";
},
{
name = top;
position = "{157, 638}";
},
{
name = topright;
position = "{365, 498}";
}
);
background = {
paths = (
{
closed = 1;
nodes = (
"350 497 LINE",
"194 497 LINE",
"194 660 LINE",
"120 660 LINE",
"120 92 LINE",
"212 0 LINE",
"350 0 LINE",
"350 65 LINE",
"244 65 LINE",
"194 115 LINE",
"194 431 LINE",
"350 431 LINE"
);
},
{
closed = 1;
nodes = (
"30 432 LINE",
"30 498 LINE",
"120 498 LINE",
"120 432 LINE"
);
}
);
};
layerId = "39D11A97-A6D9-4B52-A6F5-15D5E4373676";
paths = (
{
closed = 1;
nodes = (
"350 498 LINE",
"194 498 LINE",
"194 660 LINE",
"122 660 LINE",
"122 498 LINE",
"30 498 LINE",
"30 433 LINE",
"120 433 LINE",
"120 92 LINE",
"212 0 LINE",
"350 0 LINE",
"350 65 LINE",
"244 65 LINE",
"194 115 LINE",
"194 432 LINE",
"350 432 LINE"
);
}
);
width = 390;
},
{
anchors = (
{
name = bottom;
position = "{237, 0}";
},
{
name = center;
position = "{208, 249}";
},
{
name = top;
position = "{172, 638}";
},
{
name = topright;
position = "{380, 498}";
}
);
background = {
paths = (
{
closed = 1;
nodes = (
"395 498 LINE",
"239 498 LINE",
"239 660 LINE",
"107 660 LINE",
"107 498 LINE",
"15 498 LINE",
"15 380 LINE",
"105 380 LINE",
"105 108 LINE",
"213 0 LINE",
"395 0 LINE",
"395 117 LINE",
"273 117 LINE",
"239 151 LINE",
"239 379 LINE",
"395 379 LINE"
);
}
);
};
layerId = "D6105F7E-CAE1-4F7B-A52E-8AA6E6082DF8";
paths = (
{
closed = 1;
nodes = (
"395 498 LINE",
"239 498 LINE",
"239 660 LINE",
"109 660 LINE",
"109 498 LINE",
"15 498 LINE",
"15 384 LINE",
"107 384 LINE",
"107 108 LINE",
"215 0 LINE",
"395 0 LINE",
"395 114 LINE",
"275 114 LINE",
"239 150 LINE",
"239 383 LINE",
"395 383 LINE"
);
}
);
width = 420;
}
);
leftKerningGroup = t;
note = t;
rightKerningGroup = t;
unicode = 0074;
},
{
glyphname = u;
lastChange = "2018-04-19 13:43:55 +0000";
layers = (
{
anchors = (
{
name = bottom;
position = "{285, 0}";
},
{
name = ogonek;
position = "{492, 0}";
},
{
name = top;
position = "{283, 498}";
},
{
name = topright;
position = "{522, 307}";
}
);
background = {
paths = (
{
closed = 1;
nodes = (
"418 498 LINE",
"418 190 LINE",
"294 66 LINE",
"194 66 LINE",
"144 115 LINE",
"144 498 LINE",
"70 498 LINE",
"70 92 LINE",
"162 0 LINE",
"314 0 LINE",
"420 106 LINE",
"420 0 LINE",
"492 0 LINE",
"492 498 LINE"
);
}
);
};
layerId = "39D11A97-A6D9-4B52-A6F5-15D5E4373676";
paths = (
{
closed = 1;
nodes = (
"418 498 LINE",
"418 190 LINE",
"294 66 LINE",
"194 66 LINE",
"144 115 LINE",
"144 498 LINE",
"70 498 LINE",
"70 92 LINE",
"162 0 LINE",
"314 0 LINE",
"420 106 LINE",
"420 0 LINE",
"492 0 LINE",
"492 498 LINE"
);
}
);
width = 567;
},
{
anchors = (
{
name = bottom;
position = "{300, 0}";
},
{
name = ogonek;
position = "{507, 0}";
},
{
name = top;
position = "{298, 498}";
},
{
name = topright;
position = "{537, 307}";
}
);
background = {
paths = (
{
closed = 1;
nodes = (
"405 498 LINE",
"405 212 LINE",
"307 114 LINE",
"222 114 LINE",
"187 149 LINE",
"187 498 LINE",
"55 498 LINE",
"55 108 LINE",
"163 0 LINE",
"331 0 LINE",
"413 82 LINE",
"413 0 LINE",
"537 0 LINE",
"537 498 LINE"
);
}
);
};
layerId = "D6105F7E-CAE1-4F7B-A52E-8AA6E6082DF8";
paths = (
{
closed = 1;
nodes = (
"405 498 LINE",
"405 212 LINE",
"307 114 LINE",
"222 114 LINE",
"187 149 LINE",
"187 498 LINE",
"55 498 LINE",
"55 108 LINE",
"163 0 LINE",
"331 0 LINE",
"413 82 LINE",
"413 0 LINE",
"537 0 LINE",
"537 498 LINE"
);
}
);
width = 597;
}
);
leftKerningGroup = u;
note = u;
rightKerningGroup = u;
unicode = 0075;
},
{
glyphname = v;
lastChange = "2018-04-19 12:38:47 +0000";
layers = (
{
anchors = (
{
name = bottom;
position = "{241, 0}";
},
{
name = top;
position = "{241, 498}";
}
);
background = {
paths = (
{
closed = 1;
nodes = (
"284 0 LINE",
"467 498 LINE",
"391 498 LINE",
"243 74 LINE",
"239 74 LINE",
"91 498 LINE",
"15 498 LINE",
"198 0 LINE"
);
}
);
};
layerId = "39D11A97-A6D9-4B52-A6F5-15D5E4373676";
paths = (
{
closed = 1;
nodes = (
"284 0 LINE",
"467 498 LINE",
"391 498 LINE",
"243 74 LINE",
"239 74 LINE",
"91 498 LINE",
"15 498 LINE",
"198 0 LINE"
);
}
);
width = 482;
},
{
anchors = (
{
name = bottom;
position = "{267, 0}";
},
{
name = top;
position = "{267, 498}";
}
);
background = {
paths = (
{
closed = 1;
nodes = (
"332 0 LINE",
"534 498 LINE",
"397 498 LINE",
"249 126 LINE",
"285 126 LINE",
"137 498 LINE",
"0 498 LINE",
"202 0 LINE"
);
}
);
};
layerId = "D6105F7E-CAE1-4F7B-A52E-8AA6E6082DF8";
paths = (
{
closed = 1;
nodes = (
"331 0 LINE",
"534 498 LINE",
"397 498 LINE",
"269 151 LINE",
"265 151 LINE",
"137 498 LINE",
"0 498 LINE",
"203 0 LINE"
);
}
);
width = 534;
}
);
note = v;
rightMetricsKey = "=|";
unicode = 0076;
},
{
glyphname = w;
lastChange = "2018-04-19 13:54:20 +0000";
layers = (
{
anchors = (
{
name = bottom;
position = "{354, 0}";
},
{
name = top;
position = "{354, 498}";
}
);
background = {
paths = (
{
closed = 1;
nodes = (
"503 84 LINE",
"499 84 LINE",
"396 478 LINE",
"312 478 LINE",
"200 84 LINE",
"196 84 LINE",
"109 498 LINE",
"35 498 LINE",
"153 0 LINE",
"237 0 LINE",
"352 394 LINE",
"356 394 LINE",
"459 0 LINE",
"545 0 LINE",
"672 498 LINE",
"598 498 LINE"
);
}
);
};
layerId = "39D11A97-A6D9-4B52-A6F5-15D5E4373676";
paths = (
{
closed = 1;
nodes = (
"503 84 LINE",
"499 84 LINE",
"395 478 LINE",
"313 478 LINE",
"200 84 LINE",
"196 84 LINE",
"109 498 LINE",
"35 498 LINE",
"153 0 LINE",
"237 0 LINE",
"352 394 LINE",
"356 394 LINE",
"459 0 LINE",
"545 0 LINE",
"672 498 LINE",
"598 498 LINE"
);
}
);
width = 707;
},
{
anchors = (
{
name = bottom;
position = "{376, 0}";
},
{
name = top;
position = "{376, 498}";
}
);
background = {
paths = (
{
closed = 1;
nodes = (
"523 186 LINE",
"519 186 LINE",
"437 478 LINE",
"315 478 LINE",
"226 186 LINE",
"222 186 LINE",
"154 498 LINE",
"20 498 LINE",
"152 0 LINE",
"276 0 LINE",
"372 306 LINE",
"376 306 LINE",
"465 0 LINE",
"590 0 LINE",
"731 498 LINE",
"597 498 LINE"
);
}
);
};
layerId = "D6105F7E-CAE1-4F7B-A52E-8AA6E6082DF8";
paths = (
{
closed = 1;
nodes = (
"523 184 LINE",
"519 184 LINE",
"436 478 LINE",
"316 478 LINE",
"226 184 LINE",
"222 184 LINE",
"154 498 LINE",
"20 498 LINE",
"149 0 LINE",
"272 0 LINE",
"372 316 LINE",
"376 316 LINE",
"469 0 LINE",
"593 0 LINE",
"731 498 LINE",
"597 498 LINE"
);
}
);
width = 751;
}
);
leftKerningGroup = w;
note = w;
rightKerningGroup = w;
rightMetricsKey = "=|";
unicode = 0077;
},
{
glyphname = x;
lastChange = "2018-04-19 11:46:49 +0000";
layers = (
{
anchors = (
{
name = bottom;
position = "{244, 0}";
},
{
name = top;
position = "{244, 498}";
}
);
background = {
paths = (
{
closed = 1;
nodes = (
"380 0 LINE",
"463 0 LINE",
"103 498 LINE",
"20 498 LINE"
);
},
{
closed = 1;
nodes = (
"375 498 LINE",
"15 0 LINE",
"98 0 LINE",
"458 498 LINE"
);
}
);
};
layerId = "39D11A97-A6D9-4B52-A6F5-15D5E4373676";
paths = (
{
closed = 1;
nodes = (
"386 0 LINE",
"468 0 LINE",
"107 498 LINE",
"25 498 LINE"
);
},
{
closed = 1;
nodes = (
"381 498 LINE",
"20 0 LINE",
"102 0 LINE",
"463 498 LINE"
);
}
);
width = 488;
},
{
anchors = (
{
name = bottom;
position = "{283, 0}";
},
{
name = top;
position = "{283, 498}";
}
);
background = {
paths = (
{
closed = 1;
nodes = (
"408 0 LINE",
"561 0 LINE",
"163 498 LINE",
"10 498 LINE"
);
},
{
closed = 1;
nodes = (
"403 498 LINE",
"5 0 LINE",
"158 0 LINE",
"556 498 LINE"
);
}
);
};
layerId = "D6105F7E-CAE1-4F7B-A52E-8AA6E6082DF8";
paths = (
{
closed = 1;
nodes = (
"408 0 LINE",
"561 0 LINE",
"163 498 LINE",
"10 498 LINE"
);
},
{
closed = 1;
nodes = (
"403 498 LINE",
"5 0 LINE",
"158 0 LINE",
"556 498 LINE"
);
}
);
width = 566;
}
);
note = x;
unicode = 0078;
},
{
glyphname = y;
lastChange = "2018-04-19 13:44:40 +0000";
layers = (
{
anchors = (
{
name = bottom;
position = "{288, -218}";
},
{
name = top;
position = "{284, 498}";
}
);
background = {
paths = (
{
closed = 1;
nodes = (
"404 -218 LINE",
"496 -127 LINE",
"496 498 LINE",
"422 498 LINE",
"422 192 LINE",
"296 66 LINE",
"196 66 LINE",
"146 115 LINE",
"146 498 LINE",
"72 498 LINE",
"72 92 LINE",
"164 0 LINE",
"316 0 LINE",
"422 106 LINE",
"422 -103 LINE",
"372 -152 LINE",
"139 -152 LINE",
"139 -218 LINE"
);
}
);
};
layerId = "39D11A97-A6D9-4B52-A6F5-15D5E4373676";
paths = (
{
closed = 1;
nodes = (
"404 -218 LINE",
"496 -127 LINE",
"496 498 LINE",
"422 498 LINE",
"422 192 LINE",
"296 66 LINE",
"194 66 LINE",
"144 115 LINE",
"144 498 LINE",
"70 498 LINE",
"70 92 LINE",
"162 0 LINE",
"316 0 LINE",
"422 106 LINE",
"422 -103 LINE",
"372 -152 LINE",
"139 -152 LINE",
"139 -218 LINE"
);
}
);
width = 571;
},
{
anchors = (
{
name = bottom;
position = "{303, -218}";
},
{
name = top;
position = "{299, 498}";
}
);
background = {
paths = (
{
closed = 1;
nodes = (
"335 0 LINE",
"163 0 LINE",
"55 108 LINE",
"55 498 LINE",
"187 498 LINE",
"187 151 LINE",
"220 118 LINE",
"311 118 LINE",
"409 216 LINE",
"409 498 LINE",
"541 498 LINE",
"541 -114 LINE",
"432 -221 LINE",
"124 -221 LINE",
"124 -107 LINE",
"374 -107 LINE",
"409 -72 LINE",
"409 74 LINE"
);
}
);
};
layerId = "D6105F7E-CAE1-4F7B-A52E-8AA6E6082DF8";
paths = (
{
closed = 1;
nodes = (
"432 -221 LINE",
"541 -114 LINE",
"541 498 LINE",
"409 498 LINE",
"409 212 LINE",
"311 114 LINE",
"222 114 LINE",
"187 149 LINE",
"187 498 LINE",
"55 498 LINE",
"55 108 LINE",
"163 0 LINE",
"335 0 LINE",
"409 74 LINE",
"409 -74 LINE",
"374 -109 LINE",
"124 -109 LINE",
"124 -221 LINE"
);
}
);
width = 601;
}
);
leftKerningGroup = u;
leftMetricsKey = u;
note = y;
rightKerningGroup = u;
rightMetricsKey = u;
unicode = 0079;
},
{
glyphname = z;
lastChange = "2018-04-19 13:58:39 +0000";
layers = (
{
anchors = (
{
name = bottom;
position = "{241, 0}";
},
{
name = top;
position = "{242, 498}";
}
);
background = {
paths = (
{
closed = 1;
nodes = (
"50 434 LINE",
"360 434 LINE",
"360 416 LINE",
"40 98 LINE",
"40 0 LINE",
"434 0 LINE",
"434 64 LINE",
"114 64 LINE",
"114 82 LINE",
"434 400 LINE",
"434 498 LINE",
"50 498 LINE"
);
}
);
};
layerId = "39D11A97-A6D9-4B52-A6F5-15D5E4373676";
paths = (
{
closed = 1;
nodes = (
"50 436 LINE",
"349 436 LINE",
"349 434 LINE",
"40 69 LINE",
"40 0 LINE",
"434 0 LINE",
"434 62 LINE",
"125 62 LINE",
"125 64 LINE",
"434 429 LINE",
"434 498 LINE",
"50 498 LINE"
);
}
);
width = 474;
},
{
anchors = (
{
name = bottom;
position = "{256, 0}";
},
{
name = top;
position = "{257, 498}";
}
);
background = {
paths = (
{
closed = 1;
nodes = (
"35 388 LINE",
"304 388 LINE",
"304 386 LINE",
"25 103 LINE",
"25 0 LINE",
"479 0 LINE",
"479 110 LINE",
"200 110 LINE",
"200 112 LINE",
"479 395 LINE",
"479 498 LINE",
"35 498 LINE"
);
}
);
};
layerId = "D6105F7E-CAE1-4F7B-A52E-8AA6E6082DF8";
paths = (
{
closed = 1;
nodes = (
"35 390 LINE",
"308 390 LINE",
"308 388 LINE",
"25 103 LINE",
"25 0 LINE",
"479 0 LINE",
"479 108 LINE",
"196 108 LINE",
"196 110 LINE",
"479 395 LINE",
"479 498 LINE",
"35 498 LINE"
);
}
);
width = 504;
}
);
leftKerningGroup = z;
note = z;
rightKerningGroup = z;
unicode = 007A;
},
{
glyphname = AE;
lastChange = "2018-04-19 06:43:30 +0000";
layers = (
{
anchors = (
{
name = bottom;
position = "{470, 0}";
},
{
name = top;
position = "{504, 700}";
}
);
background = {
paths = (
{
closed = 1;
nodes = (
"129 189 LINE",
"487 189 LINE",
"487 257 LINE",
"129 257 LINE"
);
},
{
closed = 1;
nodes = (
"880 700 LINE",
"324 700 LINE",
"15 0 LINE",
"95 0 LINE",
"370 632 LINE",
"440 632 LINE",
"441 0 LINE",
"880 0 LINE",
"880 68 LINE",
"516 68 LINE",
"516 316 LINE",
"851 316 LINE",
"851 384 LINE",
"516 384 LINE",
"516 632 LINE",
"880 632 LINE"
);
}
);
};
layerId = "39D11A97-A6D9-4B52-A6F5-15D5E4373676";
paths = (
{
closed = 1;
nodes = (
"129 189 LINE",
"487 189 LINE",
"487 257 LINE",
"129 257 LINE"
);
},
{
closed = 1;
nodes = (
"874 700 LINE",
"324 700 LINE",
"15 0 LINE",
"95 0 LINE",
"370 632 LINE",
"440 632 LINE",
"440 0 LINE",
"874 0 LINE",
"874 68 LINE",
"516 68 LINE",
"516 316 LINE",
"845 316 LINE",
"845 384 LINE",
"516 384 LINE",
"516 632 LINE",
"874 632 LINE"
);
}
);
width = 924;
},
{
anchors = (
{
name = bottom;
position = "{470, 0}";
},
{
name = top;
position = "{504, 700}";
}
);
background = {
paths = (
{
closed = 1;
nodes = (
"129 189 LINE",
"487 189 LINE",
"487 257 LINE",
"129 257 LINE"
);
},
{
closed = 1;
nodes = (
"880 700 LINE",
"324 700 LINE",
"15 0 LINE",
"95 0 LINE",
"370 632 LINE",
"440 632 LINE",
"441 0 LINE",
"880 0 LINE",
"880 68 LINE",
"516 68 LINE",
"516 316 LINE",
"851 316 LINE",
"851 384 LINE",
"516 384 LINE",
"516 632 LINE",
"880 632 LINE"
);
}
);
};
layerId = "D6105F7E-CAE1-4F7B-A52E-8AA6E6082DF8";
paths = (
{
closed = 1;
nodes = (
"129 189 LINE",
"487 189 LINE",
"487 257 LINE",
"129 257 LINE"
);
},
{
closed = 1;
nodes = (
"874 700 LINE",
"324 700 LINE",
"15 0 LINE",
"95 0 LINE",
"370 632 LINE",
"440 632 LINE",
"440 0 LINE",
"874 0 LINE",
"874 68 LINE",
"516 68 LINE",
"516 316 LINE",
"845 316 LINE",
"845 384 LINE",
"516 384 LINE",
"516 632 LINE",
"874 632 LINE"
);
}
);
width = 924;
}
);
leftKerningGroup = A;
note = AE;
rightKerningGroup = E;
rightMetricsKey = E;
unicode = 00C6;
},
{
glyphname = Eth;
lastChange = "2018-04-19 06:43:30 +0000";
layers = (
{
components = (
{
name = D;
transform = "{1, 0, 0, 1, 45, 0}";
}
);
layerId = "39D11A97-A6D9-4B52-A6F5-15D5E4373676";
paths = (
{
closed = 1;
nodes = (
"35 318 LINE",
"370 318 LINE",
"370 384 LINE",
"35 384 LINE"
);
}
);
width = 706;
},
{
components = (
{
name = D;
transform = "{1, 0, 0, 1, 45, 0}";
}
);
layerId = "D6105F7E-CAE1-4F7B-A52E-8AA6E6082DF8";
paths = (
{
closed = 1;
nodes = (
"35 318 LINE",
"370 318 LINE",
"370 384 LINE",
"35 384 LINE"
);
}
);
width = 706;
}
);
note = Eth;
rightKerningGroup = O;
unicode = 00D0;
},
{
glyphname = Dcroat;
lastChange = "2018-04-19 06:43:30 +0000";
layers = (
{
components = (
{
name = D;
transform = "{1, 0, 0, 1, 45, 0}";
}
);
layerId = "39D11A97-A6D9-4B52-A6F5-15D5E4373676";
paths = (
{
closed = 1;
nodes = (
"35 318 LINE",
"370 318 LINE",
"370 384 LINE",
"35 384 LINE"
);
}
);
width = 706;
},
{
components = (
{
name = D;
transform = "{1, 0, 0, 1, 45, 0}";
}
);
layerId = "D6105F7E-CAE1-4F7B-A52E-8AA6E6082DF8";
paths = (
{
closed = 1;
nodes = (
"35 318 LINE",
"370 318 LINE",
"370 384 LINE",
"35 384 LINE"
);
}
);
width = 706;
}
);
note = Dcroat;
rightKerningGroup = O;
unicode = 0110;
},
{
glyphname = Hbar;
lastChange = "2018-04-19 06:43:30 +0000";
layers = (
{
components = (
{
name = H;
transform = "{1, 0, 0, 1, 55, 0}";
}
);
layerId = "39D11A97-A6D9-4B52-A6F5-15D5E4373676";
paths = (
{
closed = 1;
nodes = (
"35 509 LINE",
"749 509 LINE",
"749 569 LINE",
"35 569 LINE"
);
}
);
width = 784;
},
{
components = (
{
name = H;
transform = "{1, 0, 0, 1, 55, 0}";
}
);
layerId = "D6105F7E-CAE1-4F7B-A52E-8AA6E6082DF8";
paths = (
{
closed = 1;
nodes = (
"35 509 LINE",
"749 509 LINE",
"749 569 LINE",
"35 569 LINE"
);
}
);
width = 784;
}
);
note = Hbar;
unicode = 0126;
},
{
glyphname = Lslash;
lastChange = "2018-04-19 06:43:30 +0000";
layers = (
{
components = (
{
name = L;
transform = "{1, 0, 0, 1, 20, 0}";
}
);
layerId = "39D11A97-A6D9-4B52-A6F5-15D5E4373676";
paths = (
{
closed = 1;
nodes = (
"0 210 LINE",
"296 410 LINE",
"296 480 LINE",
"0 280 LINE"
);
}
);
width = 562;
},
{
components = (
{
name = L;
transform = "{1, 0, 0, 1, 20, 0}";
}
);
layerId = "D6105F7E-CAE1-4F7B-A52E-8AA6E6082DF8";
paths = (
{
closed = 1;
nodes = (
"0 210 LINE",
"296 410 LINE",
"296 480 LINE",
"0 280 LINE"
);
}
);
width = 562;
}
);
note = Lslash;
rightKerningGroup = L;
unicode = 0141;
},
{
glyphname = Eng;
lastChange = "2018-04-19 06:43:30 +0000";
layers = (
{
layerId = "39D11A97-A6D9-4B52-A6F5-15D5E4373676";
paths = (
{
closed = 1;
nodes = (
"518 124 LINE",
"516 124 LINE",
"154 700 LINE",
"80 700 LINE",
"80 0 LINE",
"152 0 LINE",
"152 576 LINE",
"154 576 LINE",
"516 0 LINE",
"590 0 LINE",
"590 700 LINE",
"518 700 LINE"
);
},
{
closed = 1;
nodes = (
"499 -218 LINE",
"590 -127 LINE",
"590 98 LINE",
"516 98 LINE",
"516 -103 LINE",
"466 -152 LINE",
"366 -152 LINE",
"366 -218 LINE"
);
}
);
width = 670;
},
{
layerId = "D6105F7E-CAE1-4F7B-A52E-8AA6E6082DF8";
paths = (
{
closed = 1;
nodes = (
"518 124 LINE",
"516 124 LINE",
"154 700 LINE",
"80 700 LINE",
"80 0 LINE",
"152 0 LINE",
"152 576 LINE",
"154 576 LINE",
"516 0 LINE",
"590 0 LINE",
"590 700 LINE",
"518 700 LINE"
);
},
{
closed = 1;
nodes = (
"499 -218 LINE",
"590 -127 LINE",
"590 98 LINE",
"516 98 LINE",
"516 -103 LINE",
"466 -152 LINE",
"366 -152 LINE",
"366 -218 LINE"
);
}
);
width = 670;
}
);
leftMetricsKey = N;
note = Eng;
rightMetricsKey = N;
unicode = 014A;
},
{
glyphname = Oslash;
lastChange = "2018-04-19 06:43:30 +0000";
layers = (
{
background = {
paths = (
{
closed = 1;
nodes = (
"38 -30 LINE",
"116 -30 LINE",
"650 730 LINE",
"572 730 LINE"
);
}
);
};
components = (
{
name = O;
}
);
layerId = "39D11A97-A6D9-4B52-A6F5-15D5E4373676";
paths = (
{
closed = 1;
nodes = (
"35 -30 LINE",
"113 -30 LINE",
"653 730 LINE",
"575 730 LINE"
);
}
);
width = 688;
},
{
background = {
paths = (
{
closed = 1;
nodes = (
"38 -30 LINE",
"116 -30 LINE",
"650 730 LINE",
"572 730 LINE"
);
}
);
};
components = (
{
name = O;
}
);
layerId = "D6105F7E-CAE1-4F7B-A52E-8AA6E6082DF8";
paths = (
{
closed = 1;
nodes = (
"35 -30 LINE",
"113 -30 LINE",
"653 730 LINE",
"575 730 LINE"
);
}
);
width = 688;
}
);
leftKerningGroup = O;
note = Oslash;
rightKerningGroup = O;
unicode = 00D8;
},
{
glyphname = OE;
lastChange = "2018-04-19 06:43:30 +0000";
layers = (
{
background = {
paths = (
{
closed = 1;
nodes = (
"478 0 LINE",
"608 130 LINE",
"608 570 LINE",
"478 700 LINE",
"180 700 LINE",
"70 590 LINE",
"70 110 LINE",
"180 0 LINE"
);
},
{
closed = 1;
nodes = (
"146 135 LINE",
"146 565 LINE",
"214 632 LINE",
"454 632 LINE",
"532 555 LINE",
"532 145 LINE",
"454 68 LINE",
"214 68 LINE"
);
},
{
closed = 1;
nodes = (
"972 0 LINE",
"972 68 LINE",
"608 68 LINE",
"608 316 LINE",
"943 316 LINE",
"943 384 LINE",
"608 384 LINE",
"608 632 LINE",
"972 632 LINE",
"972 700 LINE",
"542 700 LINE",
"542 603 LINE",
"532 585 LINE",
"532 88 LINE",
"542 77 LINE",
"542 0 LINE"
);
}
);
};
layerId = "39D11A97-A6D9-4B52-A6F5-15D5E4373676";
paths = (
{
closed = 1;
nodes = (
"478 0 LINE",
"608 130 LINE",
"608 570 LINE",
"478 700 LINE",
"180 700 LINE",
"70 590 LINE",
"70 110 LINE",
"180 0 LINE"
);
},
{
closed = 1;
nodes = (
"146 135 LINE",
"146 565 LINE",
"214 632 LINE",
"454 632 LINE",
"532 555 LINE",
"532 145 LINE",
"454 68 LINE",
"214 68 LINE"
);
},
{
closed = 1;
nodes = (
"966 0 LINE",
"966 68 LINE",
"608 68 LINE",
"608 316 LINE",
"937 316 LINE",
"937 384 LINE",
"608 384 LINE",
"608 632 LINE",
"966 632 LINE",
"966 700 LINE",
"542 700 LINE",
"542 603 LINE",
"532 585 LINE",
"532 88 LINE",
"542 77 LINE",
"542 0 LINE"
);
}
);
width = 1016;
},
{
background = {
paths = (
{
closed = 1;
nodes = (
"478 0 LINE",
"608 130 LINE",
"608 570 LINE",
"478 700 LINE",
"180 700 LINE",
"70 590 LINE",
"70 110 LINE",
"180 0 LINE"
);
},
{
closed = 1;
nodes = (
"146 135 LINE",
"146 565 LINE",
"214 632 LINE",
"454 632 LINE",
"532 555 LINE",
"532 145 LINE",
"454 68 LINE",
"214 68 LINE"
);
},
{
closed = 1;
nodes = (
"972 0 LINE",
"972 68 LINE",
"608 68 LINE",
"608 316 LINE",
"943 316 LINE",
"943 384 LINE",
"608 384 LINE",
"608 632 LINE",
"972 632 LINE",
"972 700 LINE",
"542 700 LINE",
"542 603 LINE",
"532 585 LINE",
"532 88 LINE",
"542 77 LINE",
"542 0 LINE"
);
}
);
};
layerId = "D6105F7E-CAE1-4F7B-A52E-8AA6E6082DF8";
paths = (
{
closed = 1;
nodes = (
"478 0 LINE",
"608 130 LINE",
"608 570 LINE",
"478 700 LINE",
"180 700 LINE",
"70 590 LINE",
"70 110 LINE",
"180 0 LINE"
);
},
{
closed = 1;
nodes = (
"146 135 LINE",
"146 565 LINE",
"214 632 LINE",
"454 632 LINE",
"532 555 LINE",
"532 145 LINE",
"454 68 LINE",
"214 68 LINE"
);
},
{
closed = 1;
nodes = (
"966 0 LINE",
"966 68 LINE",
"608 68 LINE",
"608 316 LINE",
"937 316 LINE",
"937 384 LINE",
"608 384 LINE",
"608 632 LINE",
"966 632 LINE",
"966 700 LINE",
"542 700 LINE",
"542 603 LINE",
"532 585 LINE",
"532 88 LINE",
"542 77 LINE",
"542 0 LINE"
);
}
);
width = 1016;
}
);
leftKerningGroup = O;
leftMetricsKey = O;
note = OE;
rightKerningGroup = E;
rightMetricsKey = E;
unicode = 0152;
},
{
glyphname = Thorn;
lastChange = "2018-04-19 06:43:30 +0000";
layers = (
{
background = {
paths = (
{
closed = 0;
nodes = (
"156 145 LINE",
"479 145 LINE",
"572 238 LINE",
"572 463 LINE",
"480 555 LINE",
"80 555 LINE"
);
},
{
closed = 1;
nodes = (
"156 489 LINE",
"448 489 LINE",
"498 440 LINE",
"498 260 LINE",
"448 211 LINE",
"156 211 LINE"
);
}
);
};
layerId = "39D11A97-A6D9-4B52-A6F5-15D5E4373676";
paths = (
{
closed = 1;
nodes = (
"156 0 LINE",
"156 145 LINE",
"479 145 LINE",
"572 238 LINE",
"572 463 LINE",
"480 555 LINE",
"80 555 LINE",
"80 0 LINE"
);
},
{
closed = 1;
nodes = (
"156 489 LINE",
"448 489 LINE",
"498 440 LINE",
"498 260 LINE",
"448 211 LINE",
"156 211 LINE"
);
},
{
closed = 1;
nodes = (
"80 479 LINE",
"156 479 LINE",
"156 700 LINE",
"80 700 LINE"
);
}
);
width = 622;
},
{
background = {
paths = (
{
closed = 0;
nodes = (
"156 145 LINE",
"479 145 LINE",
"572 238 LINE",
"572 463 LINE",
"480 555 LINE",
"80 555 LINE"
);
},
{
closed = 1;
nodes = (
"156 489 LINE",
"448 489 LINE",
"498 440 LINE",
"498 260 LINE",
"448 211 LINE",
"156 211 LINE"
);
}
);
};
layerId = "D6105F7E-CAE1-4F7B-A52E-8AA6E6082DF8";
paths = (
{
closed = 1;
nodes = (
"156 0 LINE",
"156 145 LINE",
"479 145 LINE",
"572 238 LINE",
"572 463 LINE",
"480 555 LINE",
"80 555 LINE",
"80 0 LINE"
);
},
{
closed = 1;
nodes = (
"156 489 LINE",
"448 489 LINE",
"498 440 LINE",
"498 260 LINE",
"448 211 LINE",
"156 211 LINE"
);
},
{
closed = 1;
nodes = (
"80 479 LINE",
"156 479 LINE",
"156 700 LINE",
"80 700 LINE"
);
}
);
width = 622;
}
);
leftMetricsKey = P;
note = Thorn;
rightMetricsKey = P;
unicode = 00DE;
},
{
glyphname = Germandbls;
lastChange = "2018-04-19 06:43:30 +0000";
layers = (
{
background = {
paths = (
{
closed = 1;
nodes = (
"156 0 LINE",
"156 592 LINE",
"201 636 LINE",
"546 636 LINE",
"546 700 LINE",
"169 700 LINE",
"82 613 LINE",
"82 0 LINE"
);
},
{
closed = 1;
nodes = (
"519 392 LINE",
"413 392 LINE",
"546 636 LINE",
"468 636 LINE",
"339 398 LINE",
"339 330 LINE",
"487 330 LINE",
"527 290 LINE",
"527 103 LINE",
"487 64 LINE",
"363 64 LINE",
"323 103 LINE",
"323 144 LINE",
"251 144 LINE",
"251 80 LINE",
"331 0 LINE",
"519 0 LINE",
"601 82 LINE",
"601 310 LINE"
);
}
);
};
layerId = "39D11A97-A6D9-4B52-A6F5-15D5E4373676";
paths = (
{
closed = 1;
nodes = (
"156 0 LINE",
"156 588 LINE",
"201 632 LINE",
"554 632 LINE",
"554 700 LINE",
"167 700 LINE",
"80 613 LINE",
"80 0 LINE"
);
},
{
closed = 1;
nodes = (
"529 392 LINE",
"423 392 LINE",
"554 632 LINE",
"474 632 LINE",
"349 402 LINE",
"349 326 LINE",
"495 326 LINE",
"535 286 LINE",
"535 105 LINE",
"495 66 LINE",
"373 66 LINE",
"333 105 LINE",
"333 144 LINE",
"259 144 LINE",
"259 80 LINE",
"339 0 LINE",
"529 0 LINE",
"611 82 LINE",
"611 310 LINE"
);
}
);
width = 666;
},
{
background = {
paths = (
{
closed = 1;
nodes = (
"156 0 LINE",
"156 592 LINE",
"201 636 LINE",
"546 636 LINE",
"546 700 LINE",
"169 700 LINE",
"82 613 LINE",
"82 0 LINE"
);
},
{
closed = 1;
nodes = (
"519 392 LINE",
"413 392 LINE",
"546 636 LINE",
"468 636 LINE",
"339 398 LINE",
"339 330 LINE",
"487 330 LINE",
"527 290 LINE",
"527 103 LINE",
"487 64 LINE",
"363 64 LINE",
"323 103 LINE",
"323 144 LINE",
"251 144 LINE",
"251 80 LINE",
"331 0 LINE",
"519 0 LINE",
"601 82 LINE",
"601 310 LINE"
);
}
);
};
layerId = "D6105F7E-CAE1-4F7B-A52E-8AA6E6082DF8";
paths = (
{
closed = 1;
nodes = (
"156 0 LINE",
"156 588 LINE",
"201 632 LINE",
"554 632 LINE",
"554 700 LINE",
"167 700 LINE",
"80 613 LINE",
"80 0 LINE"
);
},
{
closed = 1;
nodes = (
"529 392 LINE",
"423 392 LINE",
"554 632 LINE",
"474 632 LINE",
"349 402 LINE",
"349 326 LINE",
"495 326 LINE",
"535 286 LINE",
"535 105 LINE",
"495 66 LINE",
"373 66 LINE",
"333 105 LINE",
"333 144 LINE",
"259 144 LINE",
"259 80 LINE",
"339 0 LINE",
"529 0 LINE",
"611 82 LINE",
"611 310 LINE"
);
}
);
width = 666;
}
);
leftMetricsKey = H;
note = uni1E9E;
unicode = 1E9E;
},
{
glyphname = Schwa;
lastChange = "2018-04-19 06:43:30 +0000";
layers = (
{
background = {
paths = (
{
closed = 1;
nodes = (
"196 700 LINE",
"67 571 LINE",
"67 483 LINE",
"143 483 LINE",
"143 563 LINE",
"213 632 LINE",
"472 632 LINE",
"542 563 LINE",
"542 381 LINE",
"67 381 LINE",
"67 129 LINE",
"196 0 LINE",
"489 0 LINE",
"618 129 LINE",
"618 571 LINE",
"489 700 LINE"
);
},
{
closed = 1;
nodes = (
"542 137 LINE",
"472 68 LINE",
"213 68 LINE",
"143 137 LINE",
"143 315 LINE",
"542 315 LINE"
);
}
);
};
layerId = "39D11A97-A6D9-4B52-A6F5-15D5E4373676";
paths = (
{
closed = 1;
nodes = (
"199 700 LINE",
"70 571 LINE",
"70 483 LINE",
"146 483 LINE",
"146 545 LINE",
"234 632 LINE",
"464 632 LINE",
"552 545 LINE",
"552 382 LINE",
"70 382 LINE",
"70 129 LINE",
"199 0 LINE",
"499 0 LINE",
"628 129 LINE",
"628 571 LINE",
"499 700 LINE"
);
},
{
closed = 1;
nodes = (
"552 157 LINE",
"462 68 LINE",
"236 68 LINE",
"146 157 LINE",
"146 314 LINE",
"552 314 LINE"
);
}
);
width = 698;
},
{
background = {
paths = (
{
closed = 1;
nodes = (
"196 700 LINE",
"67 571 LINE",
"67 483 LINE",
"143 483 LINE",
"143 563 LINE",
"213 632 LINE",
"472 632 LINE",
"542 563 LINE",
"542 381 LINE",
"67 381 LINE",
"67 129 LINE",
"196 0 LINE",
"489 0 LINE",
"618 129 LINE",
"618 571 LINE",
"489 700 LINE"
);
},
{
closed = 1;
nodes = (
"542 137 LINE",
"472 68 LINE",
"213 68 LINE",
"143 137 LINE",
"143 315 LINE",
"542 315 LINE"
);
}
);
};
layerId = "D6105F7E-CAE1-4F7B-A52E-8AA6E6082DF8";
paths = (
{
closed = 1;
nodes = (
"199 700 LINE",
"70 571 LINE",
"70 483 LINE",
"146 483 LINE",
"146 545 LINE",
"234 632 LINE",
"464 632 LINE",
"552 545 LINE",
"552 382 LINE",
"70 382 LINE",
"70 129 LINE",
"199 0 LINE",
"499 0 LINE",
"628 129 LINE",
"628 571 LINE",
"499 700 LINE"
);
},
{
closed = 1;
nodes = (
"552 157 LINE",
"462 68 LINE",
"236 68 LINE",
"146 157 LINE",
"146 314 LINE",
"552 314 LINE"
);
}
);
width = 698;
}
);
note = uni018F;
unicode = 018F;
},
{
glyphname = Tbar;
lastChange = "2018-04-19 06:43:30 +0000";
layers = (
{
components = (
{
name = T;
}
);
layerId = "39D11A97-A6D9-4B52-A6F5-15D5E4373676";
paths = (
{
closed = 1;
nodes = (
"493 301 LINE",
"493 363 LINE",
"79 363 LINE",
"79 301 LINE"
);
}
);
width = 560;
},
{
associatedMasterId = "39D11A97-A6D9-4B52-A6F5-15D5E4373676";
layerId = "8AF6BA7E-4672-4BE4-A9AE-4DB948958C2C";
name = "new Layer";
width = 600;
},
{
associatedMasterId = "39D11A97-A6D9-4B52-A6F5-15D5E4373676";
layerId = "7F6AF056-48B6-4F53-BC9A-D34BFBE15044";
name = "new Layer";
width = 600;
},
{
associatedMasterId = "39D11A97-A6D9-4B52-A6F5-15D5E4373676";
layerId = "F73E8325-8E12-4C51-8F58-F416F66A4A1B";
name = "new Layer";
width = 600;
},
{
components = (
{
name = T;
}
);
layerId = "D6105F7E-CAE1-4F7B-A52E-8AA6E6082DF8";
paths = (
{
closed = 1;
nodes = (
"493 301 LINE",
"493 363 LINE",
"79 363 LINE",
"79 301 LINE"
);
}
);
width = 560;
},
{
associatedMasterId = "D6105F7E-CAE1-4F7B-A52E-8AA6E6082DF8";
layerId = "CCEC87D2-BDDB-4BB0-836F-89AA69FD70A4";
name = "new Layer";
width = 600;
},
{
associatedMasterId = "D6105F7E-CAE1-4F7B-A52E-8AA6E6082DF8";
layerId = "77C5EE56-9A9F-49D7-8F19-2FEEB456554D";
name = "new Layer";
width = 600;
},
{
associatedMasterId = "D6105F7E-CAE1-4F7B-A52E-8AA6E6082DF8";
layerId = "E3B642DC-BD26-4568-8D17-3487E48E46DF";
name = "new Layer";
width = 600;
}
);
leftKerningGroup = T;
leftMetricsKey = T;
note = Tbar;
rightKerningGroup = T;
rightMetricsKey = T;
unicode = 0166;
},
{
glyphname = "alpha-latin";
lastChange = "2018-04-19 06:43:30 +0000";
layers = (
{
background = {
paths = (
{
closed = 1;
nodes = (
"433 0 LINE",
"505 0 LINE",
"505 498 LINE",
"431 498 LINE",
"431 426 LINE",
"349 498 LINE",
"157 498 LINE",
"65 406 LINE",
"65 92 LINE",
"157 0 LINE",
"342 0 LINE",
"433 91 LINE"
);
},
{
closed = 1;
nodes = (
"326 66 LINE",
"189 66 LINE",
"139 115 LINE",
"139 383 LINE",
"189 432 LINE",
"335 432 LINE",
"431 348 LINE",
"431 171 LINE"
);
}
);
};
layerId = "39D11A97-A6D9-4B52-A6F5-15D5E4373676";
paths = (
{
closed = 1;
nodes = (
"505 498 LINE",
"433 498 LINE",
"433 432 LINE",
"356 498 LINE",
"157 498 LINE",
"65 406 LINE",
"65 92 LINE",
"157 0 LINE",
"342 0 LINE",
"433 91 LINE",
"433 49 LINE",
"476 0 LINE",
"575 0 LINE",
"575 62 LINE",
"505 62 LINE"
);
},
{
closed = 1;
nodes = (
"326 66 LINE",
"189 66 LINE",
"139 115 LINE",
"139 383 LINE",
"189 432 LINE",
"340 432 LINE",
"431 354 LINE",
"431 171 LINE"
);
}
);
width = 600;
},
{
background = {
paths = (
{
closed = 1;
nodes = (
"433 0 LINE",
"505 0 LINE",
"505 498 LINE",
"431 498 LINE",
"431 426 LINE",
"349 498 LINE",
"157 498 LINE",
"65 406 LINE",
"65 92 LINE",
"157 0 LINE",
"342 0 LINE",
"433 91 LINE"
);
},
{
closed = 1;
nodes = (
"326 66 LINE",
"189 66 LINE",
"139 115 LINE",
"139 383 LINE",
"189 432 LINE",
"335 432 LINE",
"431 348 LINE",
"431 171 LINE"
);
}
);
};
layerId = "D6105F7E-CAE1-4F7B-A52E-8AA6E6082DF8";
paths = (
{
closed = 1;
nodes = (
"505 498 LINE",
"433 498 LINE",
"433 432 LINE",
"356 498 LINE",
"157 498 LINE",
"65 406 LINE",
"65 92 LINE",
"157 0 LINE",
"342 0 LINE",
"433 91 LINE",
"433 49 LINE",
"476 0 LINE",
"575 0 LINE",
"575 62 LINE",
"505 62 LINE"
);
},
{
closed = 1;
nodes = (
"326 66 LINE",
"189 66 LINE",
"139 115 LINE",
"139 383 LINE",
"189 432 LINE",
"340 432 LINE",
"431 354 LINE",
"431 171 LINE"
);
}
);
width = 600;
}
);
leftKerningGroup = o;
note = ascript;
unicode = 0251;
},
{
glyphname = ae;
lastChange = "2018-04-19 06:43:30 +0000";
layers = (
{
anchors = (
{
name = bottom;
position = "{442, 0}";
},
{
name = top;
position = "{449, 498}";
}
);
background = {
paths = (
{
closed = 1;
nodes = (
"318 0 LINE",
"410 88 LINE",
"410 100 LINE",
"482 100 LINE",
"482 406 LINE",
"390 498 LINE",
"142 498 LINE",
"50 406 LINE",
"50 344 LINE",
"124 344 LINE",
"124 385 LINE",
"174 434 LINE",
"358 434 LINE",
"408 385 LINE",
"408 290 LINE",
"132 290 LINE",
"50 209 LINE",
"50 82 LINE",
"132 0 LINE"
);
},
{
closed = 1;
nodes = (
"124 103 LINE",
"124 187 LINE",
"164 226 LINE",
"408 226 LINE",
"408 165 LINE",
"303 64 LINE",
"164 64 LINE"
);
},
{
closed = 1;
nodes = (
"751 0 LINE",
"843 92 LINE",
"843 154 LINE",
"769 154 LINE",
"769 115 LINE",
"719 66 LINE",
"532 66 LINE",
"482 115 LINE",
"482 227 LINE",
"843 227 LINE",
"843 406 LINE",
"751 498 LINE",
"500 498 LINE",
"408 406 LINE",
"408 92 LINE",
"500 0 LINE"
);
},
{
closed = 1;
nodes = (
"482 383 LINE",
"532 432 LINE",
"719 432 LINE",
"769 383 LINE",
"769 291 LINE",
"482 291 LINE"
);
}
);
};
layerId = "39D11A97-A6D9-4B52-A6F5-15D5E4373676";
paths = (
{
closed = 1;
nodes = (
"338 0 LINE",
"482 144 LINE",
"482 406 LINE",
"390 498 LINE",
"156 498 LINE",
"64 406 LINE",
"64 344 LINE",
"138 344 LINE",
"138 385 LINE",
"188 434 LINE",
"358 434 LINE",
"408 385 LINE",
"408 290 LINE",
"142 290 LINE",
"60 209 LINE",
"60 82 LINE",
"142 0 LINE"
);
},
{
closed = 1;
nodes = (
"134 103 LINE",
"134 187 LINE",
"174 226 LINE",
"408 226 LINE",
"408 159 LINE",
"313 64 LINE",
"174 64 LINE"
);
},
{
closed = 1;
nodes = (
"741 0 LINE",
"833 92 LINE",
"833 154 LINE",
"759 154 LINE",
"759 115 LINE",
"709 66 LINE",
"532 66 LINE",
"482 115 LINE",
"482 227 LINE",
"833 227 LINE",
"833 406 LINE",
"741 498 LINE",
"500 498 LINE",
"408 406 LINE",
"408 92 LINE",
"500 0 LINE"
);
},
{
closed = 1;
nodes = (
"482 383 LINE",
"532 432 LINE",
"709 432 LINE",
"759 383 LINE",
"759 291 LINE",
"482 291 LINE"
);
}
);
width = 893;
},
{
anchors = (
{
name = bottom;
position = "{442, 0}";
},
{
name = top;
position = "{449, 498}";
}
);
background = {
paths = (
{
closed = 1;
nodes = (
"318 0 LINE",
"410 88 LINE",
"410 100 LINE",
"482 100 LINE",
"482 406 LINE",
"390 498 LINE",
"142 498 LINE",
"50 406 LINE",
"50 344 LINE",
"124 344 LINE",
"124 385 LINE",
"174 434 LINE",
"358 434 LINE",
"408 385 LINE",
"408 290 LINE",
"132 290 LINE",
"50 209 LINE",
"50 82 LINE",
"132 0 LINE"
);
},
{
closed = 1;
nodes = (
"124 103 LINE",
"124 187 LINE",
"164 226 LINE",
"408 226 LINE",
"408 165 LINE",
"303 64 LINE",
"164 64 LINE"
);
},
{
closed = 1;
nodes = (
"751 0 LINE",
"843 92 LINE",
"843 154 LINE",
"769 154 LINE",
"769 115 LINE",
"719 66 LINE",
"532 66 LINE",
"482 115 LINE",
"482 227 LINE",
"843 227 LINE",
"843 406 LINE",
"751 498 LINE",
"500 498 LINE",
"408 406 LINE",
"408 92 LINE",
"500 0 LINE"
);
},
{
closed = 1;
nodes = (
"482 383 LINE",
"532 432 LINE",
"719 432 LINE",
"769 383 LINE",
"769 291 LINE",
"482 291 LINE"
);
}
);
};
layerId = "D6105F7E-CAE1-4F7B-A52E-8AA6E6082DF8";
paths = (
{
closed = 1;
nodes = (
"338 0 LINE",
"482 144 LINE",
"482 406 LINE",
"390 498 LINE",
"156 498 LINE",
"64 406 LINE",
"64 344 LINE",
"138 344 LINE",
"138 385 LINE",
"188 434 LINE",
"358 434 LINE",
"408 385 LINE",
"408 290 LINE",
"142 290 LINE",
"60 209 LINE",
"60 82 LINE",
"142 0 LINE"
);
},
{
closed = 1;
nodes = (
"134 103 LINE",
"134 187 LINE",
"174 226 LINE",
"408 226 LINE",
"408 159 LINE",
"313 64 LINE",
"174 64 LINE"
);
},
{
closed = 1;
nodes = (
"741 0 LINE",
"833 92 LINE",
"833 154 LINE",
"759 154 LINE",
"759 115 LINE",
"709 66 LINE",
"532 66 LINE",
"482 115 LINE",
"482 227 LINE",
"833 227 LINE",
"833 406 LINE",
"741 498 LINE",
"500 498 LINE",
"408 406 LINE",
"408 92 LINE",
"500 0 LINE"
);
},
{
closed = 1;
nodes = (
"482 383 LINE",
"532 432 LINE",
"709 432 LINE",
"759 383 LINE",
"759 291 LINE",
"482 291 LINE"
);
}
);
width = 893;
}
);
leftKerningGroup = a;
leftMetricsKey = a;
note = ae;
rightKerningGroup = e;
rightMetricsKey = e;
unicode = 00E6;
},
{
glyphname = eth;
lastChange = "2018-04-19 06:43:30 +0000";
layers = (
{
background = {
paths = (
{
closed = 1;
nodes = (
"212 700 LINE",
"212 638 LINE",
"331 638 LINE",
"447 449 LINE",
"447 367 LINE",
"366 438 LINE",
"157 438 LINE",
"65 346 LINE",
"65 92 LINE",
"157 0 LINE",
"431 0 LINE",
"523 92 LINE",
"523 459 LINE",
"376 700 LINE"
);
},
{
closed = 1;
nodes = (
"397 68 LINE",
"191 68 LINE",
"141 117 LINE",
"141 321 LINE",
"191 370 LINE",
"351 370 LINE",
"447 284 LINE",
"447 117 LINE"
);
},
{
closed = 1;
nodes = (
"310 488 LINE",
"536 619 LINE",
"505 672 LINE",
"279 541 LINE"
);
}
);
};
layerId = "39D11A97-A6D9-4B52-A6F5-15D5E4373676";
paths = (
{
closed = 1;
nodes = (
"212 700 LINE",
"212 638 LINE",
"331 638 LINE",
"447 449 LINE",
"447 367 LINE",
"366 438 LINE",
"157 438 LINE",
"65 346 LINE",
"65 92 LINE",
"157 0 LINE",
"431 0 LINE",
"523 92 LINE",
"523 459 LINE",
"376 700 LINE"
);
},
{
closed = 1;
nodes = (
"397 68 LINE",
"191 68 LINE",
"141 117 LINE",
"141 321 LINE",
"191 370 LINE",
"351 370 LINE",
"447 284 LINE",
"447 117 LINE"
);
},
{
closed = 1;
nodes = (
"309 489 LINE",
"535 620 LINE",
"505 672 LINE",
"279 541 LINE"
);
}
);
width = 580;
},
{
background = {
paths = (
{
closed = 1;
nodes = (
"212 700 LINE",
"212 638 LINE",
"331 638 LINE",
"447 449 LINE",
"447 367 LINE",
"366 438 LINE",
"157 438 LINE",
"65 346 LINE",
"65 92 LINE",
"157 0 LINE",
"431 0 LINE",
"523 92 LINE",
"523 459 LINE",
"376 700 LINE"
);
},
{
closed = 1;
nodes = (
"397 68 LINE",
"191 68 LINE",
"141 117 LINE",
"141 321 LINE",
"191 370 LINE",
"351 370 LINE",
"447 284 LINE",
"447 117 LINE"
);
},
{
closed = 1;
nodes = (
"310 488 LINE",
"536 619 LINE",
"505 672 LINE",
"279 541 LINE"
);
}
);
};
layerId = "D6105F7E-CAE1-4F7B-A52E-8AA6E6082DF8";
paths = (
{
closed = 1;
nodes = (
"212 700 LINE",
"212 638 LINE",
"331 638 LINE",
"447 449 LINE",
"447 367 LINE",
"366 438 LINE",
"157 438 LINE",
"65 346 LINE",
"65 92 LINE",
"157 0 LINE",
"431 0 LINE",
"523 92 LINE",
"523 459 LINE",
"376 700 LINE"
);
},
{
closed = 1;
nodes = (
"397 68 LINE",
"191 68 LINE",
"141 117 LINE",
"141 321 LINE",
"191 370 LINE",
"351 370 LINE",
"447 284 LINE",
"447 117 LINE"
);
},
{
closed = 1;
nodes = (
"309 489 LINE",
"535 620 LINE",
"505 672 LINE",
"279 541 LINE"
);
}
);
width = 580;
}
);
note = eth;
unicode = 00F0;
},
{
glyphname = dcroat;
lastChange = "2018-04-19 06:43:30 +0000";
layers = (
{
components = (
{
name = d;
}
);
layerId = "39D11A97-A6D9-4B52-A6F5-15D5E4373676";
paths = (
{
closed = 1;
nodes = (
"585 572 LINE",
"585 632 LINE",
"295 632 LINE",
"295 572 LINE"
);
}
);
width = 590;
},
{
associatedMasterId = "39D11A97-A6D9-4B52-A6F5-15D5E4373676";
layerId = "8AF6BA7E-4672-4BE4-A9AE-4DB948958C2C";
name = "new Layer";
width = 600;
},
{
associatedMasterId = "39D11A97-A6D9-4B52-A6F5-15D5E4373676";
layerId = "99A51F82-47E0-43BF-8447-338ADA3FF528";
name = "new Layer";
width = 600;
},
{
associatedMasterId = "39D11A97-A6D9-4B52-A6F5-15D5E4373676";
layerId = "C575E3BA-6D59-4072-876C-EA40D7930C0D";
name = "new Layer";
width = 600;
},
{
components = (
{
name = d;
}
);
layerId = "D6105F7E-CAE1-4F7B-A52E-8AA6E6082DF8";
paths = (
{
closed = 1;
nodes = (
"585 572 LINE",
"585 632 LINE",
"295 632 LINE",
"295 572 LINE"
);
}
);
width = 590;
},
{
associatedMasterId = "D6105F7E-CAE1-4F7B-A52E-8AA6E6082DF8";
layerId = "7557A2EA-C0A3-47CB-BC64-BACDFCAEBC1C";
name = "new Layer";
width = 600;
},
{
associatedMasterId = "D6105F7E-CAE1-4F7B-A52E-8AA6E6082DF8";
layerId = "4B94482B-CAF5-49CC-871D-2CACE94FA346";
name = "new Layer";
width = 600;
},
{
associatedMasterId = "D6105F7E-CAE1-4F7B-A52E-8AA6E6082DF8";
layerId = "D8C7DDD8-B3DF-4B1A-857C-A364FCD1BDA0";
name = "new Layer";
width = 600;
}
);
leftKerningGroup = o;
note = dcroat;
unicode = 0111;
},
{
glyphname = hbar;
lastChange = "2018-04-19 06:43:30 +0000";
layers = (
{
components = (
{
name = h;
transform = "{1, 0, 0, 1, 15, 0}";
}
);
layerId = "39D11A97-A6D9-4B52-A6F5-15D5E4373676";
paths = (
{
closed = 1;
nodes = (
"304 572 LINE",
"304 632 LINE",
"0 632 LINE",
"0 572 LINE"
);
}
);
width = 585;
},
{
associatedMasterId = "39D11A97-A6D9-4B52-A6F5-15D5E4373676";
layerId = "8AF6BA7E-4672-4BE4-A9AE-4DB948958C2C";
name = "new Layer";
width = 600;
},
{
associatedMasterId = "39D11A97-A6D9-4B52-A6F5-15D5E4373676";
layerId = "95E7B70C-3955-4FF0-933E-B9872947184D";
name = "new Layer";
width = 600;
},
{
associatedMasterId = "39D11A97-A6D9-4B52-A6F5-15D5E4373676";
layerId = "909C3EF5-11EB-4157-886C-15B61D145ECE";
name = "new Layer";
width = 600;
},
{
components = (
{
name = h;
transform = "{1, 0, 0, 1, 15, 0}";
}
);
layerId = "D6105F7E-CAE1-4F7B-A52E-8AA6E6082DF8";
paths = (
{
closed = 1;
nodes = (
"304 572 LINE",
"304 632 LINE",
"0 632 LINE",
"0 572 LINE"
);
}
);
width = 585;
},
{
associatedMasterId = "D6105F7E-CAE1-4F7B-A52E-8AA6E6082DF8";
layerId = "B2961D78-ABA6-48CD-AD05-392B8BC589EE";
name = "new Layer";
width = 600;
},
{
associatedMasterId = "D6105F7E-CAE1-4F7B-A52E-8AA6E6082DF8";
layerId = "830110E6-9AFB-4BCD-AD3E-56001C317DD6";
name = "new Layer";
width = 600;
},
{
associatedMasterId = "D6105F7E-CAE1-4F7B-A52E-8AA6E6082DF8";
layerId = "493F2C31-5D28-44F2-82C9-2DCFC4F89F06";
name = "new Layer";
width = 600;
}
);
note = hbar;
rightKerningGroup = n;
rightMetricsKey = n;
unicode = 0127;
},
{
glyphname = idotless;
lastChange = "2018-04-19 06:43:30 +0000";
layers = (
{
anchors = (
{
name = bottom;
position = "{122, 0}";
},
{
name = ogonek;
position = "{159, 0}";
},
{
name = top;
position = "{122, 498}";
}
);
layerId = "39D11A97-A6D9-4B52-A6F5-15D5E4373676";
paths = (
{
closed = 1;
nodes = (
"159 0 LINE",
"159 498 LINE",
"85 498 LINE",
"85 0 LINE"
);
}
);
width = 244;
},
{
anchors = (
{
name = bottom;
position = "{122, 0}";
},
{
name = ogonek;
position = "{159, 0}";
},
{
name = top;
position = "{122, 498}";
}
);
layerId = "D6105F7E-CAE1-4F7B-A52E-8AA6E6082DF8";
paths = (
{
closed = 1;
nodes = (
"159 0 LINE",
"159 498 LINE",
"85 498 LINE",
"85 0 LINE"
);
}
);
width = 244;
}
);
note = dotlessi;
unicode = 0131;
},
{
glyphname = jdotless;
lastChange = "2018-04-19 06:43:30 +0000";
layers = (
{
anchors = (
{
name = bottom;
position = "{151, 0}";
},
{
name = top;
position = "{132, 498}";
}
);
layerId = "39D11A97-A6D9-4B52-A6F5-15D5E4373676";
paths = (
{
closed = 1;
nodes = (
"78 -218 LINE",
"169 -127 LINE",
"169 498 LINE",
"95 498 LINE",
"95 -103 LINE",
"45 -152 LINE",
"-55 -152 LINE",
"-55 -218 LINE"
);
}
);
width = 254;
},
{
anchors = (
{
name = bottom;
position = "{151, 0}";
},
{
name = top;
position = "{132, 498}";
}
);
layerId = "D6105F7E-CAE1-4F7B-A52E-8AA6E6082DF8";
paths = (
{
closed = 1;
nodes = (
"78 -218 LINE",
"169 -127 LINE",
"169 498 LINE",
"95 498 LINE",
"95 -103 LINE",
"45 -152 LINE",
"-55 -152 LINE",
"-55 -218 LINE"
);
}
);
width = 254;
}
);
leftKerningGroup = j;
note = dotlessj;
unicode = 0237;
},
{
glyphname = kgreenlandic;
lastChange = "2018-04-19 06:43:30 +0000";
layers = (
{
background = {
paths = (
{
closed = 0;
nodes = (
"301 282 LINE",
"151 282 LINE"
);
},
{
closed = 0;
nodes = (
"151 214 LINE",
"302 214 LINE"
);
},
{
closed = 0;
nodes = (
"364 250 LINE"
);
}
);
};
layerId = "39D11A97-A6D9-4B52-A6F5-15D5E4373676";
paths = (
{
closed = 1;
nodes = (
"301 282 LINE",
"151 282 LINE",
"151 498 LINE",
"75 498 LINE",
"75 0 LINE",
"151 0 LINE",
"151 214 LINE",
"302 214 LINE",
"456 0 LINE",
"542 0 LINE",
"364 250 LINE",
"527 498 LINE",
"441 498 LINE"
);
}
);
width = 562;
},
{
background = {
paths = (
{
closed = 0;
nodes = (
"301 282 LINE",
"151 282 LINE"
);
},
{
closed = 0;
nodes = (
"151 214 LINE",
"302 214 LINE"
);
},
{
closed = 0;
nodes = (
"364 250 LINE"
);
}
);
};
layerId = "D6105F7E-CAE1-4F7B-A52E-8AA6E6082DF8";
paths = (
{
closed = 1;
nodes = (
"301 282 LINE",
"151 282 LINE",
"151 498 LINE",
"75 498 LINE",
"75 0 LINE",
"151 0 LINE",
"151 214 LINE",
"302 214 LINE",
"456 0 LINE",
"542 0 LINE",
"364 250 LINE",
"527 498 LINE",
"441 498 LINE"
);
}
);
width = 562;
}
);
leftMetricsKey = k;
note = kgreenlandic;
rightKerningGroup = k;
unicode = 0138;
},
{
glyphname = lslash;
lastChange = "2018-04-19 06:43:30 +0000";
layers = (
{
background = {
paths = (
{
closed = 1;
nodes = (
"9 226 LINE",
"283 426 LINE",
"283 496 LINE",
"9 296 LINE"
);
}
);
};
components = (
{
name = l;
transform = "{1, 0, 0, 1, 20, 0}";
}
);
layerId = "39D11A97-A6D9-4B52-A6F5-15D5E4373676";
paths = (
{
closed = 1;
nodes = (
"0 218 LINE",
"274 418 LINE",
"274 488 LINE",
"0 288 LINE"
);
}
);
width = 274;
},
{
background = {
paths = (
{
closed = 1;
nodes = (
"9 226 LINE",
"283 426 LINE",
"283 496 LINE",
"9 296 LINE"
);
}
);
};
components = (
{
name = l;
transform = "{1, 0, 0, 1, 20, 0}";
}
);
layerId = "D6105F7E-CAE1-4F7B-A52E-8AA6E6082DF8";
paths = (
{
closed = 1;
nodes = (
"0 218 LINE",
"274 418 LINE",
"274 488 LINE",
"0 288 LINE"
);
}
);
width = 274;
}
);
note = lslash;
unicode = 0142;
},
{
glyphname = eng;
lastChange = "2018-04-19 06:43:30 +0000";
layers = (
{
layerId = "39D11A97-A6D9-4B52-A6F5-15D5E4373676";
paths = (
{
closed = 1;
nodes = (
"149 0 LINE",
"149 308 LINE",
"273 432 LINE",
"373 432 LINE",
"423 383 LINE",
"423 0 LINE",
"497 0 LINE",
"497 406 LINE",
"405 498 LINE",
"253 498 LINE",
"147 392 LINE",
"147 498 LINE",
"75 498 LINE",
"75 0 LINE"
);
},
{
closed = 1;
nodes = (
"406 -218 LINE",
"497 -127 LINE",
"497 198 LINE",
"423 198 LINE",
"423 -103 LINE",
"373 -152 LINE",
"273 -152 LINE",
"273 -218 LINE"
);
}
);
width = 572;
},
{
layerId = "D6105F7E-CAE1-4F7B-A52E-8AA6E6082DF8";
paths = (
{
closed = 1;
nodes = (
"149 0 LINE",
"149 308 LINE",
"273 432 LINE",
"373 432 LINE",
"423 383 LINE",
"423 0 LINE",
"497 0 LINE",
"497 406 LINE",
"405 498 LINE",
"253 498 LINE",
"147 392 LINE",
"147 498 LINE",
"75 498 LINE",
"75 0 LINE"
);
},
{
closed = 1;
nodes = (
"406 -218 LINE",
"497 -127 LINE",
"497 198 LINE",
"423 198 LINE",
"423 -103 LINE",
"373 -152 LINE",
"273 -152 LINE",
"273 -218 LINE"
);
}
);
width = 572;
}
);
leftKerningGroup = n;
note = eng;
rightKerningGroup = n;
unicode = 014B;
},
{
glyphname = oslash;
lastChange = "2018-04-19 06:43:30 +0000";
layers = (
{
background = {
paths = (
{
closed = 1;
nodes = (
"25 -50 LINE",
"103 -50 LINE",
"643 710 LINE",
"565 710 LINE"
);
}
);
};
components = (
{
name = o;
}
);
layerId = "39D11A97-A6D9-4B52-A6F5-15D5E4373676";
paths = (
{
closed = 1;
nodes = (
"15 -40 LINE",
"93 -40 LINE",
"548 538 LINE",
"470 538 LINE"
);
}
);
width = 570;
},
{
background = {
paths = (
{
closed = 1;
nodes = (
"25 -50 LINE",
"103 -50 LINE",
"643 710 LINE",
"565 710 LINE"
);
}
);
};
components = (
{
name = o;
}
);
layerId = "D6105F7E-CAE1-4F7B-A52E-8AA6E6082DF8";
paths = (
{
closed = 1;
nodes = (
"15 -40 LINE",
"93 -40 LINE",
"548 538 LINE",
"470 538 LINE"
);
}
);
width = 570;
}
);
leftKerningGroup = o;
note = oslash;
rightKerningGroup = o;
unicode = 00F8;
},
{
glyphname = oe;
lastChange = "2018-04-19 06:43:30 +0000";
layers = (
{
layerId = "39D11A97-A6D9-4B52-A6F5-15D5E4373676";
paths = (
{
closed = 1;
nodes = (
"413 0 LINE",
"505 92 LINE",
"505 406 LINE",
"413 498 LINE",
"157 498 LINE",
"65 406 LINE",
"65 92 LINE",
"157 0 LINE"
);
},
{
closed = 1;
nodes = (
"139 115 LINE",
"139 383 LINE",
"189 432 LINE",
"381 432 LINE",
"431 383 LINE",
"431 115 LINE",
"381 66 LINE",
"189 66 LINE"
);
},
{
closed = 1;
nodes = (
"764 0 LINE",
"856 92 LINE",
"856 154 LINE",
"782 154 LINE",
"782 115 LINE",
"732 66 LINE",
"555 66 LINE",
"505 115 LINE",
"505 227 LINE",
"856 227 LINE",
"856 406 LINE",
"764 498 LINE",
"523 498 LINE",
"431 406 LINE",
"431 92 LINE",
"523 0 LINE"
);
},
{
closed = 1;
nodes = (
"505 383 LINE",
"555 432 LINE",
"732 432 LINE",
"782 383 LINE",
"782 291 LINE",
"505 291 LINE"
);
}
);
width = 916;
},
{
layerId = "D6105F7E-CAE1-4F7B-A52E-8AA6E6082DF8";
paths = (
{
closed = 1;
nodes = (
"413 0 LINE",
"505 92 LINE",
"505 406 LINE",
"413 498 LINE",
"157 498 LINE",
"65 406 LINE",
"65 92 LINE",
"157 0 LINE"
);
},
{
closed = 1;
nodes = (
"139 115 LINE",
"139 383 LINE",
"189 432 LINE",
"381 432 LINE",
"431 383 LINE",
"431 115 LINE",
"381 66 LINE",
"189 66 LINE"
);
},
{
closed = 1;
nodes = (
"764 0 LINE",
"856 92 LINE",
"856 154 LINE",
"782 154 LINE",
"782 115 LINE",
"732 66 LINE",
"555 66 LINE",
"505 115 LINE",
"505 227 LINE",
"856 227 LINE",
"856 406 LINE",
"764 498 LINE",
"523 498 LINE",
"431 406 LINE",
"431 92 LINE",
"523 0 LINE"
);
},
{
closed = 1;
nodes = (
"505 383 LINE",
"555 432 LINE",
"732 432 LINE",
"782 383 LINE",
"782 291 LINE",
"505 291 LINE"
);
}
);
width = 916;
}
);
leftKerningGroup = o;
leftMetricsKey = o;
note = oe;
rightKerningGroup = e;
rightMetricsKey = e;
unicode = 0153;
},
{
glyphname = thorn;
lastChange = "2018-04-19 06:43:30 +0000";
layers = (
{
layerId = "39D11A97-A6D9-4B52-A6F5-15D5E4373676";
paths = (
{
closed = 1;
nodes = (
"147 710 LINE",
"75 710 LINE",
"75 -212 LINE",
"149 -212 LINE",
"149 72 LINE",
"231 0 LINE",
"423 0 LINE",
"515 92 LINE",
"515 406 LINE",
"423 498 LINE",
"236 498 LINE",
"147 409 LINE"
);
},
{
closed = 1;
nodes = (
"256 432 LINE",
"391 432 LINE",
"441 383 LINE",
"441 115 LINE",
"391 66 LINE",
"245 66 LINE",
"149 153 LINE",
"149 325 LINE"
);
}
);
width = 580;
},
{
layerId = "D6105F7E-CAE1-4F7B-A52E-8AA6E6082DF8";
paths = (
{
closed = 1;
nodes = (
"147 710 LINE",
"75 710 LINE",
"75 -212 LINE",
"149 -212 LINE",
"149 72 LINE",
"231 0 LINE",
"423 0 LINE",
"515 92 LINE",
"515 406 LINE",
"423 498 LINE",
"236 498 LINE",
"147 409 LINE"
);
},
{
closed = 1;
nodes = (
"256 432 LINE",
"391 432 LINE",
"441 383 LINE",
"441 115 LINE",
"391 66 LINE",
"245 66 LINE",
"149 153 LINE",
"149 325 LINE"
);
}
);
width = 580;
}
);
leftMetricsKey = p;
note = thorn;
rightKerningGroup = o;
rightMetricsKey = p;
unicode = 00FE;
},
{
glyphname = germandbls;
lastChange = "2018-04-19 06:43:30 +0000";
layers = (
{
layerId = "39D11A97-A6D9-4B52-A6F5-15D5E4373676";
paths = (
{
closed = 1;
nodes = (
"434 335 LINE",
"414 355 LINE",
"414 390 LINE",
"495 500 LINE",
"495 609 LINE",
"408 696 LINE",
"167 696 LINE",
"80 609 LINE",
"80 0 LINE",
"154 0 LINE",
"154 588 LINE",
"199 632 LINE",
"376 632 LINE",
"421 588 LINE",
"421 510 LINE",
"340 400 LINE",
"340 332 LINE",
"399 273 LINE",
"476 273 LINE",
"516 233 LINE",
"516 103 LINE",
"476 64 LINE",
"378 64 LINE",
"338 103 LINE",
"338 144 LINE",
"264 144 LINE",
"264 82 LINE",
"346 0 LINE",
"508 0 LINE",
"590 82 LINE",
"590 253 LINE",
"508 335 LINE"
);
}
);
width = 625;
},
{
layerId = "D6105F7E-CAE1-4F7B-A52E-8AA6E6082DF8";
paths = (
{
closed = 1;
nodes = (
"434 335 LINE",
"414 355 LINE",
"414 390 LINE",
"495 500 LINE",
"495 609 LINE",
"408 696 LINE",
"167 696 LINE",
"80 609 LINE",
"80 0 LINE",
"154 0 LINE",
"154 588 LINE",
"199 632 LINE",
"376 632 LINE",
"421 588 LINE",
"421 510 LINE",
"340 400 LINE",
"340 332 LINE",
"399 273 LINE",
"476 273 LINE",
"516 233 LINE",
"516 103 LINE",
"476 64 LINE",
"378 64 LINE",
"338 103 LINE",
"338 144 LINE",
"264 144 LINE",
"264 82 LINE",
"346 0 LINE",
"508 0 LINE",
"590 82 LINE",
"590 253 LINE",
"508 335 LINE"
);
}
);
width = 625;
}
);
note = uni00DF;
unicode = 00DF;
},
{
glyphname = tbar;
lastChange = "2018-04-19 06:43:30 +0000";
layers = (
{
components = (
{
name = t;
}
);
layerId = "39D11A97-A6D9-4B52-A6F5-15D5E4373676";
paths = (
{
closed = 1;
nodes = (
"350 212 LINE",
"350 272 LINE",
"30 272 LINE",
"30 212 LINE"
);
}
);
width = 397;
},
{
associatedMasterId = "39D11A97-A6D9-4B52-A6F5-15D5E4373676";
layerId = "8AF6BA7E-4672-4BE4-A9AE-4DB948958C2C";
name = "new Layer";
width = 600;
},
{
associatedMasterId = "39D11A97-A6D9-4B52-A6F5-15D5E4373676";
layerId = "26E13327-8330-4649-BEE6-6EB9E5BC37E6";
name = "new Layer";
width = 600;
},
{
associatedMasterId = "39D11A97-A6D9-4B52-A6F5-15D5E4373676";
layerId = "76AC1F11-46C0-40E2-AD3B-1629C40F4BEF";
name = "new Layer";
width = 600;
},
{
components = (
{
name = t;
}
);
layerId = "D6105F7E-CAE1-4F7B-A52E-8AA6E6082DF8";
paths = (
{
closed = 1;
nodes = (
"350 212 LINE",
"350 272 LINE",
"30 272 LINE",
"30 212 LINE"
);
}
);
width = 397;
},
{
associatedMasterId = "D6105F7E-CAE1-4F7B-A52E-8AA6E6082DF8";
layerId = "B402E141-6F24-483E-92B0-664B470D6612";
name = "new Layer";
width = 600;
},
{
associatedMasterId = "D6105F7E-CAE1-4F7B-A52E-8AA6E6082DF8";
layerId = "9311D43C-E83C-4FBC-B6EF-152230D48143";
name = "new Layer";
width = 600;
},
{
associatedMasterId = "D6105F7E-CAE1-4F7B-A52E-8AA6E6082DF8";
layerId = "52E62A53-9BC1-47FF-8362-2E585943DF25";
name = "new Layer";
width = 600;
}
);
leftKerningGroup = t;
note = tbar;
rightKerningGroup = t;
unicode = 0167;
},
{
glyphname = fi;
lastChange = "2018-04-19 06:43:30 +0000";
layers = (
{
background = {
paths = (
{
closed = 1;
nodes = (
"115 589 LINE",
"169 643 LINE",
"261 643 LINE",
"261 701 LINE",
"145 701 LINE",
"57 613 LINE",
"57 0 LINE",
"115 0 LINE",
"115 380 LINE",
"261 380 LINE",
"261 0 LINE",
"320 0 LINE",
"320 438 LINE",
"115 438 LINE"
);
}
);
};
layerId = "39D11A97-A6D9-4B52-A6F5-15D5E4373676";
paths = (
{
closed = 1;
nodes = (
"194 0 LINE",
"194 432 LINE",
"451 432 LINE",
"451 498 LINE",
"194 498 LINE",
"194 601 LINE",
"239 646 LINE",
"351 646 LINE",
"351 710 LINE",
"207 710 LINE",
"120 623 LINE",
"120 498 LINE",
"30 498 LINE",
"30 432 LINE",
"120 432 LINE",
"120 0 LINE"
);
},
{
closed = 1;
nodes = (
"505 0 LINE",
"505 498 LINE",
"431 498 LINE",
"431 0 LINE"
);
}
);
width = 580;
},
{
background = {
paths = (
{
closed = 1;
nodes = (
"115 589 LINE",
"169 643 LINE",
"261 643 LINE",
"261 701 LINE",
"145 701 LINE",
"57 613 LINE",
"57 0 LINE",
"115 0 LINE",
"115 380 LINE",
"261 380 LINE",
"261 0 LINE",
"320 0 LINE",
"320 438 LINE",
"115 438 LINE"
);
}
);
};
layerId = "D6105F7E-CAE1-4F7B-A52E-8AA6E6082DF8";
paths = (
{
closed = 1;
nodes = (
"194 0 LINE",
"194 432 LINE",
"451 432 LINE",
"451 498 LINE",
"194 498 LINE",
"194 601 LINE",
"239 646 LINE",
"351 646 LINE",
"351 710 LINE",
"207 710 LINE",
"120 623 LINE",
"120 498 LINE",
"30 498 LINE",
"30 432 LINE",
"120 432 LINE",
"120 0 LINE"
);
},
{
closed = 1;
nodes = (
"505 0 LINE",
"505 498 LINE",
"431 498 LINE",
"431 0 LINE"
);
}
);
width = 580;
}
);
leftKerningGroup = f;
leftMetricsKey = f;
note = fi;
rightMetricsKey = u;
unicode = FB01;
},
{
glyphname = fl;
lastChange = "2018-04-19 06:43:30 +0000";
layers = (
{
layerId = "39D11A97-A6D9-4B52-A6F5-15D5E4373676";
paths = (
{
closed = 1;
nodes = (
"520 0 LINE",
"520 710 LINE",
"446 710 LINE",
"446 0 LINE"
);
},
{
closed = 1;
nodes = (
"194 0 LINE",
"194 432 LINE",
"351 432 LINE",
"351 498 LINE",
"194 498 LINE",
"194 603 LINE",
"239 648 LINE",
"451 648 LINE",
"451 710 LINE",
"207 710 LINE",
"120 623 LINE",
"120 498 LINE",
"30 498 LINE",
"30 432 LINE",
"120 432 LINE",
"120 0 LINE"
);
}
);
width = 600;
},
{
layerId = "D6105F7E-CAE1-4F7B-A52E-8AA6E6082DF8";
paths = (
{
closed = 1;
nodes = (
"520 0 LINE",
"520 710 LINE",
"446 710 LINE",
"446 0 LINE"
);
},
{
closed = 1;
nodes = (
"194 0 LINE",
"194 432 LINE",
"351 432 LINE",
"351 498 LINE",
"194 498 LINE",
"194 603 LINE",
"239 648 LINE",
"451 648 LINE",
"451 710 LINE",
"207 710 LINE",
"120 623 LINE",
"120 498 LINE",
"30 498 LINE",
"30 432 LINE",
"120 432 LINE",
"120 0 LINE"
);
}
);
width = 600;
}
);
leftKerningGroup = f;
leftMetricsKey = f;
note = fl;
rightMetricsKey = l;
unicode = FB02;
},
{
color = 0;
glyphname = ordfeminine;
lastChange = "2018-04-19 06:43:30 +0000";
layers = (
{
layerId = "39D11A97-A6D9-4B52-A6F5-15D5E4373676";
paths = (
{
closed = 1;
nodes = (
"54 581 LINE",
"54 529 LINE",
"107 529 LINE",
"107 529 OFFCURVE",
"107 553 OFFCURVE",
"107 558 CURVE",
"110 562 OFFCURVE",
"141 591 OFFCURVE",
"144 594 CURVE",
"149 594 OFFCURVE",
"316 594 OFFCURVE",
"321 594 CURVE",
"323 591 OFFCURVE",
"354 562 OFFCURVE",
"357 558 CURVE",
"357 555 OFFCURVE",
"357 516 OFFCURVE",
"357 508 CURVE",
"346 508 OFFCURVE",
"122 508 OFFCURVE",
"122 508 CURVE",
"54 440 LINE",
"54 338 LINE",
"122 269 LINE",
"278 269 LINE",
"279 271 OFFCURVE",
"342 334 OFFCURVE",
"357 349 CURVE",
"357 329 OFFCURVE",
"357 269 OFFCURVE",
"357 269 CURVE",
"411 269 LINE",
"411 581 LINE",
"342 649 LINE",
"122 649 LINE"
);
},
{
closed = 1;
nodes = (
"357 446 OFFCURVE",
"357 422 OFFCURVE",
"357 419 CURVE",
"354 415 OFFCURVE",
"266 326 OFFCURVE",
"263 323 CURVE",
"258 323 OFFCURVE",
"148 323 OFFCURVE",
"144 323 CURVE",
"141 326 OFFCURVE",
"110 357 OFFCURVE",
"107 360 CURVE",
"107 364 OFFCURVE",
"107 412 OFFCURVE",
"107 417 CURVE",
"110 420 OFFCURVE",
"141 451 OFFCURVE",
"144 453 CURVE",
"149 453 OFFCURVE",
"347 453 OFFCURVE",
"357 453 CURVE"
);
}
);
width = 493;
},
{
layerId = "D6105F7E-CAE1-4F7B-A52E-8AA6E6082DF8";
paths = (
{
closed = 1;
nodes = (
"54 581 LINE",
"54 529 LINE",
"107 529 LINE",
"107 529 OFFCURVE",
"107 553 OFFCURVE",
"107 558 CURVE",
"110 562 OFFCURVE",
"141 591 OFFCURVE",
"144 594 CURVE",
"149 594 OFFCURVE",
"316 594 OFFCURVE",
"321 594 CURVE",
"323 591 OFFCURVE",
"354 562 OFFCURVE",
"357 558 CURVE",
"357 555 OFFCURVE",
"357 516 OFFCURVE",
"357 508 CURVE",
"346 508 OFFCURVE",
"122 508 OFFCURVE",
"122 508 CURVE",
"54 440 LINE",
"54 338 LINE",
"122 269 LINE",
"278 269 LINE",
"279 271 OFFCURVE",
"342 334 OFFCURVE",
"357 349 CURVE",
"357 329 OFFCURVE",
"357 269 OFFCURVE",
"357 269 CURVE",
"411 269 LINE",
"411 581 LINE",
"342 649 LINE",
"122 649 LINE"
);
},
{
closed = 1;
nodes = (
"357 446 OFFCURVE",
"357 422 OFFCURVE",
"357 419 CURVE",
"354 415 OFFCURVE",
"266 326 OFFCURVE",
"263 323 CURVE",
"258 323 OFFCURVE",
"148 323 OFFCURVE",
"144 323 CURVE",
"141 326 OFFCURVE",
"110 357 OFFCURVE",
"107 360 CURVE",
"107 364 OFFCURVE",
"107 412 OFFCURVE",
"107 417 CURVE",
"110 420 OFFCURVE",
"141 451 OFFCURVE",
"144 453 CURVE",
"149 453 OFFCURVE",
"347 453 OFFCURVE",
"357 453 CURVE"
);
}
);
width = 493;
}
);
note = ordfeminine;
unicode = 00AA;
},
{
color = 0;
glyphname = ordmasculine;
lastChange = "2018-04-19 06:43:30 +0000";
layers = (
{
layerId = "39D11A97-A6D9-4B52-A6F5-15D5E4373676";
paths = (
{
closed = 1;
nodes = (
"117 641 LINE",
"57 583 LINE",
"57 438 LINE",
"117 380 LINE",
"260 380 LINE",
"320 438 LINE",
"320 583 LINE",
"260 641 LINE"
);
},
{
closed = 1;
nodes = (
"239 430 LINE",
"138 430 LINE",
"107 459 LINE",
"107 560 LINE",
"138 591 LINE",
"239 591 LINE",
"268 560 LINE",
"268 459 LINE"
);
}
);
width = 403;
},
{
layerId = "D6105F7E-CAE1-4F7B-A52E-8AA6E6082DF8";
paths = (
{
closed = 1;
nodes = (
"117 641 LINE",
"57 583 LINE",
"57 438 LINE",
"117 380 LINE",
"260 380 LINE",
"320 438 LINE",
"320 583 LINE",
"260 641 LINE"
);
},
{
closed = 1;
nodes = (
"239 430 LINE",
"138 430 LINE",
"107 459 LINE",
"107 560 LINE",
"138 591 LINE",
"239 591 LINE",
"268 560 LINE",
"268 459 LINE"
);
}
);
width = 403;
}
);
note = ordmasculine;
unicode = 00BA;
},
{
color = 0;
glyphname = nmod;
lastChange = "2018-04-19 06:43:30 +0000";
layers = (
{
layerId = "39D11A97-A6D9-4B52-A6F5-15D5E4373676";
paths = (
{
closed = 1;
nodes = (
"410 378 LINE",
"410 397 LINE",
"392 397 LINE SMOOTH",
"368 397 OFFCURVE",
"350 405 OFFCURVE",
"350 424 CURVE SMOOTH",
"350 599 LINE SMOOTH",
"350 660 OFFCURVE",
"323 708 OFFCURVE",
"240 708 CURVE SMOOTH",
"168 708 OFFCURVE",
"128 658 OFFCURVE",
"116 601 CURVE",
"116 548 LINE",
"135 548 LINE",
"135 628 OFFCURVE",
"173 677 OFFCURVE",
"221 677 CURVE SMOOTH",
"266 677 OFFCURVE",
"281 652 OFFCURVE",
"281 595 CURVE SMOOTH",
"281 424 LINE SMOOTH",
"281 405 OFFCURVE",
"264 397 OFFCURVE",
"239 397 CURVE SMOOTH",
"229 397 LINE",
"229 378 LINE"
);
},
{
closed = 1;
nodes = (
"187 378 LINE",
"187 397 LINE",
"177 397 LINE SMOOTH",
"152 397 OFFCURVE",
"135 405 OFFCURVE",
"135 424 CURVE SMOOTH",
"135 706 LINE",
"114 706 LINE",
"17 670 LINE",
"22 652 LINE",
"30 655 OFFCURVE",
"42 659 OFFCURVE",
"50 659 CURVE SMOOTH",
"58 659 OFFCURVE",
"66 656 OFFCURVE",
"66 643 CURVE SMOOTH",
"66 424 LINE SMOOTH",
"66 405 OFFCURVE",
"48 397 OFFCURVE",
"23 397 CURVE SMOOTH",
"6 397 LINE",
"6 378 LINE"
);
}
);
width = 416;
},
{
layerId = "D6105F7E-CAE1-4F7B-A52E-8AA6E6082DF8";
paths = (
{
closed = 1;
nodes = (
"410 378 LINE",
"410 397 LINE",
"392 397 LINE SMOOTH",
"368 397 OFFCURVE",
"350 405 OFFCURVE",
"350 424 CURVE SMOOTH",
"350 599 LINE SMOOTH",
"350 660 OFFCURVE",
"323 708 OFFCURVE",
"240 708 CURVE SMOOTH",
"168 708 OFFCURVE",
"128 658 OFFCURVE",
"116 601 CURVE",
"116 548 LINE",
"135 548 LINE",
"135 628 OFFCURVE",
"173 677 OFFCURVE",
"221 677 CURVE SMOOTH",
"266 677 OFFCURVE",
"281 652 OFFCURVE",
"281 595 CURVE SMOOTH",
"281 424 LINE SMOOTH",
"281 405 OFFCURVE",
"264 397 OFFCURVE",
"239 397 CURVE SMOOTH",
"229 397 LINE",
"229 378 LINE"
);
},
{
closed = 1;
nodes = (
"187 378 LINE",
"187 397 LINE",
"177 397 LINE SMOOTH",
"152 397 OFFCURVE",
"135 405 OFFCURVE",
"135 424 CURVE SMOOTH",
"135 706 LINE",
"114 706 LINE",
"17 670 LINE",
"22 652 LINE",
"30 655 OFFCURVE",
"42 659 OFFCURVE",
"50 659 CURVE SMOOTH",
"58 659 OFFCURVE",
"66 656 OFFCURVE",
"66 643 CURVE SMOOTH",
"66 424 LINE SMOOTH",
"66 405 OFFCURVE",
"48 397 OFFCURVE",
"23 397 CURVE SMOOTH",
"6 397 LINE",
"6 378 LINE"
);
}
);
width = 416;
}
);
note = uni207F;
unicode = 207F;
},
{
glyphname = Delta;
lastChange = "2018-04-30 11:45:59 +0000";
layers = (
{
layerId = "39D11A97-A6D9-4B52-A6F5-15D5E4373676";
paths = (
{
closed = 1;
nodes = (
"270 700 LINE",
"35 58 LINE",
"35 0 LINE",
"607 0 LINE",
"607 58 LINE",
"372 700 LINE"
);
},
{
closed = 1;
nodes = (
"318 638 LINE",
"324 638 LINE",
"527 64 LINE",
"113 64 LINE"
);
}
);
width = 642;
},
{
background = {
paths = (
{
closed = 1;
nodes = (
"248 700 LINE",
"5 88 LINE",
"5 0 LINE",
"637 0 LINE",
"637 88 LINE",
"394 700 LINE"
);
},
{
closed = 1;
nodes = (
"318 566 LINE",
"324 566 LINE",
"493 112 LINE",
"149 112 LINE"
);
}
);
};
layerId = "D6105F7E-CAE1-4F7B-A52E-8AA6E6082DF8";
paths = (
{
closed = 1;
nodes = (
"248 700 LINE",
"5 88 LINE",
"5 0 LINE",
"637 0 LINE",
"637 88 LINE",
"394 700 LINE"
);
},
{
closed = 1;
nodes = (
"318 562 LINE",
"324 562 LINE",
"497 112 LINE",
"145 112 LINE"
);
}
);
width = 642;
}
);
note = Delta;
unicode = 0394;
},
{
glyphname = Omega;
lastChange = "2018-04-30 11:50:34 +0000";
layers = (
{
background = {
paths = (
{
closed = 1;
nodes = (
"501 162 LINE",
"613 274 LINE",
"613 605 LINE",
"518 700 LINE",
"173 700 LINE",
"78 605 LINE",
"78 274 LINE",
"190 162 LINE",
"190 64 LINE",
"60 64 LINE",
"60 0 LINE",
"260 0 LINE",
"260 188 LINE",
"152 296 LINE",
"152 578 LINE",
"208 634 LINE",
"483 634 LINE",
"539 578 LINE",
"539 296 LINE",
"431 188 LINE",
"431 0 LINE",
"631 0 LINE",
"631 64 LINE",
"501 64 LINE"
);
}
);
};
layerId = "39D11A97-A6D9-4B52-A6F5-15D5E4373676";
paths = (
{
closed = 1;
nodes = (
"501 162 LINE",
"613 274 LINE",
"613 605 LINE",
"518 700 LINE",
"173 700 LINE",
"78 605 LINE",
"78 274 LINE",
"190 162 LINE",
"190 64 LINE",
"60 64 LINE",
"60 0 LINE",
"260 0 LINE",
"260 188 LINE",
"152 296 LINE",
"152 578 LINE",
"208 634 LINE",
"483 634 LINE",
"539 578 LINE",
"539 296 LINE",
"431 188 LINE",
"431 0 LINE",
"631 0 LINE",
"631 64 LINE",
"501 64 LINE"
);
}
);
width = 691;
},
{
background = {
paths = (
{
closed = 1;
nodes = (
"531 166 LINE",
"643 278 LINE",
"643 589 LINE",
"532 700 LINE",
"159 700 LINE",
"48 589 LINE",
"48 278 LINE",
"160 166 LINE",
"160 116 LINE",
"30 116 LINE",
"30 0 LINE",
"290 0 LINE",
"290 212 LINE",
"182 320 LINE",
"182 542 LINE",
"222 582 LINE",
"469 582 LINE",
"509 542 LINE",
"509 320 LINE",
"401 212 LINE",
"401 0 LINE",
"661 0 LINE",
"661 116 LINE",
"531 116 LINE"
);
}
);
};
layerId = "D6105F7E-CAE1-4F7B-A52E-8AA6E6082DF8";
paths = (
{
closed = 1;
nodes = (
"531 166 LINE",
"643 278 LINE",
"643 584 LINE",
"527 700 LINE",
"164 700 LINE",
"48 584 LINE",
"48 278 LINE",
"160 166 LINE",
"160 114 LINE",
"30 114 LINE",
"30 0 LINE",
"290 0 LINE",
"290 207 LINE",
"184 314 LINE",
"184 540 LINE",
"226 582 LINE",
"465 582 LINE",
"507 540 LINE",
"507 314 LINE",
"401 207 LINE",
"401 0 LINE",
"661 0 LINE",
"661 114 LINE",
"531 114 LINE"
);
}
);
width = 691;
}
);
note = Omega;
unicode = 03A9;
},
{
glyphname = mu;
lastChange = "2018-04-30 11:51:50 +0000";
layers = (
{
layerId = "39D11A97-A6D9-4B52-A6F5-15D5E4373676";
paths = (
{
closed = 1;
nodes = (
"322 0 LINE",
"418 96 LINE",
"418 0 LINE",
"490 0 LINE",
"490 498 LINE",
"416 498 LINE",
"416 180 LINE",
"302 66 LINE",
"214 66 LINE",
"144 135 LINE",
"144 498 LINE",
"70 498 LINE",
"70 122 LINE",
"192 0 LINE"
);
},
{
closed = 1;
nodes = (
"144 -200 LINE",
"144 78 LINE",
"144 89 LINE",
"144 284 LINE",
"70 284 LINE",
"70 -200 LINE"
);
}
);
width = 565;
},
{
background = {
paths = (
{
closed = 1;
nodes = (
"386 498 LINE",
"386 216 LINE",
"288 118 LINE",
"227 118 LINE",
"174 171 LINE",
"174 498 LINE",
"40 498 LINE",
"40 138 LINE",
"178 0 LINE",
"336 0 LINE",
"388 52 LINE",
"388 0 LINE",
"520 0 LINE",
"520 498 LINE"
);
}
);
};
layerId = "D6105F7E-CAE1-4F7B-A52E-8AA6E6082DF8";
paths = (
{
closed = 1;
nodes = (
"316 0 LINE",
"398 82 LINE",
"398 0 LINE",
"522 0 LINE",
"522 498 LINE",
"390 498 LINE",
"390 212 LINE",
"292 114 LINE",
"227 114 LINE",
"172 169 LINE",
"172 498 LINE",
"40 498 LINE",
"40 168 LINE",
"208 0 LINE"
);
},
{
closed = 1;
nodes = (
"170 -200 LINE",
"170 82 LINE",
"172 100 LINE",
"172 310 LINE",
"40 310 LINE",
"40 -200 LINE"
);
}
);
width = 565;
}
);
note = mu;
unicode = 03BC;
},
{
glyphname = pi;
lastChange = "2018-04-30 11:53:28 +0000";
layers = (
{
layerId = "39D11A97-A6D9-4B52-A6F5-15D5E4373676";
paths = (
{
closed = 1;
nodes = (
"655 497 LINE",
"55 498 LINE",
"55 432 LINE",
"465 432 LINE",
"465 82 LINE",
"547 0 LINE",
"655 0 LINE",
"655 65 LINE",
"579 65 LINE",
"539 105 LINE",
"539 431 LINE",
"655 431 LINE"
);
},
{
closed = 1;
nodes = (
"160 0 LINE",
"234 0 LINE",
"234 484 LINE",
"160 484 LINE"
);
}
);
width = 710;
},
{
background = {
paths = (
{
closed = 1;
nodes = (
"685 0 LINE",
"685 114 LINE",
"599 114 LINE",
"569 143 LINE",
"569 380 LINE",
"685 380 LINE",
"685 498 LINE",
"25 499 LINE",
"25 381 LINE",
"435 381 LINE",
"435 98 LINE",
"533 0 LINE"
);
},
{
closed = 1;
nodes = (
"264 0 LINE",
"264 485 LINE",
"130 485 LINE",
"130 0 LINE"
);
}
);
};
layerId = "D6105F7E-CAE1-4F7B-A52E-8AA6E6082DF8";
paths = (
{
closed = 1;
nodes = (
"685 0 LINE",
"685 114 LINE",
"597 114 LINE",
"567 143 LINE",
"567 383 LINE",
"685 383 LINE",
"685 498 LINE",
"25 499 LINE",
"25 384 LINE",
"435 384 LINE",
"435 98 LINE",
"533 0 LINE"
);
},
{
closed = 1;
nodes = (
"263 0 LINE",
"263 485 LINE",
"131 485 LINE",
"131 0 LINE"
);
}
);
width = 710;
}
);
note = pi;
unicode = 03C0;
},
{
glyphname = "koKai-thai";
lastChange = "2018-04-30 12:03:18 +0000";
layers = (
{
anchors = (
{
name = bottom;
position = "{509, 0}";
},
{
name = top;
position = "{509, 498}";
}
);
background = {
paths = (
{
closed = 1;
nodes = (
"159 0 LINE",
"159 284 LINE",
"220 371 LINE",
"138 457 LINE",
"175 490 LINE",
"392 490 LINE",
"435 447 LINE",
"435 0 LINE",
"509 0 LINE",
"509 477 LINE",
"428 558 LINE",
"151 558 LINE",
"50 457 LINE",
"137 371 LINE",
"85 304 LINE",
"85 0 LINE"
);
}
);
};
layerId = "39D11A97-A6D9-4B52-A6F5-15D5E4373676";
paths = (
{
closed = 1;
nodes = (
"159 0 LINE",
"159 284 LINE",
"220 371 LINE",
"138 457 LINE",
"175 490 LINE",
"392 490 LINE",
"435 447 LINE",
"435 0 LINE",
"509 0 LINE",
"509 477 LINE",
"428 558 LINE",
"151 558 LINE",
"50 457 LINE",
"137 371 LINE",
"85 304 LINE",
"85 0 LINE"
);
}
);
width = 589;
},
{
anchors = (
{
name = bottom;
position = "{534, 0}";
},
{
name = top;
position = "{534, 498}";
}
);
background = {
paths = (
{
closed = 1;
nodes = (
"214 0 LINE",
"214 261 LINE",
"272 343 LINE",
"194 425 LINE",
"213 440 LINE",
"403 440 LINE",
"430 413 LINE",
"430 0 LINE",
"564 0 LINE",
"564 461 LINE",
"467 558 LINE",
"162 558 LINE",
"35 431 LINE",
"124 343 LINE",
"80 286 LINE",
"80 0 LINE"
);
}
);
};
layerId = "D6105F7E-CAE1-4F7B-A52E-8AA6E6082DF8";
paths = (
{
closed = 1;
nodes = (
"214 0 LINE",
"214 261 LINE",
"272 343 LINE",
"194 425 LINE",
"213 440 LINE",
"403 440 LINE",
"430 413 LINE",
"430 0 LINE",
"564 0 LINE",
"564 461 LINE",
"467 558 LINE",
"162 558 LINE",
"35 431 LINE",
"124 343 LINE",
"80 286 LINE",
"80 0 LINE"
);
}
);
width = 629;
}
);
note = uni0E01;
unicode = 0E01;
},
{
glyphname = "thoThung-thai";
lastChange = "2018-04-30 10:14:40 +0000";
layers = (
{
anchors = (
{
name = bottom;
position = "{509, 0}";
},
{
name = top;
position = "{509, 498}";
}
);
background = {
paths = (
{
closed = 1;
nodes = (
"221 0 LINE",
"281 59 LINE",
"281 133 LINE",
"221 190 LINE",
"154 190 LINE",
"159 238 LINE",
"159 284 LINE",
"220 371 LINE",
"138 457 LINE",
"175 490 LINE",
"392 490 LINE",
"435 447 LINE",
"435 0 LINE",
"509 0 LINE",
"509 477 LINE",
"428 558 LINE",
"151 558 LINE",
"50 457 LINE",
"137 371 LINE",
"85 304 LINE",
"85 59 LINE",
"145 0 LINE"
);
},
{
closed = 1;
nodes = (
"139 74 LINE",
"139 116 LINE",
"165 140 LINE",
"201 140 LINE",
"227 116 LINE",
"227 74 LINE",
"201 50 LINE",
"165 50 LINE"
);
}
);
};
layerId = "39D11A97-A6D9-4B52-A6F5-15D5E4373676";
paths = (
{
closed = 1;
nodes = (
"217 0 LINE",
"277 59 LINE",
"277 133 LINE",
"217 190 LINE",
"150 190 LINE",
"155 238 LINE",
"155 284 LINE",
"220 371 LINE",
"138 457 LINE",
"175 490 LINE",
"392 490 LINE",
"435 447 LINE",
"435 0 LINE",
"509 0 LINE",
"509 477 LINE",
"428 558 LINE",
"151 558 LINE",
"50 457 LINE",
"137 371 LINE",
"81 304 LINE",
"81 59 LINE",
"141 0 LINE"
);
},
{
closed = 1;
nodes = (
"135 74 LINE",
"135 116 LINE",
"161 140 LINE",
"197 140 LINE",
"223 116 LINE",
"223 74 LINE",
"197 50 LINE",
"161 50 LINE"
);
}
);
width = 589;
},
{
anchors = (
{
name = bottom;
position = "{529, 0}";
},
{
name = top;
position = "{529, 498}";
}
);
background = {
anchors = (
{
name = bottom;
position = "{529, 0}";
},
{
name = top;
position = "{529, 498}";
}
);
paths = (
{
closed = 1;
nodes = (
"249 0 LINE",
"318 67 LINE",
"318 165 LINE",
"249 230 LINE",
"207 230 LINE",
"209 238 LINE",
"209 261 LINE",
"270 343 LINE",
"193 425 LINE",
"211 440 LINE",
"399 440 LINE",
"425 413 LINE",
"425 0 LINE",
"559 0 LINE",
"559 461 LINE",
"463 558 LINE",
"160 558 LINE",
"34 431 LINE",
"122 343 LINE",
"75 286 LINE",
"75 67 LINE",
"143 0 LINE"
);
},
{
closed = 1;
nodes = (
"160 99 LINE",
"160 133 LINE",
"179 153 LINE",
"213 153 LINE",
"233 133 LINE",
"233 99 LINE",
"213 79 LINE",
"179 79 LINE"
);
},
{
closed = 1;
nodes = (
"250 -26 LINE",
"327 49 LINE",
"327 143 LINE",
"250 216 LINE",
"203 216 LINE",
"205 237 LINE",
"205 276 LINE",
"277 373 LINE",
"198 456 LINE",
"208 464 LINE",
"398 464 LINE",
"425 437 LINE",
"425 -26 LINE",
"559 -26 LINE",
"559 487 LINE",
"462 584 LINE",
"157 584 LINE",
"30 457 LINE",
"119 369 LINE",
"71 312 LINE",
"71 49 LINE",
"148 -26 LINE"
);
},
{
closed = 1;
nodes = (
"185 84 LINE",
"185 106 LINE",
"194 114 LINE",
"204 114 LINE",
"213 106 LINE",
"213 84 LINE",
"204 76 LINE",
"194 76 LINE"
);
}
);
};
layerId = "D6105F7E-CAE1-4F7B-A52E-8AA6E6082DF8";
paths = (
{
closed = 1;
nodes = (
"245 0 LINE",
"314 67 LINE",
"314 165 LINE",
"245 230 LINE",
"203 230 LINE",
"205 238 LINE",
"205 261 LINE",
"266 343 LINE",
"189 425 LINE",
"207 440 LINE",
"399 440 LINE",
"425 413 LINE",
"425 0 LINE",
"559 0 LINE",
"559 461 LINE",
"463 558 LINE",
"156 558 LINE",
"30 431 LINE",
"118 343 LINE",
"71 286 LINE",
"71 67 LINE",
"139 0 LINE"
);
},
{
closed = 1;
nodes = (
"156 99 LINE",
"156 133 LINE",
"175 153 LINE",
"209 153 LINE",
"229 133 LINE",
"229 99 LINE",
"209 79 LINE",
"175 79 LINE"
);
}
);
width = 623;
}
);
note = uni0E16;
unicode = 0E16;
},
{
glyphname = "phoSamphao-thai";
lastChange = "2018-04-30 09:53:35 +0000";
layers = (
{
anchors = (
{
name = bottom;
position = "{547, 0}";
},
{
name = top;
position = "{547, 498}";
}
);
background = {
paths = (
{
closed = 1;
nodes = (
"164 0 LINE",
"224 59 LINE",
"224 284 LINE",
"272 371 LINE",
"176 457 LINE",
"213 490 LINE",
"430 490 LINE",
"473 447 LINE",
"473 0 LINE",
"547 0 LINE",
"547 477 LINE",
"466 558 LINE",
"189 558 LINE",
"88 457 LINE",
"191 371 LINE",
"150 304 LINE",
"150 228 LINE",
"155 190 LINE",
"88 190 LINE",
"28 133 LINE",
"28 59 LINE",
"88 0 LINE"
);
},
{
closed = 1;
nodes = (
"82 74 LINE",
"82 116 LINE",
"108 140 LINE",
"144 140 LINE",
"170 116 LINE",
"170 74 LINE",
"144 50 LINE",
"108 50 LINE"
);
}
);
};
layerId = "39D11A97-A6D9-4B52-A6F5-15D5E4373676";
paths = (
{
closed = 1;
nodes = (
"164 0 LINE",
"224 59 LINE",
"224 284 LINE",
"272 371 LINE",
"176 457 LINE",
"213 490 LINE",
"430 490 LINE",
"473 447 LINE",
"473 0 LINE",
"547 0 LINE",
"547 477 LINE",
"466 558 LINE",
"189 558 LINE",
"88 457 LINE",
"191 371 LINE",
"150 304 LINE",
"150 226 LINE",
"155 188 LINE",
"90 188 LINE",
"30 131 LINE",
"30 59 LINE",
"90 0 LINE"
);
},
{
closed = 1;
nodes = (
"84 73 LINE",
"84 115 LINE",
"110 139 LINE",
"146 139 LINE",
"172 115 LINE",
"172 73 LINE",
"146 49 LINE",
"110 49 LINE"
);
}
);
width = 627;
},
{
anchors = (
{
name = bottom;
position = "{557, 0}";
},
{
name = top;
position = "{557, 498}";
}
);
background = {
paths = (
{
closed = 1;
nodes = (
"192 0 LINE",
"269 75 LINE",
"269 252 LINE",
"323 350 LINE",
"233 431 LINE",
"241 438 LINE",
"431 438 LINE",
"458 411 LINE",
"458 0 LINE",
"592 0 LINE",
"592 461 LINE",
"495 558 LINE",
"190 558 LINE",
"62 429 LINE",
"169 340 LINE",
"135 284 LINE",
"135 251 LINE",
"136 240 LINE",
"92 240 LINE",
"15 167 LINE",
"15 75 LINE",
"92 0 LINE"
);
},
{
closed = 1;
nodes = (
"129 109 LINE",
"129 131 LINE",
"138 139 LINE",
"148 139 LINE",
"157 131 LINE",
"157 109 LINE",
"148 101 LINE",
"138 101 LINE"
);
}
);
};
layerId = "D6105F7E-CAE1-4F7B-A52E-8AA6E6082DF8";
paths = (
{
closed = 1;
nodes = (
"198 0 LINE",
"268 68 LINE",
"268 261 LINE",
"312 343 LINE",
"221 425 LINE",
"240 440 LINE",
"427 440 LINE",
"453 413 LINE",
"453 0 LINE",
"588 0 LINE",
"588 461 LINE",
"491 558 LINE",
"189 558 LINE",
"62 431 LINE",
"168 343 LINE",
"134 286 LINE",
"134 246 LINE",
"138 230 LINE",
"93 230 LINE",
"24 165 LINE",
"24 67 LINE",
"93 0 LINE"
);
},
{
closed = 1;
nodes = (
"109 99 LINE",
"109 133 LINE",
"129 153 LINE",
"162 153 LINE",
"182 133 LINE",
"182 99 LINE",
"162 79 LINE",
"129 79 LINE"
);
}
);
width = 652;
}
);
note = uni0E20;
unicode = 0E20;
},
{
glyphname = "ru-thai";
lastChange = "2018-04-30 10:11:16 +0000";
layers = (
{
anchors = (
{
name = bottom;
position = "{511, 0}";
},
{
name = top;
position = "{511, 498}";
}
);
background = {
paths = (
{
closed = 1;
nodes = (
"216 0 LINE",
"276 59 LINE",
"276 133 LINE",
"216 190 LINE",
"149 190 LINE",
"154 238 LINE",
"154 284 LINE",
"215 371 LINE",
"133 457 LINE",
"170 490 LINE",
"389 490 LINE",
"432 447 LINE",
"432 -210 LINE",
"506 -210 LINE",
"506 476 LINE",
"425 558 LINE",
"146 558 LINE",
"45 457 LINE",
"132 371 LINE",
"80 304 LINE",
"80 59 LINE",
"140 0 LINE"
);
},
{
closed = 1;
nodes = (
"134 74 LINE",
"134 116 LINE",
"160 140 LINE",
"196 140 LINE",
"222 116 LINE",
"222 74 LINE",
"196 50 LINE",
"160 50 LINE"
);
}
);
};
layerId = "39D11A97-A6D9-4B52-A6F5-15D5E4373676";
paths = (
{
closed = 1;
nodes = (
"221 0 LINE",
"281 59 LINE",
"281 133 LINE",
"221 190 LINE",
"154 190 LINE",
"159 238 LINE",
"159 284 LINE",
"220 371 LINE",
"138 457 LINE",
"175 490 LINE",
"394 490 LINE",
"437 447 LINE",
"437 -210 LINE",
"511 -210 LINE",
"511 477 LINE",
"430 558 LINE",
"151 558 LINE",
"50 457 LINE",
"137 371 LINE",
"85 304 LINE",
"85 59 LINE",
"145 0 LINE"
);
},
{
closed = 1;
nodes = (
"139 74 LINE",
"139 116 LINE",
"165 140 LINE",
"201 140 LINE",
"227 116 LINE",
"227 74 LINE",
"201 50 LINE",
"165 50 LINE"
);
}
);
width = 591;
},
{
anchors = (
{
name = bottom;
position = "{531, 0}";
},
{
name = top;
position = "{531, 498}";
}
);
background = {
paths = (
{
closed = 1;
nodes = (
"249 0 LINE",
"317 67 LINE",
"317 165 LINE",
"249 230 LINE",
"207 230 LINE",
"209 238 LINE",
"209 261 LINE",
"270 343 LINE",
"193 425 LINE",
"211 440 LINE",
"399 440 LINE",
"425 413 LINE",
"425 -210 LINE",
"559 -210 LINE",
"559 461 LINE",
"463 558 LINE",
"160 558 LINE",
"34 431 LINE",
"122 343 LINE",
"75 286 LINE",
"75 67 LINE",
"143 0 LINE"
);
},
{
closed = 1;
nodes = (
"160 99 LINE",
"160 133 LINE",
"179 153 LINE",
"213 153 LINE",
"233 133 LINE",
"233 99 LINE",
"213 79 LINE",
"179 79 LINE"
);
}
);
};
layerId = "D6105F7E-CAE1-4F7B-A52E-8AA6E6082DF8";
paths = (
{
closed = 1;
nodes = (
"249 0 LINE",
"317 67 LINE",
"317 165 LINE",
"249 230 LINE",
"207 230 LINE",
"209 238 LINE",
"209 261 LINE",
"270 343 LINE",
"193 425 LINE",
"211 440 LINE",
"399 440 LINE",
"425 413 LINE",
"425 -210 LINE",
"559 -210 LINE",
"559 461 LINE",
"463 558 LINE",
"160 558 LINE",
"34 431 LINE",
"122 343 LINE",
"75 286 LINE",
"75 67 LINE",
"143 0 LINE"
);
},
{
closed = 1;
nodes = (
"160 99 LINE",
"160 133 LINE",
"179 153 LINE",
"213 153 LINE",
"233 133 LINE",
"233 99 LINE",
"213 79 LINE",
"179 79 LINE"
);
}
);
width = 625;
}
);
note = uni0E24;
unicode = 0E24;
},
{
glyphname = "ru-thai.short";
lastChange = "2018-04-30 09:53:35 +0000";
layers = (
{
anchors = (
{
name = bottom;
position = "{511, 0}";
},
{
name = top;
position = "{511, 498}";
}
);
background = {
paths = (
{
closed = 1;
nodes = (
"216 0 LINE",
"276 59 LINE",
"276 133 LINE",
"216 190 LINE",
"149 190 LINE",
"154 238 LINE",
"154 284 LINE",
"215 371 LINE",
"133 457 LINE",
"170 490 LINE",
"389 490 LINE",
"432 447 LINE",
"432 -110 LINE",
"506 -110 LINE",
"506 476 LINE",
"425 558 LINE",
"146 558 LINE",
"45 457 LINE",
"132 371 LINE",
"80 304 LINE",
"80 59 LINE",
"140 0 LINE"
);
},
{
closed = 1;
nodes = (
"134 74 LINE",
"134 116 LINE",
"160 140 LINE",
"196 140 LINE",
"222 116 LINE",
"222 74 LINE",
"196 50 LINE",
"160 50 LINE"
);
}
);
};
layerId = "39D11A97-A6D9-4B52-A6F5-15D5E4373676";
paths = (
{
closed = 1;
nodes = (
"221 0 LINE",
"281 59 LINE",
"281 133 LINE",
"221 190 LINE",
"154 190 LINE",
"159 238 LINE",
"159 284 LINE",
"220 371 LINE",
"138 457 LINE",
"175 490 LINE",
"394 490 LINE",
"437 447 LINE",
"437 -110 LINE",
"511 -110 LINE",
"511 477 LINE",
"430 558 LINE",
"151 558 LINE",
"50 457 LINE",
"137 371 LINE",
"85 304 LINE",
"85 59 LINE",
"145 0 LINE"
);
},
{
closed = 1;
nodes = (
"139 74 LINE",
"139 116 LINE",
"165 140 LINE",
"201 140 LINE",
"227 116 LINE",
"227 74 LINE",
"201 50 LINE",
"165 50 LINE"
);
}
);
width = 591;
},
{
anchors = (
{
name = bottom;
position = "{531, 0}";
},
{
name = top;
position = "{531, 498}";
}
);
background = {
paths = (
{
closed = 1;
nodes = (
"256 0 LINE",
"316 59 LINE",
"316 133 LINE",
"256 190 LINE",
"189 190 LINE",
"194 238 LINE",
"194 284 LINE",
"255 371 LINE",
"173 457 LINE",
"210 490 LINE",
"429 490 LINE",
"472 447 LINE",
"472 -110 LINE",
"546 -110 LINE",
"546 476 LINE",
"465 558 LINE",
"186 558 LINE",
"85 457 LINE",
"172 371 LINE",
"120 304 LINE",
"120 59 LINE",
"180 0 LINE"
);
},
{
closed = 1;
nodes = (
"174 74 LINE",
"174 116 LINE",
"200 140 LINE",
"236 140 LINE",
"262 116 LINE",
"262 74 LINE",
"236 50 LINE",
"200 50 LINE"
);
}
);
};
layerId = "D6105F7E-CAE1-4F7B-A52E-8AA6E6082DF8";
paths = (
{
closed = 1;
nodes = (
"249 0 LINE",
"317 67 LINE",
"317 165 LINE",
"249 230 LINE",
"207 230 LINE",
"209 238 LINE",
"209 261 LINE",
"270 343 LINE",
"193 425 LINE",
"211 440 LINE",
"399 440 LINE",
"425 413 LINE",
"425 -110 LINE",
"559 -110 LINE",
"559 461 LINE",
"463 558 LINE",
"160 558 LINE",
"34 431 LINE",
"122 343 LINE",
"75 286 LINE",
"75 67 LINE",
"143 0 LINE"
);
},
{
closed = 1;
nodes = (
"160 99 LINE",
"160 133 LINE",
"179 153 LINE",
"213 153 LINE",
"233 133 LINE",
"233 99 LINE",
"213 79 LINE",
"179 79 LINE"
);
}
);
width = 625;
}
);
note = "ru-thai.short";
},
{
glyphname = "lu-thai";
lastChange = "2018-04-30 09:53:35 +0000";
layers = (
{
anchors = (
{
name = bottom;
position = "{549, 0}";
},
{
name = top;
position = "{549, 498}";
}
);
background = {
paths = (
{
closed = 1;
nodes = (
"164 0 LINE",
"224 59 LINE",
"224 284 LINE",
"272 371 LINE",
"176 457 LINE",
"213 490 LINE",
"432 490 LINE",
"475 447 LINE",
"475 -210 LINE",
"549 -210 LINE",
"549 477 LINE",
"468 558 LINE",
"189 558 LINE",
"88 457 LINE",
"191 371 LINE",
"150 304 LINE",
"150 228 LINE",
"155 190 LINE",
"88 190 LINE",
"28 133 LINE",
"28 59 LINE",
"88 0 LINE"
);
},
{
closed = 1;
nodes = (
"82 74 LINE",
"82 116 LINE",
"108 140 LINE",
"144 140 LINE",
"170 116 LINE",
"170 74 LINE",
"144 50 LINE",
"108 50 LINE"
);
}
);
};
layerId = "39D11A97-A6D9-4B52-A6F5-15D5E4373676";
paths = (
{
closed = 1;
nodes = (
"549 -210 LINE",
"549 477 LINE",
"468 558 LINE",
"189 558 LINE",
"88 457 LINE",
"191 371 LINE",
"150 304 LINE",
"150 226 LINE",
"155 188 LINE",
"90 188 LINE",
"30 131 LINE",
"30 59 LINE",
"90 0 LINE",
"164 0 LINE",
"224 59 LINE",
"224 284 LINE",
"272 371 LINE",
"176 457 LINE",
"213 490 LINE",
"432 490 LINE",
"475 447 LINE",
"475 -210 LINE"
);
},
{
closed = 1;
nodes = (
"84 73 LINE",
"84 115 LINE",
"110 139 LINE",
"146 139 LINE",
"172 115 LINE",
"172 73 LINE",
"146 49 LINE",
"110 49 LINE"
);
}
);
width = 629;
},
{
anchors = (
{
name = bottom;
position = "{558, 0}";
},
{
name = top;
position = "{558, 498}";
}
);
background = {
paths = (
{
closed = 1;
nodes = (
"594 -236 LINE",
"594 487 LINE",
"497 584 LINE",
"190 584 LINE",
"62 455 LINE",
"169 366 LINE",
"135 310 LINE",
"135 225 LINE",
"136 214 LINE",
"92 214 LINE",
"15 141 LINE",
"15 49 LINE",
"92 -26 LINE",
"192 -26 LINE",
"269 49 LINE",
"269 278 LINE",
"323 376 LINE",
"233 457 LINE",
"241 464 LINE",
"433 464 LINE",
"460 437 LINE",
"460 -236 LINE"
);
},
{
closed = 1;
nodes = (
"129 83 LINE",
"129 105 LINE",
"138 113 LINE",
"148 113 LINE",
"157 105 LINE",
"157 83 LINE",
"148 75 LINE",
"138 75 LINE"
);
}
);
};
layerId = "D6105F7E-CAE1-4F7B-A52E-8AA6E6082DF8";
paths = (
{
closed = 1;
nodes = (
"189 0 LINE",
"260 68 LINE",
"261 261 LINE",
"314 343 LINE",
"223 425 LINE",
"240 440 LINE",
"433 440 LINE",
"460 413 LINE",
"460 -211 LINE",
"598 -211 LINE",
"599 461 LINE",
"501 558 LINE",
"190 558 LINE",
"60 431 LINE",
"167 343 LINE",
"131 286 LINE",
"130 246 LINE",
"137 230 LINE",
"89 230 LINE",
"14 165 LINE",
"13 67 LINE",
"83 0 LINE"
);
},
{
closed = 1;
nodes = (
"108 99 LINE",
"108 133 LINE",
"128 153 LINE",
"162 153 LINE",
"181 133 LINE",
"181 99 LINE",
"162 79 LINE",
"128 79 LINE"
);
}
);
width = 653;
}
);
note = uni0E26;
unicode = 0E26;
},
{
glyphname = "lu-thai.short";
lastChange = "2018-04-30 09:53:35 +0000";
layers = (
{
anchors = (
{
name = bottom;
position = "{551, 0}";
},
{
name = top;
position = "{551, 498}";
}
);
background = {
paths = (
{
closed = 1;
nodes = (
"166 0 LINE",
"226 59 LINE",
"226 284 LINE",
"274 371 LINE",
"178 457 LINE",
"215 490 LINE",
"434 490 LINE",
"477 447 LINE",
"477 -110 LINE",
"551 -110 LINE",
"551 477 LINE",
"470 558 LINE",
"191 558 LINE",
"90 457 LINE",
"193 371 LINE",
"152 304 LINE",
"152 228 LINE",
"157 190 LINE",
"90 190 LINE",
"30 133 LINE",
"30 59 LINE",
"90 0 LINE"
);
},
{
closed = 1;
nodes = (
"84 74 LINE",
"84 116 LINE",
"110 140 LINE",
"146 140 LINE",
"172 116 LINE",
"172 74 LINE",
"146 50 LINE",
"110 50 LINE"
);
}
);
};
layerId = "39D11A97-A6D9-4B52-A6F5-15D5E4373676";
paths = (
{
closed = 1;
nodes = (
"549 -110 LINE",
"549 477 LINE",
"468 558 LINE",
"189 558 LINE",
"88 457 LINE",
"191 371 LINE",
"150 304 LINE",
"150 226 LINE",
"155 188 LINE",
"90 188 LINE",
"30 131 LINE",
"30 59 LINE",
"90 0 LINE",
"164 0 LINE",
"224 59 LINE",
"224 284 LINE",
"272 371 LINE",
"176 457 LINE",
"213 490 LINE",
"432 490 LINE",
"475 447 LINE",
"475 -110 LINE"
);
},
{
closed = 1;
nodes = (
"84 73 LINE",
"84 115 LINE",
"110 139 LINE",
"146 139 LINE",
"172 115 LINE",
"172 73 LINE",
"146 49 LINE",
"110 49 LINE"
);
}
);
width = 629;
},
{
anchors = (
{
name = bottom;
position = "{560, 0}";
},
{
name = top;
position = "{560, 498}";
}
);
background = {
paths = (
{
closed = 1;
nodes = (
"196 0 LINE",
"256 59 LINE",
"256 284 LINE",
"304 371 LINE",
"208 457 LINE",
"245 490 LINE",
"464 490 LINE",
"507 447 LINE",
"507 -110 LINE",
"581 -110 LINE",
"581 477 LINE",
"500 558 LINE",
"221 558 LINE",
"120 457 LINE",
"223 371 LINE",
"182 304 LINE",
"182 228 LINE",
"187 190 LINE",
"120 190 LINE",
"60 133 LINE",
"60 59 LINE",
"120 0 LINE"
);
},
{
closed = 1;
nodes = (
"114 74 LINE",
"114 116 LINE",
"140 140 LINE",
"176 140 LINE",
"202 116 LINE",
"202 74 LINE",
"176 50 LINE",
"140 50 LINE"
);
}
);
};
layerId = "D6105F7E-CAE1-4F7B-A52E-8AA6E6082DF8";
paths = (
{
closed = 1;
nodes = (
"189 0 LINE",
"260 68 LINE",
"261 261 LINE",
"314 343 LINE",
"223 425 LINE",
"240 440 LINE",
"433 440 LINE",
"460 413 LINE",
"460 -111 LINE",
"598 -111 LINE",
"599 461 LINE",
"501 558 LINE",
"190 558 LINE",
"60 431 LINE",
"167 343 LINE",
"131 286 LINE",
"130 246 LINE",
"137 230 LINE",
"89 230 LINE",
"14 165 LINE",
"13 67 LINE",
"83 0 LINE"
);
},
{
closed = 1;
nodes = (
"108 99 LINE",
"108 133 LINE",
"128 153 LINE",
"162 153 LINE",
"181 133 LINE",
"181 99 LINE",
"162 79 LINE",
"128 79 LINE"
);
}
);
width = 653;
}
);
note = "lu-thai.short";
},
{
glyphname = "doChada-thai";
lastChange = "2018-04-30 09:53:35 +0000";
layers = (
{
anchors = (
{
name = bottom;
position = "{549, -274}";
},
{
name = top;
position = "{549, 498}";
}
);
background = {
paths = (
{
closed = 1;
nodes = (
"382 -274 LINE",
"431 -218 LINE",
"489 -274 LINE",
"549 -274 LINE",
"549 477 LINE",
"468 558 LINE",
"189 558 LINE",
"88 457 LINE",
"191 371 LINE",
"150 304 LINE",
"150 228 LINE",
"155 190 LINE",
"88 190 LINE",
"28 133 LINE",
"28 59 LINE",
"88 0 LINE",
"164 0 LINE",
"224 59 LINE",
"224 284 LINE",
"272 371 LINE",
"176 457 LINE",
"213 490 LINE",
"432 490 LINE",
"475 447 LINE",
"475 -182 LINE",
"375 -77 LINE",
"167 -77 LINE",
"110 -134 LINE",
"110 -216 LINE",
"168 -274 LINE"
);
},
{
closed = 1;
nodes = (
"173 -191 LINE",
"173 -160 LINE",
"199 -134 LINE",
"350 -134 LINE",
"391 -177 LINE",
"356 -217 LINE",
"199 -217 LINE"
);
},
{
closed = 1;
nodes = (
"82 74 LINE",
"82 116 LINE",
"108 140 LINE",
"144 140 LINE",
"170 116 LINE",
"170 74 LINE",
"144 50 LINE",
"108 50 LINE"
);
}
);
};
layerId = "39D11A97-A6D9-4B52-A6F5-15D5E4373676";
paths = (
{
closed = 1;
nodes = (
"382 -274 LINE",
"431 -218 LINE",
"489 -274 LINE",
"549 -274 LINE",
"549 477 LINE",
"468 558 LINE",
"189 558 LINE",
"88 457 LINE",
"191 371 LINE",
"150 304 LINE",
"150 226 LINE",
"155 188 LINE",
"90 188 LINE",
"30 131 LINE",
"30 59 LINE",
"90 0 LINE",
"164 0 LINE",
"224 59 LINE",
"224 284 LINE",
"272 371 LINE",
"176 457 LINE",
"213 490 LINE",
"432 490 LINE",
"475 447 LINE",
"475 -182 LINE",
"375 -77 LINE",
"167 -77 LINE",
"110 -134 LINE",
"110 -216 LINE",
"168 -274 LINE"
);
},
{
closed = 1;
nodes = (
"173 -191 LINE",
"173 -160 LINE",
"199 -134 LINE",
"350 -134 LINE",
"391 -177 LINE",
"356 -217 LINE",
"199 -217 LINE"
);
},
{
closed = 1;
nodes = (
"84 73 LINE",
"84 115 LINE",
"110 139 LINE",
"146 139 LINE",
"172 115 LINE",
"172 73 LINE",
"146 49 LINE",
"110 49 LINE"
);
}
);
width = 629;
},
{
anchors = (
{
name = bottom;
position = "{559, -274}";
},
{
name = top;
position = "{559, 498}";
}
);
background = {
paths = (
{
closed = 1;
nodes = (
"412 -274 LINE",
"448 -233 LINE",
"491 -274 LINE",
"594 -274 LINE",
"594 461 LINE",
"497 558 LINE",
"190 558 LINE",
"63 431 LINE",
"170 343 LINE",
"135 286 LINE",
"135 246 LINE",
"139 230 LINE",
"93 230 LINE",
"24 165 LINE",
"24 67 LINE",
"93 0 LINE",
"199 0 LINE",
"269 68 LINE",
"269 261 LINE",
"314 343 LINE",
"222 425 LINE",
"241 440 LINE",
"433 440 LINE",
"460 413 LINE",
"460 -104 LINE",
"404 -45 LINE",
"168 -45 LINE",
"95 -118 LINE",
"95 -200 LINE",
"169 -274 LINE"
);
},
{
closed = 1;
nodes = (
"218 -175 LINE",
"218 -144 LINE",
"228 -134 LINE",
"351 -134 LINE",
"378 -162 LINE",
"356 -185 LINE",
"228 -185 LINE"
);
},
{
closed = 1;
nodes = (
"109 99 LINE",
"109 133 LINE",
"129 153 LINE",
"163 153 LINE",
"183 133 LINE",
"183 99 LINE",
"163 79 LINE",
"129 79 LINE"
);
}
);
};
layerId = "D6105F7E-CAE1-4F7B-A52E-8AA6E6082DF8";
paths = (
{
closed = 1;
nodes = (
"391 -274 LINE",
"443 -222 LINE",
"497 -274 LINE",
"589 -274 LINE",
"589 461 LINE",
"493 558 LINE",
"189 558 LINE",
"62 431 LINE",
"168 343 LINE",
"134 286 LINE",
"134 246 LINE",
"138 230 LINE",
"93 230 LINE",
"24 165 LINE",
"24 67 LINE",
"93 0 LINE",
"198 0 LINE",
"268 68 LINE",
"268 261 LINE",
"312 343 LINE",
"221 425 LINE",
"240 440 LINE",
"429 440 LINE",
"455 413 LINE",
"455 -117 LINE",
"387 -45 LINE",
"167 -45 LINE",
"99 -118 LINE",
"99 -200 LINE",
"168 -274 LINE"
);
},
{
closed = 1;
nodes = (
"201 -173 LINE",
"201 -146 LINE",
"219 -128 LINE",
"342 -128 LINE",
"374 -162 LINE",
"347 -191 LINE",
"219 -191 LINE"
);
},
{
closed = 1;
nodes = (
"109 99 LINE",
"109 133 LINE",
"129 153 LINE",
"162 153 LINE",
"182 133 LINE",
"182 99 LINE",
"162 79 LINE",
"129 79 LINE"
);
}
);
width = 653;
}
);
note = uni0E0E;
unicode = 0E0E;
},
{
glyphname = "doChada-thai.short";
lastChange = "2018-04-30 09:53:35 +0000";
layers = (
{
anchors = (
{
name = bottom;
position = "{549, -224}";
},
{
name = top;
position = "{549, 498}";
}
);
background = {
paths = (
{
closed = 1;
nodes = (
"382 -224 LINE",
"431 -168 LINE",
"489 -224 LINE",
"549 -224 LINE",
"549 477 LINE",
"468 558 LINE",
"189 558 LINE",
"88 457 LINE",
"191 371 LINE",
"150 304 LINE",
"150 228 LINE",
"155 190 LINE",
"88 190 LINE",
"28 133 LINE",
"28 59 LINE",
"88 0 LINE",
"164 0 LINE",
"224 59 LINE",
"224 284 LINE",
"272 371 LINE",
"176 457 LINE",
"213 490 LINE",
"432 490 LINE",
"475 447 LINE",
"475 -132 LINE",
"375 -27 LINE",
"187 -27 LINE",
"130 -84 LINE",
"130 -166 LINE",
"188 -224 LINE"
);
},
{
closed = 1;
nodes = (
"192 -142 LINE",
"192 -109 LINE",
"218 -83 LINE",
"350 -83 LINE",
"391 -127 LINE",
"356 -168 LINE",
"218 -168 LINE"
);
},
{
closed = 1;
nodes = (
"82 74 LINE",
"82 116 LINE",
"108 140 LINE",
"144 140 LINE",
"170 116 LINE",
"170 74 LINE",
"144 50 LINE",
"108 50 LINE"
);
}
);
};
layerId = "39D11A97-A6D9-4B52-A6F5-15D5E4373676";
paths = (
{
closed = 1;
nodes = (
"382 -224 LINE",
"431 -168 LINE",
"489 -224 LINE",
"549 -224 LINE",
"549 477 LINE",
"468 558 LINE",
"189 558 LINE",
"88 457 LINE",
"191 371 LINE",
"150 304 LINE",
"150 226 LINE",
"155 188 LINE",
"90 188 LINE",
"30 131 LINE",
"30 59 LINE",
"90 0 LINE",
"164 0 LINE",
"224 59 LINE",
"224 284 LINE",
"272 371 LINE",
"176 457 LINE",
"213 490 LINE",
"432 490 LINE",
"475 447 LINE",
"475 -132 LINE",
"375 -27 LINE",
"187 -27 LINE",
"130 -84 LINE",
"130 -166 LINE",
"188 -224 LINE"
);
},
{
closed = 1;
nodes = (
"192 -142 LINE",
"192 -109 LINE",
"218 -83 LINE",
"350 -83 LINE",
"391 -127 LINE",
"356 -168 LINE",
"218 -168 LINE"
);
},
{
closed = 1;
nodes = (
"84 73 LINE",
"84 115 LINE",
"110 139 LINE",
"146 139 LINE",
"172 115 LINE",
"172 73 LINE",
"146 49 LINE",
"110 49 LINE"
);
}
);
width = 629;
},
{
anchors = (
{
name = bottom;
position = "{559, -224}";
},
{
name = top;
position = "{559, 498}";
}
);
background = {
paths = (
{
closed = 1;
nodes = (
"412 -250 LINE",
"448 -209 LINE",
"491 -250 LINE",
"594 -250 LINE",
"594 487 LINE",
"497 584 LINE",
"190 584 LINE",
"62 455 LINE",
"169 366 LINE",
"135 310 LINE",
"135 225 LINE",
"136 214 LINE",
"92 214 LINE",
"15 141 LINE",
"15 49 LINE",
"92 -26 LINE",
"192 -26 LINE",
"269 49 LINE",
"269 278 LINE",
"323 376 LINE",
"233 457 LINE",
"241 464 LINE",
"433 464 LINE",
"460 437 LINE",
"460 -60 LINE",
"404 -1 LINE",
"188 -1 LINE",
"115 -74 LINE",
"115 -176 LINE",
"189 -250 LINE"
);
},
{
closed = 1;
nodes = (
"237 -132 LINE",
"237 -119 LINE",
"247 -109 LINE",
"351 -109 LINE",
"368 -128 LINE",
"356 -142 LINE",
"247 -142 LINE"
);
},
{
closed = 1;
nodes = (
"129 83 LINE",
"129 105 LINE",
"138 113 LINE",
"148 113 LINE",
"157 105 LINE",
"157 83 LINE",
"148 75 LINE",
"138 75 LINE"
);
}
);
};
layerId = "D6105F7E-CAE1-4F7B-A52E-8AA6E6082DF8";
paths = (
{
closed = 1;
nodes = (
"391 -244 LINE",
"443 -192 LINE",
"497 -244 LINE",
"589 -244 LINE",
"589 461 LINE",
"493 558 LINE",
"189 558 LINE",
"62 431 LINE",
"168 343 LINE",
"134 286 LINE",
"134 246 LINE",
"138 230 LINE",
"93 230 LINE",
"24 165 LINE",
"24 67 LINE",
"93 0 LINE",
"198 0 LINE",
"268 68 LINE",
"268 261 LINE",
"312 343 LINE",
"221 425 LINE",
"240 440 LINE",
"429 440 LINE",
"455 413 LINE",
"455 -87 LINE",
"387 -15 LINE",
"166 -15 LINE",
"99 -88 LINE",
"99 -170 LINE",
"167 -244 LINE"
);
},
{
closed = 1;
nodes = (
"201 -143 LINE",
"201 -116 LINE",
"218 -98 LINE",
"342 -98 LINE",
"374 -132 LINE",
"347 -161 LINE",
"218 -161 LINE"
);
},
{
closed = 1;
nodes = (
"109 99 LINE",
"109 133 LINE",
"129 153 LINE",
"162 153 LINE",
"182 133 LINE",
"182 99 LINE",
"162 79 LINE",
"129 79 LINE"
);
}
);
width = 653;
}
);
note = "doChada-thai.short";
},
{
glyphname = "toPatak-thai";
lastChange = "2018-04-30 10:11:20 +0000";
layers = (
{
anchors = (
{
name = bottom;
position = "{549, -274}";
},
{
name = top;
position = "{549, 498}";
}
);
background = {
paths = (
{
closed = 1;
nodes = (
"242 -274 LINE",
"304 -215 LINE",
"363 -274 LINE",
"414 -210 LINE",
"481 -274 LINE",
"549 -274 LINE",
"549 477 LINE",
"468 558 LINE",
"189 558 LINE",
"88 457 LINE",
"191 371 LINE",
"150 304 LINE",
"150 228 LINE",
"155 190 LINE",
"88 190 LINE",
"28 133 LINE",
"28 59 LINE",
"88 0 LINE",
"164 0 LINE",
"224 59 LINE",
"224 284 LINE",
"272 371 LINE",
"176 457 LINE",
"213 490 LINE",
"432 490 LINE",
"475 447 LINE",
"475 -194 LINE",
"409 -132 LINE",
"362 -194 LINE",
"250 -78 LINE",
"147 -78 LINE",
"90 -135 LINE",
"90 -217 LINE",
"147 -274 LINE"
);
},
{
closed = 1;
nodes = (
"150 -196 LINE",
"150 -156 LINE",
"174 -132 LINE",
"225 -132 LINE",
"268 -176 LINE",
"223 -220 LINE",
"174 -220 LINE"
);
},
{
closed = 1;
nodes = (
"82 74 LINE",
"82 116 LINE",
"108 140 LINE",
"144 140 LINE",
"170 116 LINE",
"170 74 LINE",
"144 50 LINE",
"108 50 LINE"
);
}
);
};
layerId = "39D11A97-A6D9-4B52-A6F5-15D5E4373676";
paths = (
{
closed = 1;
nodes = (
"242 -274 LINE",
"304 -215 LINE",
"363 -274 LINE",
"414 -210 LINE",
"481 -274 LINE",
"549 -274 LINE",
"549 477 LINE",
"468 558 LINE",
"189 558 LINE",
"88 457 LINE",
"191 371 LINE",
"150 304 LINE",
"150 226 LINE",
"155 188 LINE",
"90 188 LINE",
"30 131 LINE",
"30 59 LINE",
"90 0 LINE",
"164 0 LINE",
"224 59 LINE",
"224 284 LINE",
"272 371 LINE",
"176 457 LINE",
"213 490 LINE",
"432 490 LINE",
"475 447 LINE",
"475 -194 LINE",
"409 -132 LINE",
"362 -194 LINE",
"250 -78 LINE",
"147 -78 LINE",
"90 -135 LINE",
"90 -217 LINE",
"147 -274 LINE"
);
},
{
closed = 1;
nodes = (
"150 -196 LINE",
"150 -156 LINE",
"174 -132 LINE",
"225 -132 LINE",
"268 -176 LINE",
"223 -220 LINE",
"174 -220 LINE"
);
},
{
closed = 1;
nodes = (
"84 73 LINE",
"84 115 LINE",
"110 139 LINE",
"146 139 LINE",
"172 115 LINE",
"172 73 LINE",
"146 49 LINE",
"110 49 LINE"
);
}
);
width = 629;
},
{
anchors = (
{
name = bottom;
position = "{559, -274}";
},
{
name = top;
position = "{559, 498}";
}
);
background = {
paths = (
{
closed = 1;
nodes = (
"258 -274 LINE",
"316 -208 LINE",
"376 -274 LINE",
"420 -202 LINE",
"485 -274 LINE",
"589 -274 LINE",
"589 461 LINE",
"493 558 LINE",
"189 558 LINE",
"62 431 LINE",
"168 343 LINE",
"134 286 LINE",
"134 246 LINE",
"138 230 LINE",
"93 230 LINE",
"24 165 LINE",
"24 67 LINE",
"93 0 LINE",
"198 0 LINE",
"268 68 LINE",
"268 261 LINE",
"312 343 LINE",
"221 425 LINE",
"240 440 LINE",
"429 440 LINE",
"455 413 LINE",
"455 -135 LINE",
"407 -78 LINE",
"369 -144 LINE",
"277 -46 LINE",
"144 -46 LINE",
"74 -114 LINE",
"74 -206 LINE",
"144 -274 LINE"
);
},
{
closed = 1;
nodes = (
"162 -176 LINE",
"162 -144 LINE",
"180 -126 LINE",
"236 -126 LINE",
"265 -160 LINE",
"235 -194 LINE",
"180 -194 LINE"
);
},
{
closed = 1;
nodes = (
"109 99 LINE",
"109 133 LINE",
"129 153 LINE",
"162 153 LINE",
"182 133 LINE",
"182 99 LINE",
"162 79 LINE",
"129 79 LINE"
);
}
);
};
layerId = "D6105F7E-CAE1-4F7B-A52E-8AA6E6082DF8";
paths = (
{
closed = 1;
nodes = (
"258 -274 LINE",
"316 -208 LINE",
"376 -274 LINE",
"420 -202 LINE",
"485 -274 LINE",
"589 -274 LINE",
"589 461 LINE",
"493 558 LINE",
"189 558 LINE",
"62 431 LINE",
"168 343 LINE",
"134 286 LINE",
"134 246 LINE",
"138 230 LINE",
"93 230 LINE",
"24 165 LINE",
"24 67 LINE",
"93 0 LINE",
"198 0 LINE",
"268 68 LINE",
"268 261 LINE",
"312 343 LINE",
"221 425 LINE",
"240 440 LINE",
"429 440 LINE",
"455 413 LINE",
"455 -135 LINE",
"407 -78 LINE",
"369 -144 LINE",
"277 -46 LINE",
"144 -46 LINE",
"74 -114 LINE",
"74 -206 LINE",
"144 -274 LINE"
);
},
{
closed = 1;
nodes = (
"162 -176 LINE",
"162 -144 LINE",
"180 -126 LINE",
"236 -126 LINE",
"265 -160 LINE",
"235 -194 LINE",
"180 -194 LINE"
);
},
{
closed = 1;
nodes = (
"109 99 LINE",
"109 133 LINE",
"129 153 LINE",
"162 153 LINE",
"182 133 LINE",
"182 99 LINE",
"162 79 LINE",
"129 79 LINE"
);
}
);
width = 653;
}
);
note = uni0E0F;
unicode = 0E0F;
},
{
glyphname = "toPatak-thai.short";
lastChange = "2018-04-30 09:53:35 +0000";
layers = (
{
anchors = (
{
name = bottom;
position = "{549, -224}";
},
{
name = top;
position = "{549, 498}";
}
);
background = {
paths = (
{
closed = 1;
nodes = (
"248 -224 LINE",
"311 -164 LINE",
"369 -224 LINE",
"417 -159 LINE",
"481 -224 LINE",
"549 -224 LINE",
"549 477 LINE",
"468 558 LINE",
"189 558 LINE",
"88 457 LINE",
"191 371 LINE",
"150 304 LINE",
"150 228 LINE",
"155 190 LINE",
"88 190 LINE",
"28 133 LINE",
"28 59 LINE",
"88 0 LINE",
"164 0 LINE",
"224 59 LINE",
"224 284 LINE",
"272 371 LINE",
"176 457 LINE",
"213 490 LINE",
"432 490 LINE",
"475 447 LINE",
"475 -145 LINE",
"412 -82 LINE",
"366 -146 LINE",
"256 -28 LINE",
"157 -28 LINE",
"100 -85 LINE",
"100 -167 LINE",
"157 -224 LINE"
);
},
{
closed = 1;
nodes = (
"160 -146 LINE",
"160 -106 LINE",
"184 -82 LINE",
"231 -82 LINE",
"274 -126 LINE",
"229 -170 LINE",
"184 -170 LINE"
);
},
{
closed = 1;
nodes = (
"82 74 LINE",
"82 116 LINE",
"108 140 LINE",
"144 140 LINE",
"170 116 LINE",
"170 74 LINE",
"144 50 LINE",
"108 50 LINE"
);
}
);
};
layerId = "39D11A97-A6D9-4B52-A6F5-15D5E4373676";
paths = (
{
closed = 1;
nodes = (
"248 -224 LINE",
"311 -164 LINE",
"369 -224 LINE",
"417 -159 LINE",
"481 -224 LINE",
"549 -224 LINE",
"549 477 LINE",
"468 558 LINE",
"189 558 LINE",
"88 457 LINE",
"191 371 LINE",
"150 304 LINE",
"150 226 LINE",
"155 188 LINE",
"90 188 LINE",
"30 131 LINE",
"30 59 LINE",
"90 0 LINE",
"164 0 LINE",
"224 59 LINE",
"224 284 LINE",
"272 371 LINE",
"176 457 LINE",
"213 490 LINE",
"432 490 LINE",
"475 447 LINE",
"475 -145 LINE",
"412 -82 LINE",
"366 -146 LINE",
"256 -28 LINE",
"157 -28 LINE",
"100 -85 LINE",
"100 -167 LINE",
"157 -224 LINE"
);
},
{
closed = 1;
nodes = (
"160 -146 LINE",
"160 -106 LINE",
"184 -82 LINE",
"231 -82 LINE",
"274 -126 LINE",
"229 -170 LINE",
"184 -170 LINE"
);
},
{
closed = 1;
nodes = (
"84 73 LINE",
"84 115 LINE",
"110 139 LINE",
"146 139 LINE",
"172 115 LINE",
"172 73 LINE",
"146 49 LINE",
"110 49 LINE"
);
}
);
width = 629;
},
{
anchors = (
{
name = bottom;
position = "{559, -224}";
},
{
name = top;
position = "{559, 498}";
}
);
background = {
paths = (
{
closed = 1;
nodes = (
"276 -250 LINE",
"325 -203 LINE",
"387 -268 LINE",
"435 -202 LINE",
"482 -250 LINE",
"594 -250 LINE",
"594 487 LINE",
"497 584 LINE",
"190 584 LINE",
"62 455 LINE",
"169 366 LINE",
"135 310 LINE",
"135 225 LINE",
"136 214 LINE",
"92 214 LINE",
"15 141 LINE",
"15 49 LINE",
"92 -26 LINE",
"192 -26 LINE",
"269 49 LINE",
"269 278 LINE",
"323 376 LINE",
"233 457 LINE",
"241 464 LINE",
"433 464 LINE",
"460 437 LINE",
"460 -75 LINE",
"423 -38 LINE",
"378 -101 LINE",
"285 -2 LINE",
"158 -2 LINE",
"85 -75 LINE",
"85 -177 LINE",
"158 -250 LINE"
);
},
{
closed = 1;
nodes = (
"205 -136 LINE",
"205 -116 LINE",
"213 -108 LINE",
"232 -108 LINE",
"249 -126 LINE",
"231 -144 LINE",
"213 -144 LINE"
);
},
{
closed = 1;
nodes = (
"129 83 LINE",
"129 105 LINE",
"138 113 LINE",
"148 113 LINE",
"157 105 LINE",
"157 83 LINE",
"148 75 LINE",
"138 75 LINE"
);
}
);
};
layerId = "D6105F7E-CAE1-4F7B-A52E-8AA6E6082DF8";
paths = (
{
closed = 1;
nodes = (
"258 -244 LINE",
"315 -178 LINE",
"376 -244 LINE",
"420 -172 LINE",
"485 -244 LINE",
"589 -244 LINE",
"589 461 LINE",
"493 558 LINE",
"189 558 LINE",
"62 431 LINE",
"168 343 LINE",
"134 286 LINE",
"134 246 LINE",
"138 230 LINE",
"93 230 LINE",
"24 165 LINE",
"24 67 LINE",
"93 0 LINE",
"198 0 LINE",
"268 68 LINE",
"268 261 LINE",
"312 343 LINE",
"221 425 LINE",
"240 440 LINE",
"429 440 LINE",
"455 413 LINE",
"455 -105 LINE",
"407 -48 LINE",
"369 -114 LINE",
"277 -16 LINE",
"144 -16 LINE",
"74 -84 LINE",
"74 -176 LINE",
"144 -244 LINE"
);
},
{
closed = 1;
nodes = (
"162 -146 LINE",
"162 -114 LINE",
"180 -96 LINE",
"236 -96 LINE",
"265 -130 LINE",
"235 -164 LINE",
"180 -164 LINE"
);
},
{
closed = 1;
nodes = (
"109 99 LINE",
"109 133 LINE",
"129 153 LINE",
"162 153 LINE",
"182 133 LINE",
"182 99 LINE",
"162 79 LINE",
"129 79 LINE"
);
}
);
width = 653;
}
);
note = "toPatak-thai.short";
},
{
glyphname = "ru_lakkhangyao-thai";
lastChange = "2018-04-30 09:53:41 +0000";
layers = (
{
anchors = (
{
name = bottom;
position = "{841, 0}";
},
{
name = top;
position = "{841, 498}";
}
);
background = {
paths = (
{
closed = 1;
nodes = (
"841 476 LINE",
"760 558 LINE",
"519 558 LINE",
"437 476 LINE",
"437 391 LINE",
"511 391 LINE",
"511 447 LINE",
"554 490 LINE",
"724 490 LINE",
"767 447 LINE",
"767 -210 LINE",
"841 -210 LINE"
);
},
{
closed = 1;
nodes = (
"221 0 LINE",
"281 59 LINE",
"281 133 LINE",
"221 190 LINE",
"154 190 LINE",
"159 238 LINE",
"159 284 LINE",
"220 371 LINE",
"138 457 LINE",
"175 490 LINE",
"394 490 LINE",
"437 447 LINE",
"437 -210 LINE",
"511 -210 LINE",
"511 477 LINE",
"430 558 LINE",
"151 558 LINE",
"50 457 LINE",
"137 371 LINE",
"85 304 LINE",
"85 59 LINE",
"145 0 LINE"
);
},
{
closed = 1;
nodes = (
"139 74 LINE",
"139 116 LINE",
"165 140 LINE",
"201 140 LINE",
"227 116 LINE",
"227 74 LINE",
"201 50 LINE",
"165 50 LINE"
);
}
);
};
layerId = "39D11A97-A6D9-4B52-A6F5-15D5E4373676";
paths = (
{
closed = 1;
nodes = (
"841 476 LINE",
"760 558 LINE",
"523 558 LINE",
"437 472 LINE",
"437 391 LINE",
"511 391 LINE",
"511 447 LINE",
"554 490 LINE",
"724 490 LINE",
"767 447 LINE",
"767 -210 LINE",
"841 -210 LINE"
);
},
{
closed = 1;
nodes = (
"221 0 LINE",
"281 59 LINE",
"281 133 LINE",
"221 190 LINE",
"154 190 LINE",
"159 238 LINE",
"159 284 LINE",
"220 371 LINE",
"138 457 LINE",
"175 490 LINE",
"394 490 LINE",
"437 447 LINE",
"437 -210 LINE",
"511 -210 LINE",
"511 473 LINE",
"426 558 LINE",
"151 558 LINE",
"50 457 LINE",
"137 371 LINE",
"85 304 LINE",
"85 59 LINE",
"145 0 LINE"
);
},
{
closed = 1;
nodes = (
"139 74 LINE",
"139 116 LINE",
"165 140 LINE",
"201 140 LINE",
"227 116 LINE",
"227 74 LINE",
"201 50 LINE",
"165 50 LINE"
);
}
);
width = 921;
},
{
anchors = (
{
name = bottom;
position = "{866, 0}";
},
{
name = top;
position = "{866, 498}";
}
);
background = {
paths = (
{
closed = 1;
nodes = (
"896 486 LINE",
"799 584 LINE",
"534 584 LINE",
"432 482 LINE",
"432 365 LINE",
"566 365 LINE",
"566 437 LINE",
"593 464 LINE",
"735 464 LINE",
"762 437 LINE",
"762 -236 LINE",
"896 -236 LINE"
);
},
{
closed = 1;
nodes = (
"259 -26 LINE",
"336 49 LINE",
"336 143 LINE",
"259 216 LINE",
"212 216 LINE",
"214 237 LINE",
"214 277 LINE",
"282 373 LINE",
"203 456 LINE",
"213 464 LINE",
"405 464 LINE",
"432 437 LINE",
"432 -236 LINE",
"566 -236 LINE",
"566 483 LINE",
"465 584 LINE",
"162 584 LINE",
"35 457 LINE",
"124 369 LINE",
"80 312 LINE",
"80 49 LINE",
"157 -26 LINE"
);
},
{
closed = 1;
nodes = (
"194 84 LINE",
"194 106 LINE",
"203 114 LINE",
"213 114 LINE",
"222 106 LINE",
"222 84 LINE",
"213 76 LINE",
"203 76 LINE"
);
}
);
};
layerId = "D6105F7E-CAE1-4F7B-A52E-8AA6E6082DF8";
paths = (
{
closed = 1;
nodes = (
"564 -210 LINE",
"564 461 LINE",
"467 558 LINE",
"162 558 LINE",
"35 431 LINE",
"124 343 LINE",
"76 286 LINE",
"76 67 LINE",
"145 0 LINE",
"251 0 LINE",
"320 67 LINE",
"320 165 LINE",
"251 230 LINE",
"208 230 LINE",
"210 238 LINE",
"210 261 LINE",
"272 343 LINE",
"194 425 LINE",
"213 440 LINE",
"403 440 LINE",
"430 413 LINE",
"430 -210 LINE"
);
},
{
closed = 1;
nodes = (
"161 99 LINE",
"161 133 LINE",
"181 153 LINE",
"215 153 LINE",
"235 133 LINE",
"235 99 LINE",
"215 79 LINE",
"181 79 LINE"
);
}
);
width = 961;
}
);
note = "ru_lakkhangyao-thai";
},
{
glyphname = "lu_lakkhangyao-thai";
lastChange = "2018-04-30 09:53:35 +0000";
layers = (
{
anchors = (
{
name = bottom;
position = "{879, 0}";
},
{
name = top;
position = "{879, 498}";
}
);
background = {
paths = (
{
closed = 1;
nodes = (
"879 476 LINE",
"798 558 LINE",
"561 558 LINE",
"475 472 LINE",
"475 391 LINE",
"549 391 LINE",
"549 447 LINE",
"592 490 LINE",
"762 490 LINE",
"805 447 LINE",
"805 -210 LINE",
"879 -210 LINE"
);
},
{
closed = 1;
nodes = (
"164 0 LINE",
"224 59 LINE",
"224 284 LINE",
"272 371 LINE",
"176 457 LINE",
"213 490 LINE",
"432 490 LINE",
"475 447 LINE",
"475 -210 LINE",
"549 -210 LINE",
"549 473 LINE",
"464 558 LINE",
"189 558 LINE",
"88 457 LINE",
"191 371 LINE",
"150 304 LINE",
"150 228 LINE",
"155 190 LINE",
"88 190 LINE",
"28 133 LINE",
"28 59 LINE",
"88 0 LINE"
);
},
{
closed = 1;
nodes = (
"82 74 LINE",
"82 116 LINE",
"108 140 LINE",
"144 140 LINE",
"170 116 LINE",
"170 74 LINE",
"144 50 LINE",
"108 50 LINE"
);
}
);
};
layerId = "39D11A97-A6D9-4B52-A6F5-15D5E4373676";
paths = (
{
closed = 1;
nodes = (
"549 -210 LINE",
"549 473 LINE",
"464 558 LINE",
"189 558 LINE",
"88 457 LINE",
"191 371 LINE",
"150 304 LINE",
"150 226 LINE",
"155 188 LINE",
"90 188 LINE",
"30 131 LINE",
"30 59 LINE",
"90 0 LINE",
"164 0 LINE",
"224 59 LINE",
"224 284 LINE",
"272 371 LINE",
"176 457 LINE",
"213 490 LINE",
"432 490 LINE",
"475 447 LINE",
"475 -210 LINE"
);
},
{
closed = 1;
nodes = (
"84 73 LINE",
"84 115 LINE",
"110 139 LINE",
"146 139 LINE",
"172 115 LINE",
"172 73 LINE",
"146 49 LINE",
"110 49 LINE"
);
},
{
closed = 1;
nodes = (
"879 -210 LINE",
"879 476 LINE",
"798 558 LINE",
"561 558 LINE",
"475 472 LINE",
"475 391 LINE",
"549 391 LINE",
"549 447 LINE",
"592 490 LINE",
"762 490 LINE",
"805 447 LINE",
"805 -210 LINE"
);
}
);
width = 959;
},
{
anchors = (
{
name = bottom;
position = "{886, 0}";
},
{
name = top;
position = "{886, 498}";
}
);
background = {
paths = (
{
closed = 1;
nodes = (
"909 476 LINE",
"828 558 LINE",
"591 558 LINE",
"505 472 LINE",
"505 391 LINE",
"579 391 LINE",
"579 447 LINE",
"622 490 LINE",
"792 490 LINE",
"835 447 LINE",
"835 -210 LINE",
"909 -210 LINE"
);
},
{
closed = 1;
nodes = (
"194 0 LINE",
"254 59 LINE",
"254 284 LINE",
"302 371 LINE",
"206 457 LINE",
"243 490 LINE",
"462 490 LINE",
"505 447 LINE",
"505 -210 LINE",
"579 -210 LINE",
"579 473 LINE",
"494 558 LINE",
"219 558 LINE",
"118 457 LINE",
"221 371 LINE",
"180 304 LINE",
"180 228 LINE",
"185 190 LINE",
"118 190 LINE",
"58 133 LINE",
"58 59 LINE",
"118 0 LINE"
);
},
{
closed = 1;
nodes = (
"112 74 LINE",
"112 116 LINE",
"138 140 LINE",
"174 140 LINE",
"200 116 LINE",
"200 74 LINE",
"174 50 LINE",
"138 50 LINE"
);
}
);
};
layerId = "D6105F7E-CAE1-4F7B-A52E-8AA6E6082DF8";
paths = (
{
closed = 1;
nodes = (
"587 -211 LINE",
"587 461 LINE",
"491 558 LINE",
"189 558 LINE",
"62 431 LINE",
"168 343 LINE",
"134 286 LINE",
"134 246 LINE",
"138 230 LINE",
"93 230 LINE",
"24 165 LINE",
"24 67 LINE",
"93 0 LINE",
"198 0 LINE",
"268 68 LINE",
"268 261 LINE",
"312 343 LINE",
"221 425 LINE",
"240 440 LINE",
"427 440 LINE",
"453 413 LINE",
"453 -211 LINE"
);
},
{
closed = 1;
nodes = (
"109 99 LINE",
"109 133 LINE",
"129 153 LINE",
"162 153 LINE",
"182 133 LINE",
"182 99 LINE",
"162 79 LINE",
"129 79 LINE"
);
}
);
width = 980;
}
);
note = "lu_lakkhangyao-thai";
},
{
glyphname = "yoYing-thai";
lastChange = "2018-04-30 09:53:35 +0000";
layers = (
{
anchors = (
{
name = bottom;
position = "{780, 0}";
},
{
name = top;
position = "{780, 498}";
}
);
background = {
paths = (
{
closed = 1;
nodes = (
"221 0 LINE",
"281 59 LINE",
"281 133 LINE",
"221 190 LINE",
"154 190 LINE",
"159 238 LINE",
"159 284 LINE",
"220 371 LINE",
"138 457 LINE",
"175 490 LINE",
"382 490 LINE",
"425 447 LINE",
"425 0 LINE",
"698 0 LINE",
"780 82 LINE",
"780 558 LINE",
"706 558 LINE",
"706 108 LINE",
"664 66 LINE",
"499 66 LINE",
"499 477 LINE",
"418 558 LINE",
"151 558 LINE",
"50 457 LINE",
"137 371 LINE",
"85 304 LINE",
"85 59 LINE",
"145 0 LINE"
);
},
{
closed = 1;
nodes = (
"139 74 LINE",
"139 116 LINE",
"165 140 LINE",
"201 140 LINE",
"227 116 LINE",
"227 74 LINE",
"201 50 LINE",
"165 50 LINE"
);
},
{
closed = 1;
nodes = (
"462 -153 LINE",
"462 -117 LINE",
"485 -95 LINE",
"514 -95 LINE",
"537 -117 LINE",
"537 -153 LINE",
"514 -175 LINE",
"485 -175 LINE"
);
},
{
closed = 1;
nodes = (
"692 -221 LINE",
"793 -120 LINE",
"744 -71 LINE",
"660 -155 LINE",
"587 -155 LINE",
"587 -100 LINE",
"536 -49 LINE",
"463 -49 LINE",
"412 -100 LINE",
"412 -170 LINE",
"463 -221 LINE"
);
}
);
};
layerId = "39D11A97-A6D9-4B52-A6F5-15D5E4373676";
paths = (
{
closed = 1;
nodes = (
"221 0 LINE",
"281 59 LINE",
"281 133 LINE",
"221 190 LINE",
"154 190 LINE",
"159 238 LINE",
"159 284 LINE",
"220 371 LINE",
"138 457 LINE",
"175 490 LINE",
"377 490 LINE",
"420 447 LINE",
"420 82 LINE",
"502 0 LINE",
"703 0 LINE",
"785 82 LINE",
"785 558 LINE",
"711 558 LINE",
"711 108 LINE",
"669 66 LINE",
"536 66 LINE",
"494 108 LINE",
"494 477 LINE",
"413 558 LINE",
"151 558 LINE",
"50 457 LINE",
"137 371 LINE",
"85 304 LINE",
"85 59 LINE",
"145 0 LINE"
);
},
{
closed = 1;
nodes = (
"139 74 LINE",
"139 116 LINE",
"165 140 LINE",
"201 140 LINE",
"227 116 LINE",
"227 74 LINE",
"201 50 LINE",
"165 50 LINE"
);
},
{
closed = 1;
nodes = (
"468 -153 LINE",
"468 -117 LINE",
"491 -95 LINE",
"520 -95 LINE",
"543 -117 LINE",
"543 -153 LINE",
"520 -175 LINE",
"491 -175 LINE"
);
},
{
closed = 1;
nodes = (
"698 -221 LINE",
"799 -120 LINE",
"750 -71 LINE",
"666 -155 LINE",
"593 -155 LINE",
"593 -100 LINE",
"542 -49 LINE",
"469 -49 LINE",
"418 -100 LINE",
"418 -170 LINE",
"469 -221 LINE"
);
}
);
width = 865;
},
{
anchors = (
{
name = bottom;
position = "{805, 0}";
},
{
name = top;
position = "{805, 498}";
}
);
background = {
paths = (
{
closed = 1;
nodes = (
"523 -143 LINE",
"523 -127 LINE",
"529 -121 LINE",
"532 -121 LINE",
"538 -127 LINE",
"538 -143 LINE",
"532 -149 LINE",
"529 -149 LINE"
);
},
{
closed = 1;
nodes = (
"737 -247 LINE",
"864 -120 LINE",
"775 -31 LINE",
"677 -129 LINE",
"648 -129 LINE",
"648 -90 LINE",
"581 -23 LINE",
"480 -23 LINE",
"413 -90 LINE",
"413 -180 LINE",
"480 -247 LINE"
);
},
{
closed = 1;
nodes = (
"251 0 LINE",
"320 67 LINE",
"320 165 LINE",
"251 230 LINE",
"208 230 LINE",
"210 238 LINE",
"210 261 LINE",
"272 343 LINE",
"194 425 LINE",
"213 440 LINE",
"390 440 LINE",
"417 413 LINE",
"417 88 LINE",
"505 0 LINE",
"750 0 LINE",
"840 90 LINE",
"840 558 LINE",
"706 558 LINE",
"706 142 LINE",
"682 118 LINE",
"573 118 LINE",
"549 142 LINE",
"549 461 LINE",
"452 558 LINE",
"162 558 LINE",
"35 431 LINE",
"124 343 LINE",
"76 286 LINE",
"76 67 LINE",
"145 0 LINE"
);
},
{
closed = 1;
nodes = (
"161 99 LINE",
"161 133 LINE",
"181 153 LINE",
"215 153 LINE",
"235 133 LINE",
"235 99 LINE",
"215 79 LINE",
"181 79 LINE"
);
}
);
};
layerId = "D6105F7E-CAE1-4F7B-A52E-8AA6E6082DF8";
paths = (
{
closed = 1;
nodes = (
"251 0 LINE",
"320 67 LINE",
"320 165 LINE",
"251 230 LINE",
"208 230 LINE",
"210 238 LINE",
"210 261 LINE",
"272 343 LINE",
"194 425 LINE",
"213 440 LINE",
"390 440 LINE",
"417 413 LINE",
"417 88 LINE",
"505 0 LINE",
"750 0 LINE",
"840 90 LINE",
"840 558 LINE",
"706 558 LINE",
"706 142 LINE",
"682 118 LINE",
"573 118 LINE",
"549 142 LINE",
"549 461 LINE",
"452 558 LINE",
"162 558 LINE",
"35 431 LINE",
"124 343 LINE",
"76 286 LINE",
"76 67 LINE",
"145 0 LINE"
);
},
{
closed = 1;
nodes = (
"161 99 LINE",
"161 133 LINE",
"181 153 LINE",
"215 153 LINE",
"235 133 LINE",
"235 99 LINE",
"215 79 LINE",
"181 79 LINE"
);
},
{
closed = 1;
nodes = (
"493 -150 LINE",
"493 -120 LINE",
"513 -100 LINE",
"545 -100 LINE",
"565 -120 LINE",
"565 -150 LINE",
"545 -170 LINE",
"513 -170 LINE"
);
},
{
closed = 1;
nodes = (
"733 -241 LINE",
"860 -120 LINE",
"773 -34 LINE",
"676 -131 LINE",
"643 -131 LINE",
"643 -96 LINE",
"576 -29 LINE",
"478 -29 LINE",
"413 -94 LINE",
"413 -176 LINE",
"478 -241 LINE"
);
}
);
width = 915;
}
);
note = uni0E0D;
unicode = 0E0D;
},
{
glyphname = "yoYing-thai.less";
lastChange = "2018-04-30 09:53:35 +0000";
layers = (
{
anchors = (
{
name = bottom;
position = "{780, 0}";
},
{
name = top;
position = "{780, 498}";
}
);
background = {
paths = (
{
closed = 1;
nodes = (
"221 0 LINE",
"281 59 LINE",
"281 133 LINE",
"221 190 LINE",
"154 190 LINE",
"159 238 LINE",
"159 284 LINE",
"220 371 LINE",
"138 457 LINE",
"175 490 LINE",
"382 490 LINE",
"425 447 LINE",
"425 0 LINE",
"698 0 LINE",
"780 82 LINE",
"780 558 LINE",
"706 558 LINE",
"706 108 LINE",
"664 66 LINE",
"499 66 LINE",
"499 477 LINE",
"418 558 LINE",
"151 558 LINE",
"50 457 LINE",
"137 371 LINE",
"85 304 LINE",
"85 59 LINE",
"145 0 LINE"
);
},
{
closed = 1;
nodes = (
"139 74 LINE",
"139 116 LINE",
"165 140 LINE",
"201 140 LINE",
"227 116 LINE",
"227 74 LINE",
"201 50 LINE",
"165 50 LINE"
);
}
);
};
layerId = "39D11A97-A6D9-4B52-A6F5-15D5E4373676";
paths = (
{
closed = 1;
nodes = (
"221 0 LINE",
"281 59 LINE",
"281 133 LINE",
"221 190 LINE",
"154 190 LINE",
"159 238 LINE",
"159 284 LINE",
"220 371 LINE",
"138 457 LINE",
"175 490 LINE",
"377 490 LINE",
"420 447 LINE",
"420 82 LINE",
"502 0 LINE",
"703 0 LINE",
"785 82 LINE",
"785 558 LINE",
"711 558 LINE",
"711 108 LINE",
"669 66 LINE",
"536 66 LINE",
"494 108 LINE",
"494 477 LINE",
"413 558 LINE",
"151 558 LINE",
"50 457 LINE",
"137 371 LINE",
"85 304 LINE",
"85 59 LINE",
"145 0 LINE"
);
},
{
closed = 1;
nodes = (
"139 74 LINE",
"139 116 LINE",
"165 140 LINE",
"201 140 LINE",
"227 116 LINE",
"227 74 LINE",
"201 50 LINE",
"165 50 LINE"
);
}
);
width = 865;
},
{
anchors = (
{
name = bottom;
position = "{797, 0}";
},
{
name = top;
position = "{797, 498}";
}
);
background = {
paths = (
{
closed = 1;
nodes = (
"259 -26 LINE",
"336 49 LINE",
"336 143 LINE",
"259 216 LINE",
"212 216 LINE",
"214 237 LINE",
"214 251 LINE",
"282 347 LINE",
"203 430 LINE",
"213 438 LINE",
"388 438 LINE",
"415 411 LINE",
"415 98 LINE",
"513 0 LINE",
"742 0 LINE",
"840 98 LINE",
"840 558 LINE",
"706 558 LINE",
"706 144 LINE",
"680 118 LINE",
"575 118 LINE",
"549 144 LINE",
"549 461 LINE",
"452 558 LINE",
"162 558 LINE",
"35 431 LINE",
"124 343 LINE",
"80 286 LINE",
"80 49 LINE",
"157 -26 LINE"
);
},
{
closed = 1;
nodes = (
"194 84 LINE",
"194 106 LINE",
"203 114 LINE",
"213 114 LINE",
"222 106 LINE",
"222 84 LINE",
"213 76 LINE",
"203 76 LINE"
);
}
);
};
layerId = "D6105F7E-CAE1-4F7B-A52E-8AA6E6082DF8";
paths = (
{
closed = 1;
nodes = (
"249 0 LINE",
"317 67 LINE",
"317 165 LINE",
"249 230 LINE",
"207 230 LINE",
"209 238 LINE",
"209 261 LINE",
"270 343 LINE",
"193 425 LINE",
"211 440 LINE",
"386 440 LINE",
"412 413 LINE",
"412 88 LINE",
"500 0 LINE",
"743 0 LINE",
"833 90 LINE",
"833 558 LINE",
"699 558 LINE",
"699 142 LINE",
"675 118 LINE",
"568 118 LINE",
"544 142 LINE",
"544 461 LINE",
"448 558 LINE",
"160 558 LINE",
"34 431 LINE",
"122 343 LINE",
"75 286 LINE",
"75 67 LINE",
"143 0 LINE"
);
},
{
closed = 1;
nodes = (
"160 99 LINE",
"160 133 LINE",
"179 153 LINE",
"213 153 LINE",
"233 133 LINE",
"233 99 LINE",
"213 79 LINE",
"179 79 LINE"
);
}
);
width = 897;
}
);
note = "yoYing-thai.less";
},
{
glyphname = "khoKhai-thai";
lastChange = "2018-04-30 09:53:35 +0000";
layers = (
{
anchors = (
{
name = bottom;
position = "{499, 0}";
},
{
name = top;
position = "{499, 498}";
}
);
background = {
paths = (
{
closed = 1;
nodes = (
"94 370 LINE",
"94 410 LINE",
"120 434 LINE",
"156 434 LINE",
"182 408 LINE",
"182 370 LINE",
"156 344 LINE",
"120 344 LINE"
);
},
{
closed = 1;
nodes = (
"316 0 LINE",
"421 0 LINE",
"499 78 LINE",
"499 558 LINE",
"425 558 LINE",
"425 102 LINE",
"389 66 LINE",
"348 66 LINE",
"312 102 LINE",
"312 280 LINE",
"359 398 LINE",
"359 490 LINE",
"281 568 LINE",
"137 568 LINE",
"40 471 LINE",
"40 354 LINE",
"100 294 LINE",
"176 294 LINE",
"236 354 LINE",
"236 422 LINE",
"176 482 LINE",
"121 482 LINE",
"153 510 LINE",
"248 510 LINE",
"291 467 LINE",
"291 406 LINE",
"238 280 LINE",
"238 78 LINE"
);
}
);
};
layerId = "39D11A97-A6D9-4B52-A6F5-15D5E4373676";
paths = (
{
closed = 1;
nodes = (
"421 0 LINE",
"499 78 LINE",
"499 558 LINE",
"425 558 LINE",
"425 102 LINE",
"389 66 LINE",
"348 66 LINE",
"312 102 LINE",
"312 280 LINE",
"359 398 LINE",
"359 490 LINE",
"281 568 LINE",
"137 568 LINE",
"40 471 LINE",
"40 354 LINE",
"100 294 LINE",
"176 294 LINE",
"236 354 LINE",
"236 422 LINE",
"176 482 LINE",
"121 482 LINE",
"153 510 LINE",
"248 510 LINE",
"291 467 LINE",
"291 406 LINE",
"238 280 LINE",
"238 78 LINE",
"316 0 LINE"
);
},
{
closed = 1;
nodes = (
"94 370 LINE",
"94 410 LINE",
"120 434 LINE",
"156 434 LINE",
"182 408 LINE",
"182 370 LINE",
"156 344 LINE",
"120 344 LINE"
);
}
);
width = 579;
},
{
anchors = (
{
name = bottom;
position = "{509, 0}";
},
{
name = top;
position = "{509, 498}";
}
);
background = {
paths = (
{
closed = 1;
nodes = (
"464 0 LINE",
"552 88 LINE",
"552 558 LINE",
"419 558 LINE",
"419 132 LINE",
"401 114 LINE",
"368 114 LINE",
"350 132 LINE",
"350 299 LINE",
"379 368 LINE",
"379 476 LINE",
"287 568 LINE",
"123 568 LINE",
"25 463 LINE",
"25 352 LINE",
"86 292 LINE",
"170 292 LINE",
"227 352 LINE",
"227 418 LINE",
"175 470 LINE",
"132 470 LINE",
"150 487 LINE",
"241 487 LINE",
"272 456 LINE",
"272 385 LINE",
"221 275 LINE",
"221 86 LINE",
"307 0 LINE"
);
},
{
closed = 1;
nodes = (
"93 371 LINE",
"93 405 LINE",
"113 425 LINE",
"147 425 LINE",
"167 405 LINE",
"167 371 LINE",
"147 351 LINE",
"113 351 LINE"
);
}
);
};
layerId = "D6105F7E-CAE1-4F7B-A52E-8AA6E6082DF8";
paths = (
{
closed = 1;
nodes = (
"460 0 LINE",
"547 88 LINE",
"547 558 LINE",
"414 558 LINE",
"414 132 LINE",
"397 114 LINE",
"363 114 LINE",
"346 132 LINE",
"346 299 LINE",
"375 368 LINE",
"375 476 LINE",
"284 568 LINE",
"121 568 LINE",
"24 463 LINE",
"24 342 LINE",
"84 282 LINE",
"168 282 LINE",
"224 342 LINE",
"224 412 LINE",
"175 462 LINE",
"133 462 LINE",
"159 487 LINE",
"232 487 LINE",
"268 450 LINE",
"268 385 LINE",
"218 275 LINE",
"218 86 LINE",
"303 0 LINE"
);
},
{
closed = 1;
nodes = (
"93 362 LINE",
"93 394 LINE",
"112 414 LINE",
"144 414 LINE",
"164 394 LINE",
"164 362 LINE",
"144 342 LINE",
"112 342 LINE"
);
}
);
width = 611;
}
);
note = uni0E02;
unicode = 0E02;
},
{
glyphname = "khoKhuat-thai";
lastChange = "2018-05-01 10:54:12 +0000";
layers = (
{
anchors = (
{
name = bottom;
position = "{514, 0}";
},
{
name = top;
position = "{514, 498}";
}
);
background = {
paths = (
{
closed = 1;
nodes = (
"82 362 LINE",
"82 402 LINE",
"107 425 LINE",
"141 425 LINE",
"166 402 LINE",
"166 362 LINE",
"141 339 LINE",
"107 339 LINE"
);
},
{
closed = 1;
nodes = (
"30 347 LINE",
"87 291 LINE",
"161 291 LINE",
"218 347 LINE",
"218 419 LINE",
"161 471 LINE",
"96 471 LINE",
"133 510 LINE",
"178 510 LINE",
"233 452 LINE",
"286 510 LINE",
"298 510 LINE",
"320 488 LINE",
"320 409 LINE",
"248 289 LINE",
"248 77 LINE",
"325 0 LINE",
"432 0 LINE",
"509 77 LINE",
"509 558 LINE",
"435 558 LINE",
"435 105 LINE",
"397 66 LINE",
"360 66 LINE",
"322 105 LINE",
"322 289 LINE",
"386 401 LINE",
"386 506 LINE",
"329 568 LINE",
"274 568 LINE",
"233 518 LINE",
"190 568 LINE",
"116 568 LINE",
"30 470 LINE"
);
}
);
};
layerId = "39D11A97-A6D9-4B52-A6F5-15D5E4373676";
paths = (
{
closed = 1;
nodes = (
"436 0 LINE",
"514 78 LINE",
"514 558 LINE",
"440 558 LINE",
"440 102 LINE",
"404 66 LINE",
"363 66 LINE",
"327 102 LINE",
"327 289 LINE",
"391 401 LINE",
"391 505 LINE",
"334 568 LINE",
"278 568 LINE",
"238 519 LINE",
"195 568 LINE",
"123 568 LINE",
"35 472 LINE",
"35 348 LINE",
"92 291 LINE",
"166 291 LINE",
"223 348 LINE",
"223 414 LINE",
"166 471 LINE",
"100 471 LINE",
"139 510 LINE",
"183 510 LINE",
"238 453 LINE",
"290 510 LINE",
"304 510 LINE",
"325 487 LINE",
"325 409 LINE",
"253 287 LINE",
"253 78 LINE",
"331 0 LINE"
);
},
{
closed = 1;
nodes = (
"87 364 LINE",
"87 402 LINE",
"112 425 LINE",
"146 425 LINE",
"171 400 LINE",
"171 364 LINE",
"146 339 LINE",
"112 339 LINE"
);
}
);
width = 594;
},
{
anchors = (
{
name = bottom;
position = "{529, 0}";
},
{
name = top;
position = "{529, 498}";
}
);
background = {
paths = (
{
closed = 1;
nodes = (
"481 0 LINE",
"569 88 LINE",
"569 558 LINE",
"436 558 LINE",
"436 132 LINE",
"418 114 LINE",
"385 114 LINE",
"367 132 LINE",
"367 287 LINE",
"409 379 LINE",
"409 498 LINE",
"346 568 LINE",
"269 568 LINE",
"233 531 LINE",
"196 568 LINE",
"124 568 LINE",
"20 455 LINE",
"20 322 LINE",
"81 262 LINE",
"165 262 LINE",
"222 322 LINE",
"222 388 LINE",
"170 440 LINE",
"121 440 LINE",
"160 478 LINE",
"176 478 LINE",
"230 428 LINE",
"283 478 LINE",
"293 478 LINE",
"300 470 LINE",
"300 389 LINE",
"238 267 LINE",
"238 86 LINE",
"324 0 LINE"
);
},
{
closed = 1;
nodes = (
"88 341 LINE",
"88 375 LINE",
"108 395 LINE",
"142 395 LINE",
"162 375 LINE",
"162 341 LINE",
"142 321 LINE",
"108 321 LINE"
);
}
);
};
layerId = "D6105F7E-CAE1-4F7B-A52E-8AA6E6082DF8";
paths = (
{
closed = 1;
nodes = (
"481 0 LINE",
"569 88 LINE",
"569 558 LINE",
"436 558 LINE",
"436 132 LINE",
"418 114 LINE",
"385 114 LINE",
"367 132 LINE",
"367 287 LINE",
"399 379 LINE",
"399 494 LINE",
"332 568 LINE",
"264 568 LINE",
"223 527 LINE",
"181 568 LINE",
"114 568 LINE",
"20 465 LINE",
"20 322 LINE",
"81 262 LINE",
"165 262 LINE",
"222 322 LINE",
"222 388 LINE",
"170 441 LINE",
"112 441 LINE",
"150 478 LINE",
"172 478 LINE",
"223 430 LINE",
"269 476 LINE",
"280 476 LINE",
"290 465 LINE",
"290 389 LINE",
"239 267 LINE",
"239 86 LINE",
"324 0 LINE"
);
},
{
closed = 1;
nodes = (
"89 342 LINE",
"89 374 LINE",
"109 394 LINE",
"141 394 LINE",
"161 374 LINE",
"161 342 LINE",
"141 322 LINE",
"109 322 LINE"
);
}
);
width = 624;
}
);
note = uni0E03;
unicode = 0E03;
},
{
glyphname = "choChang-thai";
lastChange = "2018-04-30 09:53:35 +0000";
layers = (
{
anchors = (
{
name = bottom;
position = "{509, 0}";
},
{
name = top;
position = "{499, 498}";
}
);
background = {
paths = (
{
closed = 1;
nodes = (
"427 0 LINE",
"504 77 LINE",
"504 440 LINE",
"473 484 LINE",
"593 599 LINE",
"546 649 LINE",
"400 505 LINE",
"400 471 LINE",
"430 428 LINE",
"430 105 LINE",
"392 66 LINE",
"345 66 LINE",
"307 105 LINE",
"307 280 LINE",
"354 398 LINE",
"354 486 LINE",
"276 568 LINE",
"132 568 LINE",
"35 470 LINE",
"35 353 LINE",
"95 294 LINE",
"171 294 LINE",
"231 353 LINE",
"231 427 LINE",
"171 482 LINE",
"116 482 LINE",
"150 510 LINE",
"243 510 LINE",
"286 464 LINE",
"286 406 LINE",
"233 280 LINE",
"233 77 LINE",
"310 0 LINE"
);
},
{
closed = 1;
nodes = (
"89 368 LINE",
"89 410 LINE",
"115 434 LINE",
"151 434 LINE",
"177 410 LINE",
"177 368 LINE",
"151 344 LINE",
"115 344 LINE"
);
}
);
};
layerId = "39D11A97-A6D9-4B52-A6F5-15D5E4373676";
paths = (
{
closed = 1;
nodes = (
"431 0 LINE",
"509 78 LINE",
"509 430 LINE",
"477 471 LINE",
"598 589 LINE",
"551 639 LINE",
"405 493 LINE",
"405 459 LINE",
"435 418 LINE",
"435 102 LINE",
"399 66 LINE",
"348 66 LINE",
"312 102 LINE",
"312 280 LINE",
"359 398 LINE",
"359 490 LINE",
"281 568 LINE",
"137 568 LINE",
"40 471 LINE",
"40 354 LINE",
"100 294 LINE",
"176 294 LINE",
"236 354 LINE",
"236 422 LINE",
"176 482 LINE",
"121 482 LINE",
"153 510 LINE",
"248 510 LINE",
"291 467 LINE",
"291 406 LINE",
"238 280 LINE",
"238 78 LINE",
"316 0 LINE"
);
},
{
closed = 1;
nodes = (
"94 370 LINE",
"94 410 LINE",
"120 434 LINE",
"156 434 LINE",
"182 408 LINE",
"182 370 LINE",
"156 344 LINE",
"120 344 LINE"
);
}
);
width = 598;
},
{
anchors = (
{
name = bottom;
position = "{519, 0}";
},
{
name = top;
position = "{509, 498}";
}
);
background = {
paths = (
{
closed = 1;
nodes = (
"474 0 LINE",
"563 89 LINE",
"563 398 LINE",
"533 443 LINE",
"647 555 LINE",
"566 642 LINE",
"405 479 LINE",
"405 426 LINE",
"431 385 LINE",
"431 132 LINE",
"413 114 LINE",
"367 114 LINE",
"349 132 LINE",
"349 299 LINE",
"379 368 LINE",
"379 476 LINE",
"287 568 LINE",
"123 568 LINE",
"25 463 LINE",
"25 342 LINE",
"86 282 LINE",
"170 282 LINE",
"227 342 LINE",
"227 412 LINE",
"177 462 LINE",
"134 462 LINE",
"161 487 LINE",
"235 487 LINE",
"272 450 LINE",
"272 385 LINE",
"221 275 LINE",
"221 86 LINE",
"307 0 LINE"
);
},
{
closed = 1;
nodes = (
"94 362 LINE",
"94 394 LINE",
"114 414 LINE",
"146 414 LINE",
"166 394 LINE",
"166 362 LINE",
"146 342 LINE",
"114 342 LINE"
);
}
);
};
layerId = "D6105F7E-CAE1-4F7B-A52E-8AA6E6082DF8";
paths = (
{
closed = 1;
nodes = (
"470 0 LINE",
"558 89 LINE",
"558 398 LINE",
"529 443 LINE",
"641 555 LINE",
"560 642 LINE",
"401 479 LINE",
"401 426 LINE",
"426 385 LINE",
"426 132 LINE",
"409 114 LINE",
"363 114 LINE",
"346 132 LINE",
"346 299 LINE",
"375 368 LINE",
"375 476 LINE",
"284 568 LINE",
"121 568 LINE",
"24 463 LINE",
"24 342 LINE",
"84 282 LINE",
"168 282 LINE",
"224 342 LINE",
"224 412 LINE",
"175 462 LINE",
"133 462 LINE",
"159 487 LINE",
"232 487 LINE",
"268 450 LINE",
"268 385 LINE",
"218 275 LINE",
"218 86 LINE",
"303 0 LINE"
);
},
{
closed = 1;
nodes = (
"93 362 LINE",
"93 394 LINE",
"112 414 LINE",
"144 414 LINE",
"164 394 LINE",
"164 362 LINE",
"144 342 LINE",
"112 342 LINE"
);
}
);
width = 631;
}
);
note = uni0E0A;
unicode = 0E0A;
},
